{"glyphs":{"0":{"ha":692,"x_min":94,"x_max":597,"o":"m 338 -16 q 107 331 148 -16 q 94 572 94 441 q 110 802 94 704 q 157 967 125 900 q 350 1106 223 1106 q 540 972 480 1106 q 597 579 596 845 q 454 26 600 150 q 338 -16 405 -16 m 337 45 q 533 574 533 45 q 469 977 533 872 q 350 1046 425 1046 q 159 568 159 1046 q 262 73 159 157 q 337 45 295 45 z "},"1":{"ha":389,"x_min":66,"x_max":249,"o":"m 205 3 q 175 50 174 3 q 179 168 177 97 q 182 318 180 238 q 184 603 184 505 l 184 868 q 183 971 184 922 q 183 1017 183 996 q 172 999 178 1008 q 132 943 142 955 q 105 931 121 931 q 77 943 89 931 q 66 971 66 955 q 84 1004 66 988 q 116 1031 103 1021 q 137 1050 128 1042 q 174 1085 157 1068 q 210 1103 191 1103 q 249 1059 250 1103 q 242 745 242 869 l 242 530 q 245 49 242 201 q 233 15 246 26 q 205 3 220 3 z "},"2":{"ha":587,"x_min":74,"x_max":509,"o":"m 439 808 q 302 1036 439 1036 q 190 970 227 1036 q 159 777 154 905 q 135 739 159 748 q 118 737 128 737 q 96 748 107 737 q 84 782 85 760 q 149 1023 79 938 q 311 1098 210 1098 q 498 937 465 1098 q 509 826 509 884 q 493 722 509 768 q 453 630 478 675 q 396 540 428 585 q 331 451 364 495 q 265 361 297 406 q 208 271 233 317 q 153 85 153 171 q 159 64 153 67 q 191 61 165 60 q 253 65 216 62 q 327 71 290 68 q 449 73 415 76 q 503 35 503 70 q 493 12 503 22 q 465 1 484 1 l 304 3 q 146 -1 191 3 q 88 4 102 -5 q 74 38 74 14 q 169 321 74 171 q 257 447 210 386 q 345 567 304 507 q 439 808 439 705 z "},"3":{"ha":608,"x_min":73,"x_max":527,"o":"m 73 283 q 115 342 73 342 q 139 330 129 342 q 148 300 150 318 q 143 268 146 281 q 140 226 140 254 q 150 162 140 198 q 180 100 159 126 q 302 47 223 47 q 426 107 384 47 q 464 244 464 160 q 416 372 464 317 q 285 427 364 431 q 252 433 263 423 q 241 459 241 444 q 255 490 241 474 q 298 511 269 505 q 406 616 363 539 q 448 801 448 693 q 409 972 448 908 q 301 1037 371 1037 q 191 983 231 1037 q 152 825 152 929 q 146 789 152 800 q 123 777 140 777 q 95 788 106 777 q 83 823 83 800 q 148 1032 83 957 q 298 1101 208 1101 q 507 795 507 1101 q 419 526 507 631 q 361 475 395 496 q 463 418 418 465 q 527 248 527 351 q 460 58 527 132 q 293 -15 394 -15 q 134 59 197 -15 q 73 265 67 137 q 73 283 73 275 z "},"4":{"ha":557,"x_min":14,"x_max":542,"o":"m 416 1065 l 411 566 l 411 428 l 498 433 q 531 424 520 434 q 542 401 542 413 q 532 381 542 390 q 510 372 522 372 q 482 372 498 372 q 449 372 467 372 q 415 372 431 372 q 412 371 413 371 l 410 307 l 410 283 q 412 148 410 213 q 415 46 414 83 q 405 -1 416 10 q 381 -13 394 -13 q 357 -3 368 -13 q 347 29 347 7 l 347 50 l 350 264 q 349 371 350 317 l 287 372 l 59 365 q 14 394 14 365 q 26 431 14 405 q 72 520 38 456 q 151 671 106 585 q 344 1079 257 880 q 387 1109 358 1109 q 416 1065 416 1109 m 353 971 q 260 772 319 895 q 165 572 189 622 q 101 425 119 472 q 175 424 138 424 l 233 424 q 260 424 243 424 q 294 425 276 425 q 349 426 330 425 q 353 753 353 741 l 353 789 l 353 892 l 353 971 z "},"5":{"ha":612,"x_min":98,"x_max":545,"o":"m 336 517 q 280 508 303 517 q 241 486 257 498 q 205 439 216 463 q 156 395 184 395 q 122 420 129 395 q 122 448 119 428 q 127 496 124 468 q 133 557 130 525 q 138 727 138 628 q 126 1059 138 917 q 155 1100 124 1093 q 174 1100 163 1101 q 206 1097 184 1099 q 255 1096 228 1096 q 371 1095 335 1095 q 483 1097 450 1095 q 528 1088 515 1099 q 541 1061 541 1078 q 527 1034 541 1044 q 488 1025 513 1023 q 424 1030 463 1028 q 342 1033 385 1031 q 255 1034 298 1034 q 196 1035 223 1034 q 197 903 196 963 q 197 768 197 834 q 193 507 195 645 q 300 571 230 555 q 330 576 319 576 q 489 504 433 576 q 545 282 545 432 q 480 66 545 150 q 319 -15 416 -15 q 155 53 215 -15 q 98 242 94 123 q 110 273 98 263 q 135 283 121 283 q 161 271 149 283 q 171 244 173 260 q 169 199 169 223 q 180 143 169 174 q 210 90 191 113 q 319 41 253 41 q 445 113 401 41 q 483 280 483 176 q 444 444 483 376 q 336 517 403 517 z "},"6":{"ha":686,"x_min":107,"x_max":591,"o":"m 187 261 q 249 106 200 168 q 341 50 294 50 q 420 68 389 50 q 471 117 450 86 q 512 269 512 179 q 427 463 512 417 q 367 478 400 478 q 303 461 334 478 q 247 414 272 444 q 187 261 191 347 m 170 380 q 244 492 195 450 q 358 541 302 541 q 453 523 415 541 q 518 472 491 506 q 575 268 575 399 q 524 87 575 174 q 357 -15 463 -15 q 219 44 283 -15 q 133 216 157 103 q 107 495 107 331 q 121 759 107 659 q 168 935 136 858 q 380 1105 237 1100 q 576 949 532 1112 q 591 814 591 892 q 579 780 591 791 q 553 768 567 768 q 529 778 539 768 q 519 809 518 788 q 439 1034 529 989 q 371 1046 412 1046 q 293 1015 330 1046 q 229 921 256 983 q 166 567 177 801 q 168 420 163 504 q 170 380 169 399 z "},"7":{"ha":532,"x_min":47,"x_max":481,"o":"m 85 1095 l 245 1092 q 427 1099 334 1092 q 481 1058 481 1105 q 430 847 481 1012 q 355 603 378 682 q 309 445 332 525 q 270 290 287 365 q 235 38 232 125 q 209 1 235 10 q 168 8 178 -11 q 161 68 157 28 q 180 178 165 109 q 213 322 194 248 q 255 472 233 396 q 299 619 277 547 q 342 755 321 690 q 380 871 363 819 q 414 1007 414 985 q 408 1033 414 1029 q 378 1034 401 1036 q 323 1029 355 1031 q 259 1024 292 1026 q 159 1020 195 1020 q 83 1023 101 1020 q 57 1038 66 1027 q 47 1063 47 1050 q 57 1085 47 1076 q 85 1095 66 1095 z "},"8":{"ha":648,"x_min":83,"x_max":548,"o":"m 321 49 q 392 66 362 49 q 440 113 421 83 q 477 254 477 169 q 433 380 477 328 q 313 434 387 434 q 199 379 243 434 q 159 252 159 328 q 200 112 159 170 q 321 49 245 49 m 479 788 q 479 852 479 788 q 442 981 479 915 q 320 1047 404 1047 q 192 981 237 1047 q 148 785 148 916 q 194 582 148 664 q 319 496 242 496 q 439 582 396 496 q 479 788 479 662 m 224 469 q 97 666 133 513 q 83 783 83 727 q 143 1027 83 946 q 320 1109 203 1109 q 492 1027 436 1109 q 548 783 548 946 q 513 602 548 694 q 408 467 476 506 q 539 241 539 419 q 479 61 539 132 q 313 -15 416 -15 q 157 58 220 -15 q 95 239 95 132 q 190 447 95 380 q 224 469 207 459 z "},"9":{"ha":671,"x_min":98,"x_max":578,"o":"m 512 726 q 500 858 512 800 q 467 958 489 916 q 336 1044 420 1044 q 210 952 258 1044 q 165 770 165 867 q 175 611 165 674 q 204 504 184 548 q 326 412 245 412 q 458 494 407 412 q 512 726 512 580 m 518 517 q 327 353 460 353 q 158 452 218 353 q 98 753 98 551 q 152 978 98 875 q 334 1105 216 1105 q 524 991 469 1105 q 578 616 578 881 q 530 153 578 300 q 347 -15 475 -15 q 205 51 267 -15 q 132 244 137 124 q 141 278 130 267 q 163 289 151 289 q 184 279 174 289 q 197 234 195 269 q 213 161 199 199 q 247 98 227 123 q 347 47 288 47 q 502 285 460 47 q 518 490 518 381 l 518 517 z "},"\u0001":{"ha":0,"x_min":0,"x_max":0,"o":""},"\u0002":{"ha":0,"x_min":0,"x_max":0,"o":""},"\u0003":{"ha":0,"x_min":0,"x_max":0,"o":""},"\u0004":{"ha":0,"x_min":0,"x_max":0,"o":""},"\u0005":{"ha":0,"x_min":0,"x_max":0,"o":""},"\u0006":{"ha":0,"x_min":0,"x_max":0,"o":""},"\u0007":{"ha":0,"x_min":0,"x_max":0,"o":""},"\b":{"ha":0,"x_min":0,"x_max":0,"o":""},"\t":{"ha":0,"x_min":0,"x_max":0,"o":""},"\u0010":{"ha":0,"x_min":0,"x_max":0,"o":""},"\u0011":{"ha":0,"x_min":0,"x_max":0,"o":""},"\u0012":{"ha":0,"x_min":0,"x_max":0,"o":""},"\u0013":{"ha":0,"x_min":0,"x_max":0,"o":""},"\u0014":{"ha":0,"x_min":0,"x_max":0,"o":""},"\u0015":{"ha":0,"x_min":0,"x_max":0,"o":""},"\u0016":{"ha":0,"x_min":0,"x_max":0,"o":""},"\u0017":{"ha":0,"x_min":0,"x_max":0,"o":""},"\u0018":{"ha":0,"x_min":0,"x_max":0,"o":""},"\u0019":{"ha":0,"x_min":0,"x_max":0,"o":""}," ":{"ha":247,"x_min":0,"x_max":0,"o":""},"!":{"ha":336,"x_min":102,"x_max":223,"o":"m 203 85 q 208 82 203 85 q 218 67 212 78 q 223 41 223 56 q 217 14 223 25 q 201 -4 211 3 q 158 -16 183 -16 q 107 16 122 -16 q 102 41 102 27 q 141 95 102 82 q 162 99 152 99 q 184 96 173 99 q 203 85 195 92 m 195 642 l 195 449 q 201 262 195 319 q 191 229 203 240 q 166 217 180 217 q 143 227 153 217 q 136 276 134 237 q 138 459 138 331 q 137 673 138 587 q 135 844 136 760 q 123 1147 132 1018 q 135 1186 121 1173 q 166 1199 150 1199 q 196 1186 182 1199 q 207 1137 210 1173 q 202 1043 204 1102 q 198 917 199 984 q 195 642 195 783 z "},"\"":{"ha":393,"x_min":57,"x_max":326,"o":"m 287 1234 q 326 1174 332 1234 q 313 810 313 1027 q 286 770 313 774 q 267 779 275 769 q 258 812 258 789 l 260 867 q 256 1006 260 928 q 249 1174 252 1084 q 287 1234 246 1234 m 103 770 q 84 779 92 769 q 76 829 76 789 q 74 922 76 869 q 69 1022 72 975 q 63 1107 66 1069 q 57 1175 60 1146 q 68 1219 55 1204 q 100 1234 81 1234 q 131 1219 118 1234 q 142 1180 144 1204 q 138 1124 140 1156 q 136 1055 137 1093 q 133 978 134 1018 q 132 903 132 938 q 130 810 130 846 q 103 770 130 774 z "},"#":{"ha":600,"x_min":55,"x_max":551,"o":"m 243 709 q 239 680 241 696 q 231 615 235 650 q 222 541 227 580 q 213 467 217 503 q 205 403 208 432 q 201 381 203 391 l 258 380 q 297 380 280 380 q 327 380 315 380 q 353 381 340 380 q 359 381 356 381 q 366 439 362 404 q 379 541 374 502 q 389 616 385 580 q 397 681 393 652 q 401 710 399 697 l 358 711 l 342 711 q 243 709 290 711 m 196 770 q 224 1074 222 975 q 235 1101 224 1093 q 261 1110 245 1110 q 288 1097 276 1110 q 295 1057 299 1084 q 286 999 291 1031 q 274 929 280 967 q 250 768 261 848 l 299 768 q 339 768 321 768 q 371 768 357 768 q 399 769 385 768 q 408 769 404 769 q 418 856 413 817 q 426 938 422 901 q 435 1058 434 1024 q 446 1101 435 1093 q 472 1110 456 1110 q 496 1097 487 1110 q 501 1058 505 1084 q 492 1000 497 1031 q 483 930 488 968 q 472 846 477 892 q 462 770 467 812 l 505 773 q 538 762 527 774 q 551 736 550 750 q 542 711 552 722 q 518 702 532 701 q 494 704 503 703 q 474 706 484 705 q 454 708 464 707 q 454 708 454 708 q 450 676 452 694 q 442 612 446 647 q 433 538 437 576 q 424 464 428 499 q 415 399 419 429 q 413 381 414 389 q 415 381 414 381 q 433 382 424 382 q 469 384 449 382 q 500 374 488 386 q 512 348 511 362 q 503 323 513 334 q 478 314 493 313 q 452 316 463 315 q 430 317 441 317 q 406 319 416 318 q 392 184 397 231 q 382 93 387 132 q 376 31 378 54 q 363 -2 374 7 q 339 -12 353 -12 q 313 0 325 -12 q 306 36 302 13 q 316 98 310 60 q 328 178 321 136 q 349 322 342 271 l 335 322 q 298 322 319 322 q 195 319 257 322 q 189 262 192 293 q 178 175 183 218 q 163 27 172 111 q 150 -2 160 7 q 130 -12 140 -12 q 113 -9 119 -12 q 101 0 106 -6 q 94 37 90 14 q 103 97 97 60 q 116 177 109 135 q 129 263 123 220 q 136 316 133 291 l 101 315 q 67 324 79 313 q 55 349 56 335 q 64 375 54 363 q 89 386 75 387 q 111 384 102 385 q 127 382 119 383 q 145 381 136 382 q 149 406 146 392 q 157 469 153 434 q 167 541 162 503 q 176 613 172 578 q 189 705 184 671 q 138 703 156 703 q 93 738 96 703 q 103 763 92 751 q 127 774 113 775 q 151 772 141 773 q 171 771 160 772 q 191 770 181 770 q 196 770 194 770 z "},"$":{"ha":616,"x_min":64,"x_max":525,"o":"m 318 526 l 317 163 q 317 72 317 111 q 425 138 387 80 q 462 301 462 197 q 343 506 462 406 q 318 527 331 516 l 318 526 m 446 792 q 421 806 431 792 q 415 841 412 819 q 423 915 423 892 q 417 962 423 939 q 396 1004 411 985 q 329 1041 372 1034 q 328 1022 328 1031 q 324 914 326 972 q 321 791 322 855 q 318 602 319 700 q 339 585 329 594 q 407 528 374 557 q 467 465 441 498 q 525 315 525 391 q 509 186 525 239 q 462 94 493 132 q 318 17 408 28 q 319 -45 318 -32 q 317 -78 320 -70 q 308 -92 313 -87 q 282 -104 296 -104 q 258 -93 269 -104 q 248 -62 247 -83 q 250 17 248 -23 q 121 88 173 26 q 64 260 64 157 q 76 321 64 301 q 107 342 88 342 q 133 331 125 342 q 141 307 140 321 q 140 279 142 293 q 138 237 138 264 q 149 174 138 209 q 180 116 160 139 q 252 75 209 85 q 256 228 254 149 q 262 537 262 379 l 262 572 q 206 621 234 596 q 146 684 173 650 q 88 845 88 759 q 146 1031 88 962 q 262 1098 191 1085 q 260 1122 261 1112 q 261 1191 258 1183 q 271 1204 265 1199 q 300 1215 282 1215 q 336 1191 327 1215 q 337 1166 339 1183 q 332 1109 335 1148 q 332 1101 332 1105 q 437 1038 393 1092 q 489 882 489 971 q 446 792 489 792 m 263 649 l 264 867 q 263 1038 264 972 q 189 983 218 1026 q 153 848 153 931 q 263 649 153 745 z "},"%":{"ha":745,"x_min":72,"x_max":641,"o":"m 423 245 q 499 69 423 69 q 580 178 561 69 q 586 254 586 213 q 579 327 586 296 q 562 378 573 357 q 503 422 539 422 q 444 368 466 422 q 423 245 423 317 m 505 487 q 605 425 569 488 q 641 245 641 361 q 602 85 641 153 q 498 12 562 12 q 399 71 435 12 q 364 238 364 130 q 448 469 364 416 q 505 487 474 486 m 277 300 q 262 258 277 300 q 222 145 248 217 q 185 37 197 73 q 162 -6 173 1 q 137 -14 151 -14 q 113 1 123 -14 q 118 50 103 15 q 157 149 132 85 q 211 285 182 212 q 270 439 239 359 q 331 602 300 520 q 389 765 361 684 q 442 917 418 845 q 515 1155 495 1074 q 531 1180 519 1171 q 553 1188 543 1188 q 572 1183 564 1188 q 587 1170 581 1178 q 589 1131 600 1151 q 559 1066 578 1111 q 516 956 541 1021 q 462 812 492 892 q 401 646 433 732 q 338 471 370 559 q 277 300 306 382 m 207 740 q 288 850 268 740 q 294 925 294 884 q 287 998 294 966 q 270 1050 281 1029 q 210 1094 247 1094 q 151 1039 174 1094 q 131 906 131 989 q 152 781 131 823 q 207 740 173 740 m 156 1141 q 213 1158 181 1158 q 270 1143 244 1159 q 313 1096 295 1127 q 349 917 349 1032 q 311 757 349 824 q 206 684 269 684 q 107 742 142 684 q 72 909 72 801 q 156 1141 72 1086 z "},"&":{"ha":703,"x_min":100,"x_max":623,"o":"m 205 89 q 212 79 205 89 q 241 59 219 70 q 305 49 262 49 q 391 81 348 49 q 444 149 425 107 q 432 167 438 157 q 406 207 419 187 q 382 245 393 227 q 363 275 371 263 q 343 306 355 288 q 318 343 331 323 q 278 406 295 378 q 256 372 267 389 q 218 312 236 343 q 176 197 176 237 q 183 132 176 157 q 205 89 191 107 m 166 836 q 177 735 166 777 q 207 655 188 694 q 250 578 225 616 q 289 511 269 547 q 317 548 302 530 q 356 597 337 572 q 391 649 374 623 q 419 707 407 675 q 446 842 446 773 q 436 951 446 911 q 409 1016 427 990 q 310 1065 374 1065 q 213 1012 253 1065 q 166 836 166 947 m 549 397 l 550 376 q 511 155 550 246 q 605 50 556 92 q 623 19 623 35 q 614 -7 623 3 q 593 -17 605 -17 q 553 9 569 -17 q 505 77 526 50 q 484 106 492 96 q 406 23 453 54 q 299 -12 352 -12 q 213 1 245 -12 q 157 40 180 15 q 111 180 111 92 q 213 406 111 270 q 249 455 233 431 q 199 537 223 498 q 149 627 170 583 q 100 809 100 724 q 118 954 100 894 q 165 1053 136 1013 q 313 1131 224 1131 q 491 980 450 1131 q 505 865 505 927 q 496 761 505 802 q 471 683 487 719 q 435 617 456 648 q 392 558 414 586 q 348 503 370 530 q 317 463 332 483 q 349 410 336 431 q 375 365 364 384 q 394 332 386 347 q 415 298 403 318 q 441 258 428 279 q 475 207 460 229 q 489 303 489 251 q 486 390 489 366 q 492 426 482 414 q 515 438 503 438 q 538 428 528 438 q 549 397 549 418 z "},"'":{"ha":205,"x_min":67,"x_max":140,"o":"m 131 913 q 130 896 131 913 q 130 854 130 879 q 130 814 130 829 q 121 791 130 800 q 102 782 113 783 q 83 790 91 781 q 75 840 75 800 q 74 932 75 879 q 72 1031 73 985 q 67 1173 70 1135 q 103 1240 62 1240 q 132 1225 121 1240 q 140 1187 142 1211 q 136 1132 138 1163 q 134 1063 135 1101 q 132 987 133 1026 q 131 913 131 947 z "},"(":{"ha":418,"x_min":73,"x_max":330,"o":"m 295 1266 q 304 1266 295 1266 q 322 1256 313 1265 q 330 1232 330 1246 q 310 1196 330 1217 q 257 1124 290 1175 q 197 994 224 1074 q 132 539 132 812 q 188 127 132 304 q 298 -79 235 -22 q 322 -117 322 -99 q 313 -145 323 -136 q 292 -155 304 -154 q 254 -138 269 -155 q 220 -92 238 -121 q 182 -18 201 -62 q 143 83 162 26 q 108 209 123 140 q 73 499 73 362 q 83 727 73 635 q 109 892 93 818 q 144 1025 125 967 q 184 1126 164 1083 q 253 1240 216 1196 q 295 1266 277 1267 z "},")":{"ha":406,"x_min":88,"x_max":333,"o":"m 106 -150 q 102 -145 106 -150 q 97 -127 97 -140 q 112 -97 97 -113 q 146 -51 126 -80 q 184 17 165 -22 q 218 109 202 56 q 245 231 234 161 q 272 543 272 382 q 257 804 272 704 q 220 981 243 904 q 113 1188 174 1135 q 89 1226 90 1208 q 97 1255 87 1245 q 124 1265 107 1264 q 160 1245 140 1266 q 209 1168 179 1224 q 266 1028 238 1113 q 333 585 333 823 q 271 85 333 298 q 174 -132 228 -67 q 133 -160 151 -160 q 106 -150 115 -160 z "},"*":{"ha":555,"x_min":74,"x_max":529,"o":"m 245 926 q 142 953 210 943 q 86 975 98 960 q 74 1000 74 990 q 79 1018 74 1010 q 91 1033 83 1027 q 127 1039 109 1048 q 164 1021 145 1031 q 203 1002 184 1011 q 263 975 239 984 q 254 1100 259 1061 q 251 1154 248 1143 q 259 1172 254 1165 q 283 1186 270 1186 q 304 1182 296 1186 q 319 1172 313 1179 q 329 1118 333 1155 q 320 1038 326 1082 q 312 972 315 1001 q 397 1006 354 985 q 457 1038 446 1031 q 491 1049 475 1049 q 518 1037 508 1049 q 529 1011 529 1025 q 489 968 529 978 q 332 926 399 946 q 433 812 366 883 q 453 771 453 791 q 443 742 453 752 q 422 732 433 732 q 379 756 394 732 q 350 803 363 781 q 323 845 336 825 q 290 897 303 876 q 265 849 277 874 q 204 741 216 749 q 178 732 191 732 q 153 745 165 732 q 141 771 141 758 q 165 814 141 800 q 245 926 206 848 z "},"+":{"ha":604,"x_min":73,"x_max":531,"o":"m 271 279 q 117 271 195 277 q 84 280 94 269 q 73 305 73 291 q 84 331 73 319 q 113 342 95 343 q 151 339 132 340 q 191 338 170 338 q 271 336 243 336 q 266 490 271 375 q 276 523 264 512 q 302 534 288 534 q 327 524 316 534 q 336 494 338 513 q 333 453 334 475 q 331 408 332 431 q 328 336 329 364 q 487 341 408 336 q 520 330 509 342 q 531 304 531 318 q 520 279 531 290 q 480 271 510 269 q 328 279 405 278 q 336 121 329 213 q 327 87 338 98 q 301 77 315 77 q 275 88 287 77 q 265 116 264 98 q 267 155 266 133 q 270 203 269 178 q 271 279 271 237 z "},",":{"ha":313,"x_min":89,"x_max":218,"o":"m 218 33 q 166 -110 218 -46 q 106 -136 126 -157 q 101 -123 101 -131 q 115 -92 101 -110 q 153 1 151 -47 q 120 5 136 -5 q 89 50 89 23 q 106 93 89 77 q 145 109 124 109 q 177 103 165 109 q 198 87 189 98 q 218 33 218 64 z "},"-":{"ha":422,"x_min":81,"x_max":341,"o":"m 81 296 q 81 304 81 296 q 92 324 81 312 q 130 332 102 336 q 207 328 158 328 q 287 332 256 328 q 330 323 319 335 q 341 298 341 311 q 331 273 341 284 q 299 262 320 261 q 254 266 278 264 q 207 267 230 267 q 142 264 172 267 q 105 263 113 261 q 92 271 97 266 q 81 296 81 281 z "},".":{"ha":313,"x_min":94,"x_max":216,"o":"m 196 80 q 200 77 196 80 q 210 62 205 73 q 216 36 216 52 q 210 9 216 20 q 194 -9 203 -2 q 151 -21 176 -21 q 99 12 115 -21 q 94 37 94 22 q 134 91 94 77 q 155 94 144 94 q 176 91 165 94 q 196 80 187 87 z "},"/":{"ha":490,"x_min":54,"x_max":454,"o":"m 197 195 q 186 153 197 195 q 156 38 176 111 q 126 -70 137 -35 q 103 -114 115 -106 q 82 -121 92 -121 q 63 -113 71 -121 q 54 -92 54 -104 q 65 -51 54 -80 q 96 46 75 -22 q 140 197 117 115 q 187 370 163 279 q 235 555 211 462 q 280 740 258 649 q 321 911 302 831 q 382 1170 368 1104 q 399 1201 387 1191 q 423 1211 411 1211 q 445 1202 435 1211 q 454 1183 454 1194 q 444 1136 454 1163 q 415 1045 433 1109 q 375 904 396 982 q 332 737 355 826 q 287 556 310 648 q 242 371 264 463 q 197 195 219 279 z "},":":{"ha":313,"x_min":94,"x_max":216,"o":"m 196 477 q 200 474 196 477 q 210 459 205 470 q 216 433 216 448 q 210 406 216 417 q 194 388 203 395 q 151 376 176 376 q 99 408 115 376 q 94 433 94 419 q 134 488 94 474 q 155 491 144 491 q 176 488 165 491 q 196 477 187 484 m 196 85 q 200 82 196 85 q 210 67 205 78 q 216 41 216 56 q 210 14 216 25 q 194 -4 203 3 q 151 -16 176 -16 q 99 16 115 -16 q 94 41 94 27 q 134 96 94 82 q 155 99 144 99 q 176 96 165 99 q 196 85 187 92 z "},";":{"ha":313,"x_min":84,"x_max":216,"o":"m 196 473 q 200 469 196 473 q 210 455 205 466 q 216 429 216 444 q 210 402 216 413 q 194 384 203 391 q 151 372 176 372 q 99 404 115 372 q 94 429 94 415 q 134 484 94 470 q 155 487 144 487 q 176 484 165 487 q 196 473 187 480 m 213 33 q 161 -110 213 -46 q 101 -136 121 -157 q 96 -123 96 -131 q 111 -92 96 -110 q 148 1 146 -47 q 115 5 132 -5 q 84 50 84 23 q 102 93 84 77 q 140 109 119 109 q 172 103 161 109 q 193 87 184 98 q 213 33 213 64 z "},"<":{"ha":645,"x_min":35,"x_max":548,"o":"m 547 73 q 547 63 547 73 q 536 41 547 53 q 510 30 525 30 q 462 51 496 30 q 370 104 428 71 q 259 168 313 138 q 99 253 143 232 q 45 280 54 273 q 35 302 35 288 q 44 323 35 316 q 88 345 53 330 q 182 390 123 360 q 295 450 240 419 q 477 564 406 512 q 507 575 492 575 q 535 566 522 575 q 548 540 548 556 q 521 498 548 512 q 464 469 494 484 q 398 437 434 454 q 324 400 363 419 q 245 359 285 380 q 136 300 185 328 q 519 104 403 151 q 547 73 547 93 z "},"=":{"ha":641,"x_min":73,"x_max":568,"o":"m 117 400 q 311 394 186 394 q 524 399 437 394 q 556 390 545 401 q 568 366 568 378 q 557 343 568 353 q 532 335 547 334 q 499 338 517 337 q 458 340 482 340 q 349 342 386 342 q 279 342 313 342 q 216 341 246 342 q 127 338 161 340 q 73 368 73 334 q 84 391 73 380 q 117 400 95 401 m 117 254 q 313 248 178 248 q 524 253 448 248 q 556 243 545 254 q 568 220 568 233 q 557 198 568 208 q 518 191 547 189 q 353 196 442 196 q 117 190 218 196 q 84 199 94 189 q 73 222 73 209 q 84 245 73 235 q 117 254 95 255 z "},">":{"ha":645,"x_min":97,"x_max":610,"o":"m 138 37 q 97 73 97 37 q 123 110 97 99 q 185 137 150 121 q 261 173 220 153 q 346 214 302 192 q 430 256 390 235 q 517 307 484 285 q 125 507 250 457 q 98 539 98 519 q 108 570 98 559 q 133 582 119 582 q 162 574 148 582 q 573 347 401 427 q 600 332 591 339 q 610 311 610 325 q 600 289 610 296 q 572 273 591 282 q 525 248 554 264 q 460 214 495 233 q 388 174 426 195 q 311 131 349 153 q 214 75 269 107 q 152 40 159 43 q 138 37 145 37 z "},"?":{"ha":596,"x_min":93,"x_max":503,"o":"m 326 85 q 330 82 326 85 q 340 67 334 78 q 345 41 345 56 q 339 14 345 25 q 323 -4 333 3 q 280 -16 305 -16 q 229 16 244 -16 q 224 41 224 27 q 263 95 224 82 q 284 99 274 99 q 306 96 295 99 q 326 85 317 92 m 411 453 q 453 394 453 453 q 441 295 453 335 q 408 229 429 256 q 294 174 365 174 q 190 220 233 174 q 148 339 148 267 q 170 466 148 411 q 225 568 192 521 q 297 657 258 614 q 368 747 335 701 q 446 972 446 855 q 407 1103 446 1058 q 302 1149 368 1149 q 203 1100 244 1149 q 163 989 163 1052 q 173 944 163 963 q 191 884 191 907 q 180 856 191 867 q 155 846 169 846 q 93 979 93 846 q 153 1139 93 1071 q 306 1211 216 1211 q 448 1151 395 1211 q 503 977 503 1087 q 410 705 503 829 q 356 636 384 669 q 302 571 329 604 q 255 505 276 539 q 210 347 210 428 q 255 241 210 269 q 293 233 271 233 q 380 349 380 233 l 373 406 q 384 442 373 431 q 411 453 395 453 z "},"@":{"ha":847,"x_min":60,"x_max":780,"o":"m 579 68 q 503 182 503 68 q 505 213 503 192 q 509 251 507 235 q 510 264 509 258 q 460 147 484 184 q 402 82 429 101 q 347 63 375 63 q 299 74 319 63 q 261 106 278 85 q 224 217 224 151 q 235 325 224 282 q 264 401 246 368 q 307 459 283 435 q 357 498 331 483 q 459 529 409 529 q 543 495 505 529 q 545 492 544 494 q 553 499 549 496 q 578 507 568 507 q 598 498 589 507 q 607 475 607 489 q 604 451 607 461 q 597 427 600 440 q 587 388 594 414 q 574 328 581 361 q 555 192 555 243 q 595 121 555 121 q 631 138 610 121 q 671 189 652 154 q 717 407 717 271 q 467 688 717 688 q 233 572 334 688 q 121 229 121 444 q 201 -14 121 74 q 425 -102 281 -102 q 542 -85 505 -102 q 627 -24 592 -62 q 640 -4 633 -15 q 654 15 647 7 q 689 31 671 35 q 690 -54 744 20 q 550 -141 649 -111 q 425 -157 498 -157 q 170 -66 268 -157 q 60 227 60 36 q 187 609 60 461 q 475 748 307 748 q 682 674 600 748 q 780 418 780 587 q 723 171 780 273 q 579 68 665 68 m 522 439 q 454 466 503 466 q 334 400 382 466 q 285 237 285 335 q 302 152 285 179 q 348 124 320 124 q 402 154 376 124 q 452 232 429 184 q 522 439 492 317 z "},"A":{"ha":633,"x_min":35,"x_max":589,"o":"m 312 1099 q 342 1086 328 1099 q 363 1029 355 1072 q 387 906 371 986 q 422 735 403 826 q 464 548 442 644 q 507 360 486 451 q 589 49 559 147 q 585 9 595 24 q 562 -6 574 -6 q 538 1 549 -6 q 519 45 528 9 q 493 164 511 82 q 454 340 475 246 q 452 348 453 345 q 322 350 406 350 q 171 347 223 350 q 170 339 170 343 q 109 31 128 140 q 73 -4 102 -4 q 35 26 42 -4 q 39 54 33 35 q 57 119 45 73 q 83 225 69 165 q 113 357 97 286 q 144 503 128 428 q 177 655 161 578 q 208 802 193 731 q 236 936 223 873 q 258 1035 250 998 q 312 1099 271 1099 m 184 410 q 323 408 235 408 q 439 410 395 408 q 410 536 425 471 q 368 732 388 637 q 309 1005 334 888 q 264 793 294 927 q 207 520 227 614 q 184 410 195 464 z "},"B":{"ha":614,"x_min":98,"x_max":555,"o":"m 311 574 l 338 580 q 498 530 440 578 q 555 392 555 481 q 490 190 555 283 q 244 15 403 64 q 119 3 146 -15 q 103 42 103 14 l 110 586 l 110 660 q 107 819 110 757 q 102 922 104 880 q 98 997 100 963 q 101 1041 96 1031 q 113 1055 105 1050 q 208 1081 130 1066 q 329 1096 286 1096 q 551 909 551 1096 q 391 632 551 757 q 311 574 353 603 m 171 67 q 278 92 227 69 q 371 146 336 119 q 434 208 406 173 q 495 385 495 286 q 440 492 495 454 q 315 525 391 525 q 207 510 250 525 q 166 494 181 501 q 167 461 166 479 q 167 356 167 413 q 168 242 168 299 q 171 67 170 119 m 166 557 q 363 669 259 576 q 471 815 438 734 q 487 899 487 857 q 474 968 487 941 q 438 1012 460 995 q 321 1042 395 1042 q 170 1012 236 1042 q 169 989 170 1003 q 168 915 168 964 q 166 696 166 816 l 166 557 z "},"C":{"ha":630,"x_min":65,"x_max":557,"o":"m 485 280 q 496 315 485 302 q 522 328 507 328 q 548 317 536 328 q 557 285 559 307 q 484 64 551 148 q 322 -16 419 -16 q 85 258 139 -16 q 65 497 65 359 q 82 742 65 634 q 134 928 99 849 q 344 1098 208 1098 q 500 1015 450 1098 q 554 724 554 926 q 544 691 554 702 q 519 680 534 680 q 488 719 488 680 q 408 1018 488 970 q 342 1035 380 1035 q 274 1014 304 1035 q 220 955 243 992 q 180 866 197 917 q 152 755 163 814 q 130 520 130 636 q 138 333 130 404 q 159 213 145 263 q 191 132 172 163 q 232 82 210 100 q 329 50 270 50 q 437 104 395 50 q 485 280 486 165 z "},"D":{"ha":663,"x_min":96,"x_max":606,"o":"m 585 842 q 606 660 606 760 q 589 474 606 559 q 542 315 572 388 q 469 183 511 242 q 375 83 427 125 q 144 -2 269 -2 q 118 11 124 -2 q 113 41 113 23 l 113 99 q 112 201 113 141 q 112 335 112 261 q 110 487 111 408 q 108 647 109 566 q 106 800 107 727 q 96 1040 102 952 q 137 1091 93 1086 q 244 1101 202 1101 q 585 842 517 1101 m 180 62 q 333 127 257 64 q 522 477 474 245 q 538 659 538 557 q 513 835 538 760 q 449 955 488 910 q 258 1039 375 1039 q 176 1028 208 1039 q 170 832 170 958 q 171 601 170 681 q 173 444 172 521 q 175 297 174 368 q 177 172 176 227 q 180 62 179 102 z "},"E":{"ha":515,"x_min":103,"x_max":502,"o":"m 175 372 l 176 132 q 176 76 176 99 q 177 58 177 66 q 404 64 348 58 q 472 67 463 70 q 488 58 481 64 q 502 32 502 46 q 489 6 502 17 q 453 -3 476 -4 q 252 0 342 6 q 152 -7 163 -5 q 133 -7 141 -9 q 117 0 124 -5 q 103 34 102 12 q 113 468 113 230 q 114 767 113 705 q 114 879 114 828 q 109 1033 113 988 q 111 1087 106 1078 q 123 1100 116 1096 q 149 1102 134 1105 q 224 1097 178 1097 q 348 1101 315 1097 q 390 1102 380 1105 q 406 1093 399 1099 q 419 1067 419 1082 q 407 1041 419 1051 q 374 1032 395 1031 q 329 1035 353 1033 q 278 1038 305 1036 q 179 1036 221 1040 q 178 919 179 977 q 177 779 178 850 q 175 496 175 587 q 300 500 260 496 q 354 496 343 505 q 366 473 366 488 q 296 437 366 435 q 270 437 281 437 l 215 438 l 175 438 l 175 372 z "},"F":{"ha":418,"x_min":103,"x_max":438,"o":"m 120 303 l 119 628 q 103 1061 119 856 q 123 1100 101 1091 q 151 1103 135 1105 q 220 1098 180 1098 q 280 1098 261 1098 q 317 1099 298 1099 q 382 1103 365 1101 q 409 1103 399 1105 q 425 1095 418 1100 q 438 1067 438 1082 q 426 1042 438 1052 q 392 1033 414 1031 q 345 1035 371 1034 q 290 1038 319 1037 q 184 1037 227 1040 l 184 920 q 183 779 184 850 q 182 496 182 587 q 328 502 275 496 q 385 473 385 508 q 307 438 385 439 q 275 437 287 437 l 221 438 l 182 438 l 189 41 q 179 12 189 24 q 159 0 170 0 q 142 2 149 0 q 129 8 135 3 q 116 41 115 20 q 120 303 120 119 z "},"G":{"ha":635,"x_min":62,"x_max":562,"o":"m 554 789 q 524 745 555 745 q 499 754 510 745 q 488 784 488 764 q 397 1032 488 997 q 323 1040 369 1043 q 238 998 277 1036 q 175 895 199 960 q 129 560 129 774 q 278 60 129 106 q 330 52 303 52 q 491 300 462 52 q 499 414 500 380 q 399 413 439 418 q 338 408 355 408 q 312 419 322 408 q 302 445 302 431 q 313 469 302 458 q 344 477 323 480 q 387 474 366 474 l 426 474 q 479 477 461 474 q 527 481 511 481 q 562 441 562 481 q 499 106 562 228 q 324 -16 435 -16 q 127 125 191 -16 q 62 573 62 268 q 337 1105 62 1090 q 554 789 554 1117 z "},"H":{"ha":671,"x_min":103,"x_max":568,"o":"m 498 754 l 498 861 q 497 917 498 887 q 497 980 497 946 q 496 1047 496 1015 q 507 1089 495 1079 q 533 1099 519 1099 q 558 1089 547 1099 q 568 1057 569 1079 q 557 467 557 681 q 562 43 557 123 q 552 10 564 21 q 528 -1 541 -1 q 504 10 515 -1 q 494 42 494 20 q 498 425 497 265 q 334 431 438 431 q 173 425 225 431 q 178 46 174 220 q 166 12 178 24 q 140 1 154 1 q 115 11 126 1 q 106 59 104 22 q 109 166 107 96 q 111 315 110 236 q 113 585 113 447 q 112 780 113 724 q 111 884 112 837 q 103 1053 109 957 q 114 1085 102 1075 q 141 1096 126 1096 q 168 1085 156 1096 q 179 1043 180 1075 q 176 967 178 1012 q 174 868 175 922 q 174 749 174 814 q 173 489 173 687 q 335 482 218 482 q 498 489 448 482 q 498 538 498 515 l 498 754 z "},"I":{"ha":334,"x_min":128,"x_max":205,"o":"m 199 956 q 199 941 199 956 q 198 890 198 927 q 197 593 197 853 q 205 45 197 332 q 193 12 206 23 q 165 0 180 0 q 139 10 151 0 q 130 56 128 20 q 132 153 131 91 q 135 286 134 216 q 138 547 138 426 q 137 735 138 668 q 136 860 137 803 q 128 1061 134 986 q 136 1094 126 1083 q 161 1104 146 1104 q 191 1094 177 1104 q 203 1058 204 1083 q 201 1008 202 1033 q 199 956 200 984 z "},"J":{"ha":555,"x_min":39,"x_max":434,"o":"m 434 1057 q 431 662 431 737 l 431 382 q 385 83 431 177 q 227 -15 338 -15 q 92 62 142 -15 q 39 292 39 144 q 52 380 39 367 q 82 393 65 393 q 109 380 99 393 q 117 345 119 367 q 113 255 113 309 q 122 159 113 201 q 148 92 132 118 q 232 44 179 44 q 334 115 303 44 q 366 369 365 187 q 368 577 368 450 q 368 759 368 704 q 368 863 368 813 q 359 1058 366 966 q 368 1089 357 1080 q 394 1099 380 1099 q 421 1089 408 1099 q 434 1057 434 1079 z "},"K":{"ha":644,"x_min":103,"x_max":604,"o":"m 550 1092 q 553 1088 550 1092 q 557 1073 556 1084 q 543 1024 559 1062 q 472 888 526 985 q 356 677 422 798 q 448 435 397 559 q 525 243 502 300 q 593 76 580 107 q 604 35 606 45 q 597 16 603 24 q 570 0 586 0 q 531 28 542 0 q 319 613 387 444 q 180 370 239 462 q 183 45 180 169 q 171 12 184 23 q 144 0 159 0 q 117 10 129 0 q 106 58 105 20 q 110 166 108 96 q 114 317 112 237 q 118 603 118 477 q 117 785 118 728 q 115 888 117 842 q 103 1059 112 968 q 114 1092 101 1081 q 144 1102 127 1102 q 175 1092 161 1102 q 188 1059 189 1081 q 180 467 180 885 q 449 994 346 749 q 478 1068 469 1042 q 497 1101 488 1095 q 517 1108 507 1108 q 536 1104 528 1108 q 550 1092 545 1099 z "},"L":{"ha":518,"x_min":103,"x_max":486,"o":"m 141 1102 q 182 1043 182 1102 q 181 874 182 963 q 180 714 180 786 q 178 547 179 642 q 176 59 177 348 q 435 68 311 56 q 473 58 459 71 q 486 31 486 45 q 474 6 486 17 q 438 -3 462 -4 q 272 0 361 3 q 164 -6 182 -3 q 137 -7 146 -9 q 122 0 129 -5 q 109 34 107 12 q 117 449 117 193 q 116 765 117 705 q 115 877 116 826 q 103 1059 112 978 q 113 1091 101 1080 q 141 1102 125 1102 z "},"M":{"ha":895,"x_min":103,"x_max":791,"o":"m 780 850 l 781 606 q 791 42 781 349 q 780 10 792 20 q 753 0 768 0 q 726 12 739 0 q 714 45 714 23 q 724 553 724 350 l 724 905 q 724 979 724 944 q 685 829 709 921 q 609 548 631 626 q 566 395 587 471 q 482 123 521 240 q 466 102 478 109 q 444 96 454 96 q 415 123 422 96 q 399 175 412 134 q 368 278 387 217 q 327 416 349 340 q 280 572 304 492 q 233 731 256 652 q 191 876 210 810 q 164 971 175 931 l 165 803 q 172 295 165 496 q 179 62 178 94 q 176 22 180 29 q 166 9 172 14 q 114 11 140 -13 q 103 52 102 22 q 106 124 105 81 q 109 217 108 168 q 111 431 111 332 l 103 1048 q 117 1091 103 1078 q 151 1103 132 1103 q 200 1060 186 1103 q 207 1036 201 1056 q 222 984 213 1016 q 244 909 232 951 q 271 818 257 867 q 301 715 286 769 q 451 205 355 529 q 636 854 501 348 q 689 1059 663 954 q 745 1105 701 1105 q 773 1088 763 1105 q 783 1038 784 1071 q 780 850 780 993 z "},"N":{"ha":727,"x_min":103,"x_max":623,"o":"m 623 1063 q 618 585 618 725 q 619 379 618 445 q 620 255 619 314 q 623 84 621 130 q 621 30 625 39 q 610 15 616 21 q 551 10 582 -10 q 533 35 538 18 q 389 415 473 210 q 272 705 305 620 q 167 987 212 859 l 176 41 q 165 9 176 20 q 140 -1 154 -1 q 114 11 126 -1 q 103 44 102 22 q 110 469 110 231 l 110 871 q 109 1053 110 977 q 124 1091 109 1078 q 156 1104 139 1104 q 206 1068 194 1104 q 241 971 218 1032 q 291 837 263 911 q 351 679 319 762 q 414 514 382 596 q 476 354 446 431 q 530 214 506 277 q 572 106 555 151 q 573 102 572 104 q 564 392 568 235 q 558 677 561 583 q 554 870 556 772 q 548 1063 551 967 q 560 1095 548 1084 q 586 1105 572 1105 q 611 1095 600 1105 q 623 1063 623 1084 z "},"O":{"ha":696,"x_min":60,"x_max":635,"o":"m 556 135 q 336 -16 477 -16 q 127 131 194 -16 q 60 564 60 277 q 137 943 60 789 q 229 1062 175 1017 q 354 1106 283 1106 q 478 1069 425 1106 q 566 962 531 1032 q 635 564 633 825 q 556 135 636 288 m 483 971 q 470 989 483 971 q 427 1026 458 1006 q 356 1046 395 1046 q 286 1026 317 1046 q 230 971 255 1006 q 185 888 204 936 q 152 785 165 840 q 125 561 125 673 q 134 372 125 448 q 157 241 142 296 q 193 149 172 186 q 237 90 214 112 q 342 50 281 50 q 562 381 523 50 q 570 536 570 457 q 566 673 570 614 q 550 787 561 732 q 523 889 540 842 q 483 971 507 937 z "},"P":{"ha":587,"x_min":103,"x_max":571,"o":"m 183 299 q 191 47 189 136 q 180 13 192 24 q 154 2 168 2 q 130 13 140 2 q 119 46 119 23 l 119 199 l 118 410 l 118 598 q 115 833 118 783 q 111 909 112 883 q 107 961 109 935 q 103 1014 105 988 q 107 1049 102 1040 q 119 1063 112 1059 q 135 1069 127 1067 q 170 1077 143 1070 q 317 1097 253 1097 q 427 1081 382 1097 q 503 1031 471 1065 q 571 832 571 962 q 448 509 571 656 q 183 299 348 390 m 181 363 q 509 826 509 541 q 400 1027 509 983 q 204 1021 319 1061 q 178 1012 191 1017 q 174 768 174 893 l 174 563 q 174 538 174 550 q 175 512 175 526 q 177 476 176 498 q 179 420 178 454 q 181 363 180 397 z "},"Q":{"ha":696,"x_min":57,"x_max":631,"o":"m 534 -109 q 543 -128 534 -109 q 552 -156 552 -148 q 548 -171 552 -165 q 538 -182 544 -177 q 514 -191 525 -191 q 478 -156 490 -191 q 459 -96 467 -121 q 444 -50 450 -70 q 430 -11 437 -30 q 425 0 428 -5 q 336 -16 385 -16 q 213 18 265 -16 q 127 122 161 51 q 57 572 57 266 q 134 963 57 819 q 349 1106 210 1106 q 631 572 628 1106 q 477 28 633 145 q 479 23 477 26 q 498 -24 488 -1 q 534 -109 516 -70 m 336 1045 q 248 1006 289 1045 q 179 901 206 967 q 125 557 125 766 q 282 53 125 100 q 335 45 307 45 q 391 50 362 45 q 404 54 397 52 q 367 144 391 87 q 337 227 336 216 q 342 244 338 237 q 368 260 352 260 q 410 231 399 260 q 438 144 426 181 q 457 84 448 111 q 493 127 476 100 q 532 219 515 161 q 567 566 567 340 q 517 899 567 768 q 336 1045 460 1045 z "},"R":{"ha":621,"x_min":103,"x_max":568,"o":"m 180 315 q 189 47 185 161 q 177 13 189 24 q 151 2 165 2 q 126 13 137 2 q 116 44 116 23 l 116 554 q 103 1029 116 819 q 119 1070 101 1059 q 135 1076 127 1075 q 171 1085 143 1077 q 310 1105 241 1105 q 424 1089 378 1105 q 500 1043 469 1074 q 568 847 568 977 q 437 525 568 680 q 392 475 416 500 q 548 60 458 272 q 532 7 564 24 q 513 3 524 3 q 478 31 488 3 q 439 152 456 94 q 404 264 421 210 q 348 434 374 363 q 180 315 273 368 m 178 379 q 378 549 285 441 q 504 841 504 694 q 397 1037 504 993 q 249 1044 339 1061 q 179 1022 206 1036 q 170 680 170 818 q 171 521 170 532 q 171 501 171 510 q 172 482 172 492 q 174 454 173 472 q 176 406 175 435 q 178 379 177 394 z "},"S":{"ha":588,"x_min":53,"x_max":513,"o":"m 92 311 q 122 293 116 311 q 128 233 128 275 q 140 154 128 191 q 172 92 151 117 q 286 42 213 42 q 403 96 359 42 q 446 251 446 150 q 332 491 446 386 q 265 550 299 521 q 198 610 231 579 q 140 680 165 642 q 83 869 83 763 q 148 1046 83 979 q 308 1112 212 1112 q 444 1057 391 1112 q 498 880 503 993 q 497 869 497 875 q 496 846 498 863 q 482 815 494 829 q 455 802 469 802 q 430 815 440 802 q 423 850 420 829 q 432 925 432 900 q 423 974 432 951 q 397 1015 414 997 q 302 1052 360 1052 q 197 1008 237 1052 q 152 888 152 959 q 168 773 152 817 q 209 694 183 729 q 267 629 234 659 q 333 572 299 600 q 399 513 366 543 q 457 446 431 483 q 513 256 513 363 q 448 54 513 130 q 276 -20 384 -20 q 113 57 176 -20 q 53 220 53 130 q 92 311 53 311 z "},"T":{"ha":507,"x_min":-1,"x_max":507,"o":"m 218 1097 q 462 1102 237 1097 q 505 1078 493 1102 q 507 1063 507 1072 q 497 1045 507 1054 q 459 1036 487 1036 q 405 1038 431 1037 q 357 1040 379 1040 q 288 1041 317 1042 q 283 703 283 885 q 283 435 283 507 q 285 297 283 363 q 289 47 287 129 q 278 13 290 24 q 254 2 267 2 q 228 13 241 2 q 216 44 216 23 l 215 133 l 222 781 q 217 1041 222 962 q 132 1038 181 1042 q 47 1033 73 1034 q 10 1041 21 1031 q -1 1064 -1 1051 q 10 1090 -1 1078 q 45 1102 21 1103 q 87 1101 69 1101 q 118 1099 104 1100 q 141 1098 131 1099 q 162 1097 151 1097 q 186 1097 172 1097 l 218 1097 z "},"U":{"ha":708,"x_min":103,"x_max":605,"o":"m 117 351 l 119 638 q 103 1052 119 882 q 114 1084 101 1074 q 143 1095 127 1095 q 174 1084 160 1095 q 186 1038 187 1074 q 183 948 184 1002 q 180 832 181 893 q 177 611 177 710 q 177 476 177 512 q 178 406 178 439 q 199 177 182 225 q 238 103 216 129 q 353 52 283 52 q 473 105 426 52 q 530 260 522 161 q 538 456 538 382 q 537 584 538 530 q 536 705 537 638 q 525 1056 530 901 q 536 1088 524 1078 q 564 1098 549 1098 q 593 1088 580 1098 q 605 1056 606 1078 q 602 857 602 955 q 601 661 602 758 q 592 323 600 426 q 569 168 585 220 q 526 75 554 116 q 354 -16 462 -16 q 132 182 176 -16 q 117 319 117 243 l 117 351 z "},"V":{"ha":627,"x_min":30,"x_max":594,"o":"m 558 1103 q 567 1103 558 1103 q 589 1089 576 1103 q 594 1048 602 1075 q 575 977 586 1022 q 552 873 565 931 q 524 747 539 815 q 493 606 509 679 q 461 456 477 532 q 427 306 444 380 q 361 34 389 140 q 318 -2 353 -2 q 270 34 281 -2 q 230 212 260 64 q 182 436 199 359 q 148 593 165 512 q 111 754 130 674 q 51 988 71 919 q 30 1071 30 1057 q 40 1095 30 1086 q 65 1105 50 1105 q 95 1095 80 1106 q 117 1049 111 1084 q 135 956 123 1014 q 159 832 146 899 q 188 692 173 765 q 219 546 203 619 q 250 403 235 473 q 281 271 266 333 q 321 109 304 172 q 355 233 338 154 q 391 397 380 348 q 420 551 403 455 q 451 712 438 647 q 475 835 464 778 q 497 944 487 892 q 514 1032 508 995 q 529 1086 519 1069 q 558 1103 539 1103 z "},"W":{"ha":1106,"x_min":34,"x_max":1066,"o":"m 133 565 q 103 711 133 565 q 57 929 73 857 q 34 1040 42 1002 q 39 1091 26 1078 q 70 1104 52 1104 q 112 1047 104 1104 q 133 922 121 990 q 159 779 145 854 q 188 628 173 705 q 217 477 203 551 q 246 337 232 404 q 273 217 260 271 q 297 113 288 149 q 349 317 316 191 q 413 568 390 476 q 457 746 437 661 q 515 1033 500 930 q 559 1082 522 1084 q 594 1046 587 1081 q 663 715 628 892 q 713 465 699 537 q 741 327 728 392 q 765 210 754 262 q 789 106 779 143 q 815 214 801 155 q 855 389 834 297 q 898 578 876 481 q 939 764 920 674 q 994 1058 980 959 q 1036 1107 1002 1109 q 1066 1070 1066 1105 q 1057 1019 1066 1057 q 1032 906 1048 982 q 998 751 1015 831 q 962 590 980 671 q 926 433 943 509 q 893 290 909 357 q 865 169 878 222 q 829 35 836 52 q 789 -1 814 -1 q 749 35 759 -1 q 658 408 696 221 q 605 674 621 595 q 557 924 589 751 q 475 568 509 705 q 420 349 437 421 q 346 35 376 168 q 329 8 342 18 q 301 -1 315 -1 q 257 35 267 -1 q 133 565 194 273 z "},"X":{"ha":605,"x_min":87,"x_max":543,"o":"m 87 1084 q 121 1128 87 1128 q 168 1083 155 1128 q 199 986 181 1038 q 239 876 218 933 q 317 656 286 747 q 378 827 341 728 q 465 1069 456 1034 q 511 1124 478 1124 q 533 1115 524 1124 q 543 1089 543 1105 q 531 1044 543 1073 q 497 966 518 1015 q 452 859 475 917 q 345 570 397 726 q 526 64 472 189 q 528 24 536 39 q 475 7 505 -14 q 460 32 467 13 q 443 86 454 50 q 418 163 431 121 q 390 252 405 205 q 360 345 375 298 q 312 497 330 440 q 277 385 294 440 q 236 256 256 318 q 168 55 183 95 q 141 5 153 16 q 119 -5 130 -5 q 99 6 108 -5 q 90 31 90 18 q 95 56 90 43 q 282 583 160 210 q 95 1053 214 790 q 87 1084 87 1069 z "},"Y":{"ha":655,"x_min":30,"x_max":625,"o":"m 368 240 l 373 43 q 344 1 373 12 q 326 -1 336 -1 q 304 10 316 -1 q 295 45 293 21 q 300 93 297 69 q 304 141 302 117 q 309 230 309 198 q 309 285 309 262 q 307 332 308 308 q 304 376 306 352 q 255 498 282 433 q 183 673 220 582 q 30 1072 30 1042 q 40 1099 30 1089 q 66 1110 50 1109 q 91 1100 82 1111 q 117 1029 100 1088 q 168 875 134 969 q 237 696 202 781 q 339 455 282 583 q 361 514 349 483 q 401 621 380 565 q 443 735 422 677 q 484 850 465 794 q 545 1034 532 988 q 566 1097 557 1080 q 593 1114 575 1114 q 625 1082 625 1114 q 577 932 625 1058 q 514 766 528 806 q 488 691 500 726 q 460 617 475 656 q 429 535 445 577 q 399 456 413 494 q 372 387 382 415 q 368 240 368 267 z "},"Z":{"ha":540,"x_min":39,"x_max":481,"o":"m 117 1097 l 251 1091 q 339 1093 308 1091 q 389 1095 371 1094 q 427 1099 408 1095 q 463 1093 446 1102 q 481 1053 481 1084 q 406 833 481 1023 q 303 574 331 643 q 250 438 276 505 q 199 308 223 370 q 155 193 174 245 q 109 59 120 98 l 127 60 l 134 60 q 416 71 296 60 q 451 61 439 73 q 463 35 463 49 q 452 7 463 20 q 418 -4 440 -6 q 330 -1 378 -1 q 248 -1 281 -1 q 183 0 215 0 q 92 -1 107 1 q 68 -1 77 -3 q 53 7 60 1 q 40 41 37 21 q 58 102 43 61 q 96 201 73 143 q 150 332 120 260 q 212 481 180 404 q 276 638 244 559 q 334 792 307 718 q 406 1027 388 941 q 304 1029 368 1029 q 136 1027 180 1029 q 66 1059 66 1023 q 80 1086 66 1074 q 117 1097 94 1097 z "},"[":{"ha":450,"x_min":106,"x_max":361,"o":"m 145 1269 q 155 1267 145 1269 q 201 1265 165 1265 q 264 1268 238 1265 q 306 1272 291 1270 q 331 1270 321 1273 q 347 1261 340 1267 q 360 1235 360 1251 q 348 1209 360 1220 q 311 1200 336 1198 q 268 1204 286 1202 q 237 1206 250 1206 q 214 1205 224 1206 q 193 1204 204 1205 q 183 1204 188 1204 q 183 1100 183 1160 q 182 905 182 1014 q 181 671 182 797 q 180 412 180 545 q 178 -95 180 248 q 266 -90 220 -95 q 333 -86 323 -83 q 349 -95 342 -90 q 361 -121 361 -106 q 349 -146 361 -136 q 313 -155 337 -157 q 213 -151 242 -151 q 165 -153 184 -151 q 139 -152 147 -154 q 123 -146 130 -151 q 110 -113 109 -135 q 123 458 123 180 q 122 821 123 736 q 119 981 121 905 q 109 1185 115 1131 q 106 1249 103 1240 q 115 1263 110 1257 q 145 1269 126 1272 z "},"\\":{"ha":490,"x_min":49,"x_max":437,"o":"m 409 -127 q 374 -94 384 -127 q 285 241 337 22 q 211 553 233 460 q 167 735 189 646 q 125 903 146 825 q 65 1118 81 1076 q 49 1178 49 1162 q 58 1202 49 1194 q 78 1211 66 1211 q 102 1201 90 1211 q 121 1158 114 1191 q 143 1059 128 1126 q 177 911 158 992 q 217 738 195 829 q 261 552 238 646 q 307 366 283 458 q 353 191 330 274 q 416 -29 397 22 q 437 -98 437 -85 q 429 -119 437 -110 q 409 -127 420 -127 z "},"]":{"ha":454,"x_min":102,"x_max":358,"o":"m 282 -95 l 281 186 q 283 906 281 656 q 286 1203 285 1117 q 239 1205 259 1205 q 166 1202 205 1205 q 104 1234 104 1196 q 133 1270 104 1260 q 157 1272 142 1273 q 242 1266 217 1266 q 309 1269 291 1266 q 335 1270 328 1272 q 349 1263 342 1267 q 358 1217 362 1251 q 351 1119 354 1183 q 345 979 347 1055 q 342 694 342 854 q 342 426 342 535 q 345 216 343 316 q 352 -79 349 -27 q 351 -140 355 -132 q 340 -153 347 -149 q 304 -160 327 -164 q 228 -154 263 -154 q 152 -155 178 -154 q 115 -146 127 -157 q 102 -121 102 -136 q 116 -95 102 -107 q 165 -87 130 -83 q 282 -95 238 -94 z "},"^":{"ha":645,"x_min":67,"x_max":557,"o":"m 545 268 q 551 254 545 268 q 557 229 557 241 q 546 208 557 216 q 524 201 534 201 q 490 222 499 201 q 445 388 478 253 q 397 584 412 522 q 366 705 382 646 q 336 814 351 764 q 307 911 319 877 q 267 776 288 865 q 222 585 236 645 q 196 468 209 526 q 172 361 183 410 q 138 231 146 250 q 95 199 125 199 q 76 207 84 199 q 67 224 67 214 q 76 259 67 244 q 96 310 84 274 q 120 395 107 346 q 147 502 133 444 q 175 619 161 559 q 203 737 189 679 q 229 844 217 795 q 269 977 258 954 q 290 1004 280 999 q 309 1008 300 1008 q 342 981 330 1008 q 393 811 359 939 q 443 625 427 683 q 473 509 458 566 q 502 403 488 452 q 545 268 533 294 z "},"_":{"ha":745,"x_min":-66,"x_max":832,"o":"m 832 -165 q 790 -188 832 -188 l -22 -188 q -56 -180 -45 -188 q -66 -162 -66 -172 q -55 -144 -66 -151 q -22 -136 -44 -136 l 787 -136 q 821 -145 809 -136 q 832 -165 832 -154 z "},"`":{"ha":317,"x_min":51,"x_max":228,"o":"m 51 777 q 116 746 80 794 q 208 640 145 707 q 228 605 228 616 q 219 586 228 593 q 201 580 211 580 q 164 603 185 580 q 127 643 143 627 q 98 671 111 659 q 52 720 64 705 q 51 777 22 759 z "},"a":{"ha":468,"x_min":53,"x_max":409,"o":"m 332 139 q 332 231 332 176 q 258 241 303 241 q 159 212 198 241 q 129 175 140 197 q 117 120 117 154 q 140 64 117 87 q 208 42 163 42 q 308 103 253 42 q 332 139 323 120 m 376 -14 q 335 47 335 -14 q 334 71 335 52 q 321 54 328 63 q 188 -15 260 -15 q 92 22 130 -15 q 53 119 53 60 q 117 251 53 201 q 181 285 145 273 q 260 296 216 296 q 332 284 297 296 l 332 356 q 308 446 332 416 q 256 475 283 475 q 213 469 230 475 q 184 449 197 462 q 151 380 155 421 q 142 350 153 358 q 119 341 132 341 q 83 390 82 341 q 135 484 85 441 q 250 528 186 528 q 378 433 345 528 q 390 359 390 399 l 390 289 l 389 175 l 389 115 q 399 49 389 74 q 409 13 409 24 q 399 -6 409 3 q 376 -14 389 -14 z "},"b":{"ha":503,"x_min":77,"x_max":455,"o":"m 82 25 l 88 612 l 88 700 q 87 783 88 743 q 86 865 87 824 q 84 949 85 905 q 77 1100 80 1043 q 77 1167 73 1158 q 87 1182 81 1177 q 115 1192 96 1192 q 149 1135 149 1192 l 145 851 l 145 715 q 145 627 145 673 q 145 535 144 581 q 146 393 146 439 q 206 483 167 446 q 310 531 256 531 q 445 426 413 531 q 455 344 455 392 q 441 249 455 296 q 404 162 427 201 q 348 91 380 122 q 281 37 316 59 q 115 -14 193 -20 q 82 25 82 -12 m 198 398 q 187 385 198 398 q 162 339 176 371 q 147 280 149 307 q 144 232 145 252 q 143 199 144 212 q 143 176 143 185 l 143 161 q 146 41 143 144 q 212 58 176 39 q 285 106 256 81 q 338 165 315 130 q 393 345 393 244 q 370 433 393 404 q 312 461 347 461 q 249 443 278 461 q 198 398 220 425 z "},"c":{"ha":467,"x_min":71,"x_max":401,"o":"m 401 356 q 367 313 401 313 q 333 356 333 313 q 250 469 334 469 q 163 402 197 469 q 132 270 132 342 q 143 157 132 198 q 171 91 153 117 q 254 41 203 41 q 308 66 287 41 q 337 118 330 91 q 372 160 349 160 q 393 151 384 159 q 399 118 401 142 q 385 69 397 95 q 351 24 372 43 q 243 -14 308 -14 q 123 52 172 -14 q 71 249 71 123 q 125 456 71 381 q 250 527 174 526 q 357 484 315 528 q 401 356 401 439 z "},"d":{"ha":503,"x_min":54,"x_max":437,"o":"m 349 298 l 349 441 q 274 467 309 467 q 213 453 239 467 q 166 411 187 439 q 119 248 119 349 q 184 59 119 104 q 234 44 206 44 q 281 56 262 44 q 315 84 301 67 q 348 158 339 115 q 349 298 349 214 m 405 977 q 404 951 405 977 q 403 869 404 926 q 403 626 403 812 q 410 266 403 440 q 420 75 417 91 q 427 49 423 60 q 434 31 431 38 q 437 15 437 24 q 428 -2 437 5 q 410 -10 420 -10 q 363 77 366 -10 q 363 81 363 79 q 229 -15 319 -15 q 104 49 152 -15 q 54 241 54 117 q 121 452 54 370 q 265 526 182 526 q 345 509 312 526 q 345 610 345 558 q 343 740 344 675 q 341 866 342 805 q 340 981 340 927 q 336 1131 338 1093 q 347 1180 334 1170 q 374 1191 359 1191 q 402 1180 389 1191 q 412 1142 414 1170 q 408 1071 410 1114 q 405 977 406 1027 z "},"e":{"ha":469,"x_min":58,"x_max":414,"o":"m 352 293 q 302 454 353 411 q 253 473 282 473 q 205 462 224 473 q 171 433 186 451 q 147 391 157 414 q 131 343 137 368 q 122 292 125 317 l 215 288 q 352 293 306 288 m 119 234 q 153 91 121 140 q 253 38 189 38 q 339 96 312 38 q 381 134 356 134 q 400 127 393 134 q 408 101 408 119 q 394 60 407 82 q 359 22 382 39 q 242 -16 311 -16 q 115 47 168 -16 q 58 205 58 113 q 74 354 58 296 q 117 449 90 411 q 245 526 168 526 q 385 448 345 526 q 414 288 412 393 q 405 248 415 258 q 363 238 395 238 l 119 234 z "},"f":{"ha":335,"x_min":41,"x_max":412,"o":"m 334 1015 l 342 1068 q 302 1143 342 1128 q 272 1147 291 1147 q 236 1135 254 1147 q 206 1088 218 1122 q 183 674 179 1009 q 184 503 184 586 l 294 507 q 339 473 339 507 q 316 442 339 452 q 290 441 308 439 q 217 444 236 444 q 184 443 199 444 l 184 321 q 189 85 184 125 q 191 34 194 46 q 182 14 189 22 q 155 -4 170 -4 q 130 8 140 -4 q 121 43 120 20 q 122 105 122 65 q 122 202 123 146 q 122 330 122 259 q 121 439 121 382 q 84 437 105 437 q 52 446 62 435 q 41 469 41 457 q 46 489 41 481 q 57 500 50 496 q 85 509 70 509 l 121 507 q 119 787 119 654 q 127 1005 119 932 q 153 1124 135 1078 q 283 1212 189 1212 q 401 1113 372 1212 q 412 1042 412 1080 q 399 989 412 1004 q 371 974 387 974 q 334 1015 334 974 z "},"g":{"ha":461,"x_min":53,"x_max":470,"o":"m 182 26 q 217 26 191 26 l 255 26 q 422 -75 376 26 q 437 -150 437 -107 q 425 -226 437 -193 q 388 -283 412 -259 q 239 -333 336 -333 q 113 -293 161 -333 q 64 -178 64 -252 q 99 -59 64 -112 q 125 -28 111 -40 q 80 1 97 -21 q 58 60 58 30 q 64 111 58 91 q 81 148 71 131 q 119 192 98 174 q 68 255 87 215 q 53 332 53 287 q 68 414 53 377 q 109 476 83 451 q 168 513 135 500 q 240 527 201 526 q 293 522 267 528 q 330 618 296 567 q 438 691 377 691 q 470 658 470 691 q 440 623 470 637 q 363 574 393 613 q 337 504 340 543 q 370 479 355 494 q 420 337 420 429 q 373 215 420 264 q 234 161 320 161 q 156 173 190 161 q 132 126 142 155 q 119 71 119 87 q 182 26 119 26 m 114 332 q 114 304 114 332 q 146 244 114 277 q 223 212 178 212 q 291 223 267 212 q 331 252 315 234 q 362 349 362 288 q 286 463 362 435 q 234 471 264 471 q 182 458 205 471 q 144 426 159 446 q 114 332 114 388 m 176 -33 q 157 -53 165 -39 q 125 -162 125 -102 q 257 -278 125 -278 q 377 -155 377 -278 q 349 -65 377 -100 q 289 -32 323 -33 q 217 -33 256 -32 q 176 -33 196 -33 z "},"h":{"ha":517,"x_min":90,"x_max":439,"o":"m 153 402 q 308 524 213 524 q 423 423 393 524 q 433 336 433 388 l 433 227 q 439 45 433 104 q 427 12 440 23 q 399 0 414 0 q 373 10 384 0 q 366 58 362 20 q 372 184 372 115 q 370 280 372 252 q 368 350 369 309 q 351 426 367 391 q 305 460 336 460 q 250 444 274 460 q 206 403 226 428 q 156 282 166 349 q 165 45 159 120 q 155 12 166 23 q 125 0 143 0 q 90 42 90 0 l 100 795 q 92 1156 100 939 q 104 1188 91 1177 q 132 1198 117 1198 q 158 1188 147 1198 q 167 1151 168 1177 q 165 1074 166 1124 q 162 960 163 1023 q 159 823 160 896 q 156 673 157 749 q 154 519 155 596 q 153 402 153 459 z "},"i":{"ha":259,"x_min":80,"x_max":194,"o":"m 190 719 q 194 693 195 708 q 186 667 193 677 q 172 649 180 656 q 140 637 157 637 q 115 641 124 637 q 98 651 105 644 q 80 694 80 667 q 94 732 80 720 q 138 751 116 751 q 190 719 175 751 m 168 464 q 161 325 165 393 q 158 201 158 256 q 161 88 158 146 q 162 21 165 29 q 153 7 159 12 q 128 -5 142 -5 q 103 5 115 -5 q 94 47 91 16 q 101 221 101 133 q 99 364 101 309 q 95 446 96 418 q 98 482 94 474 q 107 495 101 490 q 133 506 119 506 q 158 496 147 506 q 168 464 169 486 z "},"j":{"ha":280,"x_min":-96,"x_max":204,"o":"m 186 736 q 191 733 186 736 q 200 719 195 729 q 204 693 205 708 q 197 667 203 677 q 182 649 191 656 q 144 637 166 637 q 106 651 123 637 q 90 694 90 665 q 107 737 90 722 q 142 751 125 751 q 168 748 158 751 q 186 736 178 744 m 115 315 q 114 336 115 315 q 112 386 113 357 q 109 460 111 414 q 145 507 106 507 q 183 460 184 507 q 177 100 177 252 l 177 -118 q 91 -355 177 -316 q 33 -368 63 -368 q -20 -360 2 -368 q -60 -335 -43 -352 q -96 -229 -96 -300 q -58 -176 -96 -176 q -36 -187 -45 -176 q -28 -219 -27 -199 q -27 -255 -29 -239 q -19 -285 -25 -272 q 23 -313 -6 -313 q 69 -302 52 -313 q 96 -269 85 -292 q 116 -106 113 -228 l 116 -82 l 117 126 l 117 218 q 115 315 117 274 z "},"k":{"ha":500,"x_min":85,"x_max":452,"o":"m 415 510 q 439 500 429 510 q 449 474 449 490 q 434 436 449 458 q 396 389 418 414 q 350 339 374 364 q 312 298 329 317 q 411 111 340 212 q 441 65 431 84 q 452 34 452 47 q 440 9 452 22 q 415 -3 428 -3 q 374 25 385 -3 q 346 88 363 52 q 311 158 329 123 q 261 251 282 215 q 221 214 243 233 q 174 170 191 186 q 166 163 170 166 l 166 161 q 167 124 166 144 q 168 84 168 104 q 169 45 169 64 q 157 14 170 26 q 131 3 145 3 q 106 13 117 3 q 97 55 96 23 q 99 140 98 87 q 100 254 100 193 q 102 518 102 433 q 101 694 102 602 q 99 872 100 787 q 85 1154 95 1064 q 96 1186 83 1176 q 124 1197 109 1197 q 154 1186 140 1197 q 166 1150 167 1176 q 164 1084 165 1124 q 164 997 164 1044 q 165 786 165 854 q 165 644 165 718 q 164 494 165 570 q 165 231 163 340 q 316 400 235 296 q 366 473 355 450 q 415 510 385 510 z "},"l":{"ha":270,"x_min":98,"x_max":178,"o":"m 172 887 q 171 846 172 887 q 169 708 170 804 q 168 411 168 612 q 174 39 168 210 q 163 5 174 17 q 136 -6 152 -6 q 109 4 121 -6 q 98 52 96 15 q 103 164 100 90 q 107 327 105 239 q 111 649 111 519 q 110 844 111 779 q 109 964 110 909 q 102 1153 108 1067 q 111 1186 101 1175 q 137 1198 121 1198 q 166 1186 153 1198 q 178 1139 179 1175 q 175 1037 176 1104 q 172 887 173 970 z "},"m":{"ha":735,"x_min":91,"x_max":661,"o":"m 157 262 l 157 214 q 162 45 157 179 q 136 3 162 14 q 119 0 128 0 q 100 10 109 0 q 91 52 90 20 q 93 117 92 83 q 95 182 94 151 q 97 296 97 254 q 92 460 97 362 q 101 494 90 481 q 127 507 113 507 q 155 494 142 507 q 166 467 168 481 q 164 443 165 453 q 163 420 163 432 q 162 410 163 415 q 257 504 201 483 q 298 511 277 511 q 339 502 320 511 q 373 474 359 492 q 402 411 393 450 q 538 511 458 511 q 645 411 618 511 q 654 323 654 375 l 654 241 q 661 45 654 122 q 650 12 662 23 q 628 0 638 0 q 610 3 617 0 q 597 11 603 5 q 586 42 584 23 q 589 86 588 62 q 591 138 591 111 q 594 238 594 203 q 595 293 594 273 q 594 351 595 312 q 576 419 593 389 q 531 448 559 448 q 484 436 504 448 q 450 403 465 424 q 414 293 420 359 l 414 245 q 418 45 414 129 q 406 12 419 23 q 379 0 393 0 q 354 10 366 0 q 345 41 342 20 q 348 88 347 62 q 350 142 349 114 q 353 243 353 208 l 353 298 q 351 335 353 318 q 332 420 350 391 q 285 448 313 448 q 236 434 257 448 q 200 398 216 420 q 158 290 170 355 q 157 262 157 275 z "},"n":{"ha":511,"x_min":90,"x_max":433,"o":"m 430 329 l 429 182 q 433 47 429 110 q 422 13 435 24 q 396 1 410 1 q 371 12 382 1 q 362 44 359 22 q 366 93 364 65 q 369 151 368 121 q 372 249 372 210 q 370 306 372 288 q 368 358 369 323 q 349 424 366 393 q 302 455 332 455 q 249 442 271 455 q 208 408 227 429 q 156 302 169 363 q 155 265 155 283 l 155 230 q 158 67 155 107 q 153 15 161 28 q 127 1 146 1 q 98 13 109 1 q 90 57 87 25 q 96 237 96 144 q 92 469 96 395 q 130 514 89 514 q 156 501 151 514 q 160 474 162 488 q 158 450 159 460 q 158 429 158 439 q 158 409 158 418 q 264 509 198 485 q 307 516 286 516 q 352 506 329 516 q 392 474 375 496 q 430 329 430 425 z "},"o":{"ha":484,"x_min":54,"x_max":431,"o":"m 300 456 q 247 473 277 473 q 192 456 217 473 q 151 410 168 439 q 116 246 116 350 q 149 92 116 142 q 238 43 182 43 q 336 113 299 43 q 368 266 368 175 q 300 456 368 406 m 237 -15 q 165 1 199 -16 q 107 53 132 18 q 54 265 54 127 q 111 460 54 389 q 255 528 165 528 q 380 463 330 528 q 431 273 431 393 q 372 58 431 138 q 237 -15 319 -14 z "},"p":{"ha":509,"x_min":90,"x_max":464,"o":"m 159 -14 q 157 -106 157 -60 q 168 -314 157 -151 q 140 -349 168 -340 q 125 -351 132 -351 q 112 -348 118 -351 q 100 -340 105 -346 q 91 -302 89 -329 q 98 -31 98 -210 q 90 460 98 289 q 100 496 89 483 q 127 510 111 510 q 152 499 142 510 q 161 469 162 488 q 158 417 159 439 q 221 490 182 460 q 332 527 271 527 q 429 481 394 527 q 464 362 464 435 q 449 239 464 290 q 409 149 434 189 q 352 79 385 109 q 286 28 320 49 q 159 -14 219 -12 m 158 297 q 160 45 156 119 q 221 58 186 42 q 294 101 265 77 q 347 159 323 125 q 401 349 401 239 q 377 438 401 408 q 319 468 353 468 q 258 451 286 468 q 209 410 230 435 q 158 297 165 357 z "},"q":{"ha":512,"x_min":58,"x_max":422,"o":"m 353 291 l 350 441 q 266 468 315 468 q 171 408 216 468 q 118 233 118 339 q 150 96 118 149 q 232 43 182 43 q 315 84 283 43 q 354 224 357 139 q 353 291 353 258 m 361 -31 l 361 41 l 361 78 q 320 19 338 35 q 239 -15 281 -15 q 164 1 197 -15 q 109 49 132 17 q 58 241 58 117 q 125 452 58 370 q 270 526 186 526 q 357 498 323 526 q 367 514 360 507 q 392 525 379 525 q 418 473 420 525 q 417 376 417 422 l 417 282 l 422 -315 q 409 -342 422 -332 q 386 -353 397 -353 q 369 -350 376 -353 q 358 -342 363 -347 q 349 -309 346 -330 q 354 -255 351 -288 q 358 -186 356 -223 q 361 -31 361 -105 z "},"r":{"ha":360,"x_min":93,"x_max":368,"o":"m 368 489 q 332 447 368 452 q 231 370 287 438 q 163 226 170 297 q 160 169 160 195 q 165 39 160 107 q 154 5 167 17 q 127 -6 142 -6 q 102 4 113 -6 q 93 36 91 15 q 96 86 95 58 q 99 145 98 114 q 100 263 100 198 q 98 426 100 373 q 98 488 95 479 q 107 500 102 496 q 133 511 119 511 q 158 501 146 511 q 168 475 169 491 q 165 444 167 459 q 161 406 163 429 q 154 330 157 370 q 233 458 182 399 q 334 523 291 523 q 360 513 352 523 q 368 489 368 503 z "},"s":{"ha":450,"x_min":68,"x_max":389,"o":"m 107 172 q 135 115 138 172 q 161 58 132 82 q 231 35 188 35 q 300 59 274 35 q 327 118 327 83 q 309 174 327 154 q 265 210 292 194 q 208 240 239 226 q 151 274 178 255 q 90 386 90 319 q 129 481 90 444 q 238 523 171 523 q 334 490 296 523 q 376 398 376 454 q 368 357 380 370 q 341 344 357 344 q 317 357 326 344 q 309 389 308 371 q 307 421 310 408 q 295 447 304 435 q 231 473 275 473 q 180 456 196 473 q 152 395 152 427 q 170 342 152 363 q 214 305 187 321 q 271 273 240 288 q 328 239 301 258 q 389 129 389 195 q 347 26 389 65 q 224 -16 303 -16 q 111 24 157 -16 q 68 125 64 64 q 107 172 71 172 z "},"t":{"ha":365,"x_min":25,"x_max":347,"o":"m 98 643 q 110 678 98 667 q 135 690 121 690 q 159 678 149 690 q 168 643 170 667 q 160 496 161 580 q 244 500 216 496 q 285 503 273 503 q 331 469 331 505 q 307 441 331 449 q 288 439 299 438 q 265 440 277 439 q 240 440 252 440 q 200 440 219 440 q 165 439 180 440 q 159 439 163 439 q 159 437 159 438 q 168 121 159 157 q 185 69 176 85 q 229 42 202 42 q 286 84 271 42 q 321 118 292 118 q 339 110 331 118 q 347 85 347 101 q 336 50 347 68 q 309 16 326 31 q 226 -15 272 -15 q 110 78 142 -15 q 98 161 98 112 l 98 435 q 67 433 84 434 q 36 443 46 432 q 25 467 25 454 q 36 489 25 479 q 68 499 47 499 l 98 498 l 98 643 z "},"u":{"ha":513,"x_min":81,"x_max":444,"o":"m 144 165 q 235 45 144 45 q 323 96 286 45 q 361 206 355 142 q 363 316 363 266 q 362 461 363 388 q 374 495 361 484 q 400 507 387 507 q 425 496 414 507 q 433 465 436 486 q 421 213 421 334 q 425 77 421 91 q 433 53 428 62 q 444 17 444 28 q 435 -4 444 6 q 412 -14 427 -14 q 362 79 361 -14 q 319 21 339 37 q 172 -5 252 -35 q 83 172 83 28 q 82 319 83 246 q 81 461 81 391 q 94 495 82 484 q 120 506 106 506 q 145 496 134 506 q 154 461 157 486 q 149 397 151 437 q 146 317 147 358 q 144 165 144 248 z "},"v":{"ha":439,"x_min":34,"x_max":410,"o":"m 259 20 q 224 -3 252 -3 q 191 16 197 -3 q 155 127 172 72 q 121 235 138 182 q 43 441 81 359 q 34 478 34 462 q 44 505 34 495 q 66 515 54 515 q 92 506 79 515 q 117 459 106 497 q 147 356 129 420 q 182 231 165 291 q 226 78 211 125 q 245 144 235 113 q 274 235 259 187 q 337 476 310 350 q 376 514 346 514 q 400 506 390 514 q 410 484 410 497 q 396 430 410 465 q 363 342 382 395 q 326 235 345 289 q 259 20 284 110 z "},"w":{"ha":663,"x_min":30,"x_max":633,"o":"m 469 96 q 479 132 474 113 q 505 231 491 178 q 562 477 526 319 q 578 507 566 498 q 602 516 590 516 q 623 506 613 516 q 633 483 633 496 q 627 453 633 469 q 609 403 621 437 q 586 326 598 368 q 560 238 573 283 q 535 151 547 192 q 507 48 516 83 q 488 7 498 14 q 467 0 477 0 q 435 24 441 0 q 391 201 420 80 q 336 429 356 352 q 327 388 332 410 q 298 274 314 335 q 233 28 259 114 q 218 9 229 17 q 197 1 208 1 q 165 24 172 1 q 133 137 148 83 q 103 243 118 191 q 37 442 73 347 q 30 479 30 462 q 39 507 30 497 q 60 516 48 516 q 103 480 93 516 q 122 403 113 444 q 142 320 132 363 q 162 236 152 278 q 182 157 172 195 q 202 86 193 115 l 294 470 q 340 515 306 515 q 387 467 376 515 q 469 96 437 207 z "},"x":{"ha":467,"x_min":60,"x_max":402,"o":"m 280 243 q 340 142 304 200 q 395 54 382 77 q 402 30 402 45 q 391 5 402 15 q 368 -4 380 -4 q 329 21 340 -4 q 269 157 291 116 q 241 208 250 191 q 217 165 230 189 q 184 110 201 138 q 114 -1 124 5 q 93 -7 103 -7 q 72 2 83 -7 q 60 26 60 12 q 73 58 60 41 q 101 94 85 75 q 133 136 116 113 q 201 254 168 187 q 158 321 182 281 q 103 412 127 374 q 75 460 78 450 q 73 482 73 470 q 83 504 73 494 q 109 513 94 513 q 147 480 134 513 q 175 419 161 447 q 202 367 189 391 q 228 322 215 343 q 245 294 237 308 q 257 315 250 302 q 283 362 269 334 q 338 494 319 433 q 365 518 347 518 q 391 512 383 518 q 401 496 398 506 q 395 451 408 475 q 366 399 382 427 q 334 343 350 372 q 280 243 299 283 z "},"y":{"ha":462,"x_min":52,"x_max":425,"o":"m 244 40 q 350 471 321 330 q 391 513 357 513 q 415 504 405 513 q 425 482 425 495 q 415 433 425 461 q 388 348 405 406 q 352 223 370 290 q 314 85 333 157 q 275 -58 294 14 q 179 -357 197 -338 q 154 -367 170 -367 q 127 -358 138 -367 q 116 -336 116 -349 q 126 -298 116 -316 q 148 -253 136 -281 q 174 -189 160 -226 q 219 -50 197 -125 q 186 63 203 3 q 145 197 166 130 q 75 404 95 360 q 52 474 52 456 q 61 503 52 492 q 85 513 71 513 q 126 475 115 513 q 150 394 138 437 q 174 306 162 351 q 197 218 186 262 q 219 136 209 175 q 237 65 229 97 q 244 40 241 52 z "},"z":{"ha":420,"x_min":60,"x_max":380,"o":"m 368 503 q 372 500 368 503 q 379 488 376 497 q 379 469 382 479 q 367 444 376 459 q 345 405 357 428 q 313 352 332 382 q 274 288 295 321 q 232 220 254 254 q 190 152 210 185 q 132 56 152 90 l 188 56 q 333 68 229 56 q 366 62 353 71 q 380 42 380 54 q 377 24 380 31 q 369 11 375 16 q 334 -2 355 -3 q 297 0 313 0 l 263 0 q 184 -1 223 0 q 123 -3 145 -2 q 91 0 101 -3 q 74 9 81 3 q 60 37 60 20 q 71 73 60 55 q 100 119 81 90 q 141 183 119 149 q 188 256 163 218 q 236 332 212 294 q 302 448 279 403 l 269 448 q 178 445 215 448 q 121 441 140 442 q 90 450 102 439 q 78 475 78 461 q 91 501 78 489 q 129 511 104 513 q 231 506 195 506 q 321 509 304 506 q 349 510 338 512 q 368 503 360 508 z "},"{":{"ha":474,"x_min":53,"x_max":401,"o":"m 182 116 q 171 334 182 296 q 145 381 160 372 q 105 390 130 390 q 67 400 82 387 q 53 430 53 414 q 68 460 53 446 q 118 474 83 474 q 180 605 165 484 q 192 1016 192 709 q 288 1259 192 1217 q 348 1273 318 1273 q 390 1263 378 1273 q 401 1240 401 1253 q 389 1216 401 1227 q 353 1206 376 1206 q 311 1197 330 1206 q 279 1164 293 1189 q 252 969 252 1111 q 253 861 252 920 q 253 743 254 802 q 246 627 252 683 q 227 527 240 570 q 155 435 202 451 q 199 412 182 431 q 232 336 222 386 q 241 217 241 287 l 241 62 q 258 -43 241 -12 q 297 -86 275 -73 q 346 -100 319 -100 q 392 -128 392 -100 q 379 -152 392 -141 q 339 -162 366 -162 q 284 -152 312 -162 q 233 -117 256 -142 q 182 64 180 -58 l 182 116 z "},"|":{"ha":271,"x_min":108,"x_max":183,"o":"m 111 -104 q 118 367 118 129 q 118 696 118 604 q 117 878 117 787 q 108 1221 114 1074 q 118 1259 106 1247 q 144 1272 129 1272 q 172 1259 160 1272 q 183 1207 184 1246 q 180 1120 181 1168 q 177 1025 178 1072 q 175 930 176 978 q 174 831 174 883 q 173 594 173 674 q 173 441 173 515 q 174 298 174 367 q 175 167 174 229 q 176 53 176 104 q 180 -97 179 -67 q 171 -138 182 -127 q 146 -149 159 -149 q 122 -138 133 -149 q 111 -104 111 -127 z "},"}":{"ha":471,"x_min":53,"x_max":401,"o":"m 271 64 q 220 -117 273 -60 q 116 -162 180 -162 q 75 -152 87 -162 q 62 -129 62 -141 q 72 -109 62 -117 q 108 -100 81 -100 q 156 -86 134 -100 q 191 -52 178 -73 q 213 67 213 -12 l 213 216 q 255 410 213 361 q 296 433 270 427 q 205 621 222 452 q 199 822 196 723 q 201 983 201 920 q 194 1092 201 1045 q 174 1164 187 1138 q 102 1206 152 1206 q 65 1216 77 1206 q 53 1240 53 1227 q 64 1263 53 1253 q 105 1273 75 1273 q 166 1259 136 1273 q 218 1215 197 1246 q 262 1011 262 1153 q 264 769 262 870 q 274 605 266 669 q 296 510 281 541 q 336 474 311 479 q 386 460 370 474 q 401 430 401 446 q 386 400 401 414 q 349 390 372 387 q 309 381 324 390 q 285 343 294 372 q 271 116 271 296 l 271 64 z "},"~":{"ha":673,"x_min":52,"x_max":608,"o":"m 405 280 q 416 274 405 280 q 447 266 427 268 q 481 269 467 264 q 506 283 495 274 q 534 323 526 298 q 579 368 549 368 q 600 356 591 368 q 608 330 608 344 q 600 298 608 315 q 577 263 591 281 q 544 231 564 245 q 441 204 499 199 q 327 273 381 209 q 216 340 273 334 q 136 302 163 345 q 124 273 129 290 q 107 245 120 256 q 82 235 94 235 q 61 243 70 235 q 52 263 52 252 q 60 308 52 292 q 84 342 68 324 q 120 373 99 359 q 226 400 168 405 q 345 332 286 394 q 405 280 382 293 z "},"":{"ha":260,"x_min":0,"x_max":0,"o":"z "},"":{"ha":336,"x_min":110,"x_max":231,"o":"m 212 1054 q 216 1051 212 1054 q 226 1036 220 1047 q 231 1010 231 1025 q 225 983 231 994 q 210 965 219 972 q 166 953 191 953 q 115 985 130 953 q 110 1010 110 996 q 149 1065 110 1051 q 171 1068 160 1068 q 192 1065 181 1068 q 212 1054 203 1061 z "},"":{"ha":476,"x_min":75,"x_max":419,"o":"m 365 650 q 354 685 354 660 q 350 733 354 711 q 336 772 346 756 q 284 804 319 798 q 281 672 281 737 q 281 366 281 522 q 281 254 281 307 q 347 304 331 259 q 359 338 353 319 q 392 371 369 371 q 411 361 404 370 q 419 331 419 353 q 407 285 419 310 q 374 240 395 260 q 283 199 336 205 q 287 87 284 140 q 277 54 288 65 q 254 43 267 43 q 231 53 241 43 q 221 84 220 63 q 225 199 223 145 q 126 277 165 212 q 75 519 75 361 q 134 772 75 677 q 228 850 175 835 q 220 979 224 920 q 231 1010 219 1000 q 257 1021 243 1021 q 283 1010 271 1021 q 293 979 294 1000 q 286 854 289 916 q 373 814 337 849 q 419 686 419 767 q 410 654 419 664 q 365 650 388 629 m 227 262 q 233 532 233 440 q 230 797 233 680 q 169 717 195 779 q 136 545 136 637 q 146 401 136 453 q 175 316 157 349 q 227 262 197 277 z "},"":{"ha":677,"x_min":76,"x_max":593,"o":"m 255 478 l 376 488 q 411 479 399 489 q 422 460 422 469 q 419 444 422 451 q 411 431 416 437 q 377 417 399 416 q 306 420 332 420 q 264 419 280 420 q 249 419 256 419 q 250 326 250 376 q 249 218 250 261 q 238 139 247 174 q 208 75 228 98 q 290 88 249 88 q 353 80 319 88 q 433 67 395 67 q 496 81 471 67 q 526 114 522 94 q 564 150 534 150 q 585 139 576 150 q 593 109 593 129 q 586 72 593 90 q 562 39 578 54 q 448 2 522 2 q 384 9 422 2 q 270 24 307 24 q 128 3 205 24 q 80 24 94 -7 q 76 44 76 32 q 87 68 76 56 q 125 80 99 80 q 175 139 161 80 q 188 268 188 197 q 187 366 188 339 q 184 416 186 390 q 167 416 175 416 q 127 425 138 415 q 116 447 116 435 q 127 471 116 460 q 165 480 138 482 q 181 479 173 479 q 173 688 173 619 q 182 841 173 770 q 208 961 191 911 q 245 1045 224 1012 q 292 1097 267 1078 q 399 1132 338 1132 q 543 1036 506 1132 q 555 981 555 1004 l 555 951 q 541 908 555 920 q 513 897 527 897 q 488 908 498 897 q 480 937 477 920 q 486 989 486 972 q 479 1022 486 1006 q 460 1047 471 1038 q 406 1065 437 1065 q 344 1048 374 1065 q 290 990 314 1031 q 238 696 238 896 q 241 598 238 659 q 245 503 244 536 q 247 478 246 490 q 255 478 251 478 z "},"":{"ha":670,"x_min":100,"x_max":564,"o":"m 327 338 q 380 355 356 338 q 422 400 405 371 q 456 557 456 458 q 423 706 456 656 q 336 756 390 756 q 241 689 277 756 q 208 541 208 628 q 239 397 208 455 q 327 338 272 338 m 217 320 q 186 263 201 297 q 159 211 168 226 q 135 193 150 196 q 110 200 119 190 q 100 226 100 211 q 111 258 100 241 q 137 293 122 275 q 169 331 153 311 q 186 356 179 343 q 144 534 144 422 q 194 735 144 659 q 159 783 182 755 q 117 835 128 818 q 106 864 106 852 q 109 882 106 876 q 117 893 112 888 q 144 902 129 904 q 167 884 159 899 q 184 851 176 868 q 202 818 193 835 q 227 775 216 791 q 336 819 269 818 q 446 775 402 821 q 475 825 458 794 q 506 883 496 867 q 528 900 516 899 q 545 900 540 902 q 555 893 551 898 q 564 869 564 883 q 553 838 564 854 q 527 803 542 821 q 478 734 493 760 q 519 542 519 662 q 470 357 519 429 q 505 309 482 338 q 546 254 535 270 q 557 227 557 237 q 553 211 557 217 q 545 201 550 205 q 519 194 534 192 q 496 210 505 197 q 479 239 487 224 q 464 271 472 254 q 437 319 449 301 q 319 279 390 279 q 217 320 258 279 z "},"":{"ha":728,"x_min":74,"x_max":669,"o":"m 410 298 q 582 304 509 299 q 615 294 604 305 q 626 270 626 283 q 615 249 626 258 q 576 241 605 239 q 412 247 500 247 l 412 247 l 421 35 q 392 -9 421 2 q 374 -12 385 -12 q 352 0 363 -12 q 343 51 340 12 q 349 211 349 121 q 349 246 349 230 q 176 241 252 245 q 142 249 153 239 q 132 272 132 259 q 143 295 132 285 q 176 304 154 306 q 349 298 239 299 q 349 331 349 319 q 347 393 348 360 q 338 392 342 393 q 274 391 304 392 q 176 387 199 389 q 142 395 153 385 q 132 418 132 406 q 143 441 132 431 q 176 450 154 452 q 345 445 245 446 q 345 456 345 450 q 252 667 307 547 q 74 1080 74 1059 q 109 1122 74 1121 q 135 1112 126 1123 q 161 1047 144 1101 q 210 911 178 992 q 275 758 243 831 q 338 623 308 684 q 380 534 361 573 q 524 892 453 723 q 603 1081 599 1071 q 611 1100 606 1092 q 637 1118 621 1118 q 669 1086 669 1118 q 648 1025 669 1072 q 588 889 627 977 q 513 719 549 802 q 413 473 449 570 q 412 445 412 460 q 582 449 498 446 q 615 440 604 450 q 626 420 626 429 q 623 404 626 410 q 616 393 621 398 q 590 386 604 384 q 558 389 575 387 q 517 391 541 390 q 411 393 448 393 q 410 298 410 350 z "},"":{"ha":271,"x_min":109,"x_max":184,"o":"m 147 -147 q 113 -88 109 -147 q 119 102 119 3 q 113 357 119 289 q 109 435 106 425 q 118 453 112 446 q 146 467 130 467 q 175 453 163 467 q 184 412 186 439 q 172 157 172 231 q 172 56 172 83 q 174 1 173 28 q 180 -92 178 -59 q 172 -136 183 -125 q 147 -147 161 -147 m 147 644 q 113 703 109 644 q 119 900 119 794 q 113 1161 119 1093 q 109 1239 106 1229 q 118 1257 112 1250 q 146 1272 130 1272 q 174 1257 162 1272 q 184 1215 186 1243 q 172 945 172 1036 q 182 687 172 793 q 172 654 183 665 q 147 644 161 644 z "},"":{"ha":598,"x_min":81,"x_max":524,"o":"m 463 668 q 475 650 463 668 q 503 586 488 632 q 518 481 518 540 q 501 378 518 422 q 458 303 484 334 q 410 257 435 274 q 448 214 430 237 q 509 33 506 138 q 449 -152 510 -77 q 299 -229 388 -227 q 160 -172 220 -230 q 94 12 92 -108 q 144 79 94 78 q 169 66 158 79 q 176 31 180 52 q 174 -7 173 9 q 175 -46 174 -24 q 184 -93 175 -68 q 210 -136 193 -117 q 291 -175 245 -176 q 365 -158 337 -175 q 411 -114 393 -142 q 446 7 446 -61 q 430 116 446 76 q 389 188 414 156 q 330 245 363 220 q 264 297 298 271 q 197 350 230 322 q 138 411 164 377 q 81 591 82 488 q 138 762 81 690 q 187 808 161 792 q 208 819 198 814 q 164 865 184 840 q 109 1037 111 935 q 172 1220 108 1146 q 325 1293 234 1291 q 461 1240 406 1294 q 524 1059 527 1176 q 473 986 524 987 q 448 1038 441 985 q 450 1073 450 1055 q 449 1112 450 1090 q 440 1158 449 1134 q 414 1199 431 1181 q 335 1237 378 1238 q 262 1220 291 1236 q 212 1177 233 1204 q 169 1057 169 1122 q 184 956 169 993 q 224 888 199 918 q 279 834 248 859 q 343 784 311 809 q 408 732 376 760 q 463 668 439 704 m 366 294 q 407 331 387 309 q 457 456 457 389 q 443 566 457 523 q 404 644 428 610 q 348 704 379 677 q 284 755 317 730 q 249 783 267 769 q 228 772 239 780 q 186 734 205 758 q 141 611 140 675 q 157 508 141 547 q 198 436 172 468 q 256 379 223 405 q 322 328 288 353 q 366 294 345 312 z "},"":{"ha":446,"x_min":82,"x_max":366,"o":"m 349 709 q 353 706 349 709 q 362 693 357 703 q 366 669 367 683 q 359 644 365 654 q 345 628 353 634 q 309 616 329 616 q 272 630 288 616 q 255 663 255 644 q 260 693 255 683 q 273 709 265 703 q 306 723 290 723 q 331 720 321 723 q 349 709 341 716 m 176 709 q 180 706 176 709 q 189 693 184 703 q 192 669 193 683 q 186 644 191 654 q 172 628 180 634 q 136 616 156 616 q 99 630 115 616 q 82 663 82 644 q 87 693 82 683 q 100 709 92 703 q 132 723 115 723 q 158 720 148 723 q 176 709 168 716 z "},"":{"ha":886,"x_min":60,"x_max":794,"o":"m 446 992 q 606 728 618 992 q 570 680 604 680 q 541 724 541 680 q 537 867 560 808 q 444 933 511 933 q 338 814 378 933 q 302 579 302 708 q 312 379 302 451 q 338 262 321 307 q 439 176 372 176 q 519 220 492 176 q 541 339 546 264 q 564 379 541 371 q 594 372 582 385 q 606 323 606 358 q 592 248 606 289 q 555 176 578 206 q 437 113 506 113 q 295 220 348 113 q 239 546 239 334 q 300 882 239 762 q 446 992 357 992 m 534 1086 q 437 1108 491 1108 q 340 1087 384 1108 q 261 1029 296 1067 q 200 940 227 992 q 157 826 174 888 q 122 570 122 699 q 135 361 122 441 q 169 221 147 281 q 221 120 191 161 q 286 53 251 78 q 437 4 353 4 q 642 127 562 4 q 734 557 734 271 q 669 935 734 785 q 534 1086 620 1043 m 431 -56 q 276 -17 345 -56 q 159 99 207 22 q 60 565 60 258 q 161 991 60 819 q 323 1146 227 1103 q 425 1167 371 1167 q 702 1002 606 1167 q 794 572 791 848 q 700 117 795 286 q 431 -56 603 -56 z "},"":{"ha":479,"x_min":63,"x_max":412,"o":"m 353 907 l 350 958 q 336 964 343 961 l 336 1036 q 280 1146 336 1124 q 246 1153 263 1153 q 214 1146 229 1153 q 187 1128 199 1140 q 159 1073 159 1101 q 149 1034 159 1044 q 125 1025 138 1024 q 101 1038 112 1027 q 91 1073 90 1049 q 105 1122 92 1097 q 140 1166 119 1147 q 252 1207 188 1207 q 381 1116 350 1207 q 393 1040 393 1082 l 393 968 l 393 854 l 393 793 q 402 724 393 747 q 412 691 412 701 q 402 674 412 682 q 379 665 392 665 q 338 726 338 665 l 338 749 q 349 767 345 759 q 346 806 349 780 q 341 865 341 852 q 336 837 340 850 l 336 915 q 353 907 346 911 m 336 915 l 336 964 q 271 975 307 975 q 191 964 227 975 q 127 930 155 953 q 63 798 63 880 q 102 701 63 739 q 199 665 140 665 q 326 734 270 665 q 338 749 332 742 l 336 809 l 336 837 q 313 786 330 810 q 212 715 264 715 q 151 741 174 715 q 128 800 128 766 q 140 856 128 833 q 170 892 151 878 q 269 924 209 924 q 336 915 311 924 z "},"":{"ha":640,"x_min":102,"x_max":532,"o":"m 528 37 q 528 29 528 37 q 517 12 528 22 q 487 3 505 3 q 456 31 468 3 q 429 89 444 60 q 397 142 413 118 q 343 208 363 192 q 312 258 312 231 q 326 296 312 285 q 356 326 340 307 q 391 370 372 345 q 450 466 435 432 q 476 507 465 499 q 498 515 486 515 q 521 504 511 515 q 532 481 532 493 q 517 442 532 458 q 480 400 502 426 q 439 349 459 375 q 390 262 390 282 q 477 113 390 225 q 513 69 498 85 q 528 37 528 52 m 319 37 q 319 30 319 37 q 307 12 319 22 q 277 3 296 3 q 247 31 258 3 q 219 89 235 60 q 187 142 203 118 q 134 207 155 191 q 102 258 102 231 q 116 295 102 284 q 147 326 131 307 q 181 370 163 345 q 240 466 226 432 q 266 507 255 499 q 289 515 277 515 q 312 504 301 515 q 322 481 322 493 q 307 442 322 458 q 271 400 292 426 q 229 349 250 375 q 180 262 180 284 q 267 113 180 227 q 303 69 288 85 q 319 37 319 53 z "},"":{"ha":621,"x_min":81,"x_max":540,"o":"m 309 328 l 492 334 q 539 292 539 333 l 532 228 q 540 136 532 193 q 531 102 543 113 q 505 91 519 91 q 478 102 490 91 q 468 131 466 113 q 472 168 470 149 q 475 202 475 187 q 474 227 475 217 q 473 247 474 236 q 472 267 473 258 q 471 271 471 269 l 343 271 q 124 263 239 271 q 91 273 102 262 q 81 298 81 284 q 92 324 81 312 q 130 334 102 336 q 309 328 191 328 z "},"":{"ha":899,"x_min":0,"x_max":0,"o":""},"":{"ha":858,"x_min":64,"x_max":794,"o":"m 532 757 q 432 926 532 926 q 351 919 382 926 l 352 779 q 355 437 352 578 q 511 634 462 504 q 532 757 532 689 m 300 319 q 283 932 300 678 q 317 966 283 964 q 340 971 325 967 q 426 983 385 983 q 498 970 468 983 q 549 930 528 958 q 595 766 595 874 q 517 526 595 650 q 470 462 495 491 q 521 321 486 404 q 575 190 565 214 q 584 156 585 165 q 579 140 583 147 q 556 123 570 123 q 519 151 527 123 q 431 424 470 323 l 427 421 q 352 374 384 387 q 358 214 351 262 q 365 149 365 161 q 357 125 365 136 q 335 115 349 115 q 310 125 321 115 q 298 151 298 135 l 300 319 m 534 1073 q 437 1095 491 1095 q 340 1074 384 1095 q 262 1016 296 1053 q 201 927 227 979 q 157 812 175 875 q 123 558 123 688 q 136 348 123 428 q 170 208 149 268 q 222 106 192 148 q 286 39 252 64 q 437 -9 353 -9 q 640 114 562 -9 q 730 543 730 257 q 666 921 730 772 q 534 1073 619 1029 m 428 -69 q 340 -69 428 -69 q 158 89 252 -69 q 64 559 64 247 q 165 981 64 809 q 326 1133 229 1090 q 425 1154 372 1154 q 700 989 604 1154 q 794 559 791 833 q 700 103 795 273 q 428 -69 603 -69 z "},"":{"ha":393,"x_min":67,"x_max":328,"o":"m 67 888 q 67 896 67 888 q 78 916 67 904 q 117 924 89 928 q 193 920 144 920 q 274 924 242 920 q 316 915 305 927 q 328 890 328 903 q 317 865 328 876 q 286 854 307 853 q 240 858 264 856 q 193 859 216 859 q 129 856 158 859 q 92 856 100 853 q 78 863 83 858 q 67 888 67 873 z "},"":{"ha":389,"x_min":45,"x_max":342,"o":"m 103 988 q 189 838 103 838 q 259 878 234 838 q 285 980 285 918 q 278 1074 285 1043 q 258 1122 271 1105 q 194 1150 238 1150 q 109 1054 129 1150 q 103 988 103 1024 m 93 1154 q 103 1167 93 1154 q 141 1193 114 1181 q 198 1206 168 1205 q 255 1196 229 1206 q 301 1161 282 1185 q 342 994 342 1109 q 300 842 342 899 q 185 785 257 785 q 56 894 86 785 q 45 988 45 932 q 58 1086 45 1044 q 93 1154 71 1128 z "},"":{"ha":604,"x_min":73,"x_max":531,"o":"m 117 79 q 293 73 179 73 q 487 78 408 73 q 520 67 509 79 q 531 41 531 55 q 520 16 531 27 q 479 8 510 5 q 340 16 406 16 q 117 7 232 16 q 84 17 94 6 q 73 42 73 28 q 84 68 73 56 q 117 79 95 80 m 271 359 q 117 351 218 357 q 84 360 94 349 q 73 386 73 372 q 84 412 73 400 q 113 422 95 423 q 151 419 132 420 q 191 418 170 418 q 271 416 243 416 q 266 571 271 452 q 276 604 264 593 q 302 614 288 614 q 327 604 316 614 q 336 575 338 594 q 333 535 334 557 q 331 489 332 513 q 328 416 329 444 q 487 421 408 416 q 520 411 509 422 q 531 385 531 399 q 520 360 531 371 q 480 351 510 349 q 328 359 399 358 q 336 201 329 292 q 327 168 338 178 q 301 157 315 157 q 275 168 287 157 q 265 196 264 179 q 267 236 266 214 q 270 283 269 258 q 271 359 271 317 z "},"":{"ha":470,"x_min":79,"x_max":394,"o":"m 241 1200 q 391 1014 391 1200 q 270 754 391 905 q 171 618 193 657 q 149 555 149 578 q 155 526 149 532 q 177 523 161 520 q 210 529 193 526 q 244 534 227 532 q 306 541 291 541 q 360 537 343 541 q 385 524 376 534 q 394 502 394 514 q 385 479 394 489 q 357 469 376 469 l 239 472 q 137 467 168 472 q 79 506 79 457 q 97 598 79 554 q 144 683 116 642 q 204 763 172 724 q 265 843 237 803 q 330 1010 330 937 q 246 1143 330 1143 q 177 1103 201 1143 q 153 987 153 1063 q 142 958 153 966 q 119 949 132 949 q 87 997 87 949 q 100 1084 87 1046 q 134 1149 113 1123 q 241 1200 176 1200 z "},"":{"ha":517,"x_min":85,"x_max":409,"o":"m 232 825 q 313 905 278 842 q 347 1022 347 966 q 321 1114 347 1079 q 249 1149 294 1149 q 179 1117 203 1149 q 155 1024 155 1084 q 144 994 155 1003 q 121 985 134 985 q 97 997 109 985 q 85 1042 85 1009 q 99 1108 85 1076 q 136 1164 113 1141 q 232 1208 181 1208 q 313 1195 283 1208 q 363 1158 343 1182 q 403 1024 403 1110 q 368 895 403 964 q 278 795 334 827 q 355 762 321 791 q 409 640 409 719 q 362 510 409 559 q 244 461 316 461 q 126 503 172 461 q 87 605 83 544 q 100 637 89 626 q 125 648 111 648 q 150 636 139 648 q 158 605 160 625 q 162 568 156 584 q 179 539 168 551 q 239 512 205 512 q 294 523 273 512 q 327 552 314 534 q 351 640 351 586 q 315 720 351 691 q 218 740 277 751 q 190 745 199 736 q 175 776 175 760 q 188 806 175 792 q 232 825 201 820 z "},"":{"ha":299,"x_min":81,"x_max":260,"o":"m 102 640 q 187 737 164 707 q 258 777 229 794 q 260 724 286 758 q 220 680 241 700 q 155 614 171 632 q 129 588 140 597 q 109 580 119 580 q 90 586 98 580 q 81 605 81 593 q 102 640 81 618 z "},"":{"ha":576,"x_min":0,"x_max":549,"o":"m 116 51 q 83 -144 92 -64 q 68 -269 73 -233 q 51 -313 64 -304 q 24 -319 37 -322 q 0 -273 -10 -313 q 37 -98 20 -196 q 67 66 55 1 q 91 195 79 131 q 136 463 119 353 q 154 495 140 486 q 182 501 168 504 q 207 454 217 494 q 192 393 201 427 q 176 323 184 359 q 152 197 155 235 q 151 133 149 159 q 160 86 153 106 q 221 44 177 44 q 338 178 306 44 q 410 463 374 321 q 454 502 421 507 q 475 487 467 498 q 476 446 484 475 q 455 378 468 416 q 431 299 443 340 q 390 62 374 110 q 417 39 398 39 q 448 44 436 39 q 467 57 459 50 q 486 85 478 68 q 516 113 500 113 q 549 84 549 113 q 505 18 549 50 q 418 -15 460 -15 q 361 3 377 -15 q 339 71 339 28 q 267 -4 313 18 q 213 -15 243 -15 q 164 -5 183 -15 q 133 19 144 4 q 116 51 122 33 z "},"":{"ha":871,"x_min":112,"x_max":781,"o":"m 412 570 q 415 838 415 697 q 409 1144 415 979 q 212 1014 275 1144 q 175 852 175 937 q 338 580 175 630 q 412 570 371 570 m 574 1148 l 484 1147 q 480 620 480 905 l 480 -28 q 386 -229 480 -193 q 333 -240 358 -240 q 287 -233 309 -240 q 247 -213 265 -226 q 204 -142 204 -182 q 213 -120 204 -128 q 233 -111 222 -111 q 264 -125 257 -111 q 277 -148 272 -138 q 289 -165 281 -157 q 340 -184 307 -184 q 413 -17 406 -184 q 416 136 416 76 l 416 243 l 416 509 q 184 617 265 512 q 112 857 112 711 q 191 1097 112 1000 q 422 1207 278 1207 l 604 1202 q 718 1205 677 1202 q 781 1175 781 1209 q 770 1155 781 1164 q 743 1146 760 1145 q 711 1148 726 1147 q 681 1148 696 1148 q 652 1149 666 1149 l 646 1149 q 642 791 642 1038 l 642 124 q 646 -197 642 -54 q 634 -232 646 -220 q 607 -243 623 -243 q 581 -232 591 -243 q 572 -184 570 -222 q 575 -78 573 -146 q 580 77 578 -9 q 584 423 584 248 q 584 700 584 598 q 582 892 583 802 q 574 1148 580 1067 z "},"":{"ha":310,"x_min":94,"x_max":216,"o":"m 196 478 q 200 475 196 478 q 210 460 205 471 q 216 434 216 450 q 210 407 216 418 q 194 389 203 396 q 151 377 176 377 q 99 410 115 377 q 94 435 94 420 q 134 489 94 475 q 155 492 144 492 q 176 489 165 492 q 196 478 187 486 z "},"":{"ha":335,"x_min":62,"x_max":271,"o":"m 190 -273 q 197 -267 190 -273 q 212 -248 203 -262 q 221 -213 221 -234 q 211 -177 221 -193 q 184 -161 200 -161 q 159 -164 168 -161 q 142 -173 150 -168 q 104 -185 121 -185 q 75 -177 88 -185 q 62 -154 62 -168 q 67 -126 62 -140 q 79 -92 71 -112 q 98 -44 87 -72 q 123 21 109 -17 l 170 24 q 155 -34 170 8 l 132 -99 q 123 -129 127 -115 q 159 -115 140 -119 q 195 -110 182 -109 q 221 -116 207 -111 q 245 -134 235 -122 q 270 -202 271 -162 q 256 -270 269 -243 q 223 -319 243 -298 q 129 -368 178 -368 q 104 -359 113 -368 q 96 -338 96 -349 q 104 -314 96 -327 q 129 -299 113 -302 q 161 -290 145 -297 q 190 -273 177 -283 z "},"":{"ha":355,"x_min":60,"x_max":233,"o":"m 207 1198 q 233 1159 235 1198 q 231 1070 232 1120 q 229 962 229 1020 q 228 840 228 903 q 227 718 227 777 q 229 537 227 576 q 228 490 231 498 q 219 476 224 481 q 194 464 208 464 q 169 474 180 464 q 160 508 159 484 q 164 563 162 531 q 167 631 165 595 q 170 768 170 720 q 171 865 170 817 q 174 962 172 914 q 176 1107 175 1053 q 165 1093 171 1100 q 126 1043 142 1059 q 95 1026 111 1026 q 70 1038 79 1026 q 60 1066 60 1050 q 78 1099 60 1083 q 109 1126 96 1116 q 130 1145 121 1137 q 147 1160 139 1153 q 165 1179 155 1168 q 207 1198 185 1198 z "},"":{"ha":513,"x_min":77,"x_max":440,"o":"m 350 1094 q 343 1107 350 1094 q 315 1135 336 1120 q 263 1149 294 1149 q 210 1134 233 1149 q 170 1089 186 1118 q 139 930 139 1031 q 205 745 139 777 q 257 734 227 734 q 310 751 287 734 q 349 799 333 769 q 378 925 378 857 q 371 1030 378 993 q 350 1094 363 1067 m 385 745 q 372 728 385 745 q 326 694 359 711 q 253 676 292 677 q 182 691 215 675 q 126 739 150 706 q 77 947 77 809 q 130 1139 77 1070 q 271 1204 182 1204 q 427 1066 391 1204 q 440 951 440 1019 q 425 831 440 884 q 385 745 410 779 z "},"":{"ha":633,"x_min":109,"x_max":532,"o":"m 389 37 q 352 3 375 3 q 327 12 338 3 q 315 33 315 22 q 330 70 315 54 q 367 113 345 85 q 407 169 388 140 q 453 256 453 238 q 439 300 453 274 q 404 353 425 326 q 350 417 380 383 q 315 460 319 451 q 311 481 311 469 q 322 504 311 493 q 345 515 332 515 q 386 481 370 515 q 500 313 412 425 q 511 300 509 302 q 532 265 532 284 q 513 217 532 231 q 479 185 495 204 q 446 142 463 167 q 389 37 412 91 m 186 37 q 149 3 172 3 q 123 12 135 3 q 112 37 112 22 q 127 69 112 53 q 163 113 142 85 q 203 169 184 140 q 250 256 250 237 q 236 300 250 274 q 201 352 221 326 q 159 402 181 378 q 127 438 138 426 q 109 476 109 460 q 119 504 109 493 q 141 515 129 515 q 183 481 168 515 q 241 390 193 456 q 309 300 298 310 q 328 265 328 284 q 310 217 328 230 q 276 185 292 204 q 243 142 260 167 q 186 37 209 91 z "},"":{"ha":937,"x_min":82,"x_max":876,"o":"m 800 693 l 793 324 l 793 282 l 816 282 q 841 283 829 282 q 865 274 854 284 q 876 252 876 264 q 866 229 876 239 q 844 218 856 218 q 825 219 833 218 q 809 219 818 219 q 793 220 801 220 q 793 220 793 220 l 793 155 l 798 43 q 772 3 798 12 q 758 1 765 1 q 730 43 730 1 l 735 137 q 736 186 735 161 q 738 223 738 203 q 683 225 715 225 l 557 215 q 522 225 533 215 q 511 248 511 235 q 520 276 511 261 q 540 316 528 291 q 567 375 552 342 q 601 450 583 409 q 638 534 618 490 q 733 725 720 713 q 757 737 746 738 q 776 732 768 736 q 789 722 783 728 q 800 693 800 709 m 248 151 q 208 124 233 121 q 190 135 197 125 q 185 158 183 145 q 208 203 188 170 q 267 312 227 237 q 350 471 307 387 q 434 643 392 555 q 515 814 477 731 q 640 1102 600 998 q 688 1135 656 1141 q 706 1124 699 1134 q 711 1103 713 1114 q 690 1055 709 1088 q 636 952 672 1022 q 562 802 601 882 q 481 635 523 722 q 399 463 440 549 q 248 151 304 264 m 229 1198 q 256 1159 257 1198 q 253 1070 254 1120 q 251 962 252 1020 q 250 840 250 903 q 250 718 250 777 q 252 537 250 576 q 250 490 254 498 q 241 476 247 481 q 216 464 231 464 q 192 474 202 464 q 183 508 181 484 q 186 563 184 531 q 189 631 188 595 q 193 768 193 720 q 194 865 193 817 q 195 962 195 914 q 198 1106 197 1053 q 189 1093 193 1100 q 149 1043 164 1059 q 118 1026 134 1026 q 92 1038 102 1026 q 82 1066 82 1050 q 100 1099 82 1083 q 131 1126 119 1116 q 153 1145 144 1137 q 169 1160 161 1153 q 188 1179 177 1168 q 229 1198 208 1198 m 734 279 l 739 477 q 740 518 739 492 q 741 572 741 545 q 743 620 742 600 q 743 650 743 640 q 677 490 716 578 q 623 369 637 403 q 583 275 593 302 q 604 275 593 275 q 633 275 621 275 q 659 275 646 275 q 686 277 672 276 q 734 279 717 279 z "},"":{"ha":1052,"x_min":119,"x_max":909,"o":"m 756 732 q 905 539 905 732 q 784 290 905 443 q 686 154 709 196 q 663 88 663 111 q 669 59 663 65 q 691 55 675 52 q 724 61 707 58 q 758 66 741 64 q 821 73 806 73 q 897 59 885 73 q 909 34 909 46 q 900 11 909 21 q 871 1 890 1 l 754 3 q 652 -1 682 3 q 593 38 593 -11 q 611 130 593 86 q 658 216 630 174 q 719 297 686 258 q 779 376 751 337 q 844 534 844 469 q 760 675 844 675 q 691 635 715 675 q 667 519 667 595 q 634 481 667 481 q 602 530 602 481 q 615 616 602 578 q 648 681 627 655 q 756 732 692 732 m 275 151 q 235 124 260 121 q 217 135 224 125 q 212 158 210 145 q 234 203 214 170 q 294 312 254 237 q 376 471 334 387 q 461 643 418 555 q 541 814 503 731 q 666 1102 626 998 q 714 1135 682 1141 q 732 1124 725 1134 q 738 1103 739 1114 q 717 1055 735 1088 q 663 952 699 1022 q 588 802 627 882 q 508 635 549 722 q 426 463 467 549 q 275 151 331 264 m 267 1198 q 293 1159 294 1198 q 290 1070 292 1120 q 288 962 289 1020 q 287 840 288 903 q 287 718 287 777 q 289 537 287 576 q 288 490 291 498 q 279 476 284 481 q 254 464 268 464 q 229 474 239 464 q 220 508 218 484 q 223 563 222 531 q 227 631 225 595 q 230 768 230 720 q 231 865 230 817 q 233 962 232 914 q 235 1107 235 1053 q 225 1093 231 1100 q 186 1043 201 1059 q 155 1026 171 1026 q 129 1038 139 1026 q 119 1066 119 1050 q 138 1099 119 1083 q 169 1126 156 1116 q 190 1145 181 1137 q 207 1160 199 1153 q 225 1179 214 1168 q 267 1198 245 1198 z "},"":{"ha":1030,"x_min":85,"x_max":977,"o":"m 232 825 q 312 905 277 842 q 344 1022 344 964 q 319 1115 344 1080 q 249 1149 294 1149 q 179 1117 203 1149 q 155 1024 155 1084 q 144 994 155 1003 q 121 985 134 985 q 97 997 109 985 q 85 1042 85 1009 q 99 1108 85 1076 q 136 1164 113 1141 q 232 1208 181 1208 q 313 1195 283 1208 q 363 1158 343 1182 q 403 1024 403 1110 q 368 895 403 964 q 278 795 334 827 q 355 762 321 791 q 409 640 409 719 q 361 509 409 559 q 241 458 313 458 q 125 502 168 458 q 87 605 83 545 q 100 637 89 626 q 125 648 111 648 q 150 636 139 648 q 158 605 160 625 q 162 568 156 584 q 179 539 168 551 q 239 512 205 512 q 294 523 273 512 q 327 552 314 534 q 351 640 351 586 q 315 720 351 691 q 218 740 277 751 q 190 745 199 736 q 175 776 175 760 q 188 806 175 792 q 232 825 201 820 m 378 151 q 338 124 363 121 q 320 136 327 125 q 323 179 307 155 q 645 814 453 401 q 770 1102 728 994 q 817 1135 786 1141 q 836 1124 829 1134 q 841 1103 843 1114 q 821 1055 839 1088 q 767 952 802 1022 q 692 802 731 882 q 611 635 652 722 q 530 463 570 549 q 378 151 435 264 m 901 693 l 894 324 l 894 282 l 917 282 q 942 283 930 282 q 966 274 955 284 q 977 252 977 264 q 967 229 977 239 q 945 218 957 218 q 926 219 934 218 q 910 219 918 219 q 894 220 901 220 q 893 155 893 184 l 899 43 q 885 10 899 20 q 859 1 872 1 q 831 43 831 1 l 836 137 q 838 186 836 161 q 839 223 839 203 q 783 225 816 225 l 657 215 q 623 225 633 215 q 612 249 612 235 q 621 277 612 262 q 641 316 629 291 q 668 375 652 342 q 701 450 683 409 q 739 534 720 490 q 821 707 778 619 q 876 732 844 750 q 901 693 901 719 m 684 275 q 709 275 695 275 l 740 275 q 777 277 753 275 q 835 279 817 279 l 840 477 q 841 518 840 492 q 842 572 842 545 q 844 620 843 600 q 844 650 844 640 q 778 490 817 578 q 724 369 739 403 q 684 275 694 302 z "},"":{"ha":596,"x_min":279,"x_max":401,"o":"m 381 1054 q 386 1050 381 1054 q 395 1036 390 1046 q 401 1009 401 1025 q 395 982 401 994 q 379 964 389 971 q 336 952 361 952 q 284 985 300 952 q 279 1010 279 996 q 319 1064 279 1050 q 340 1067 330 1067 q 361 1064 351 1067 q 381 1054 372 1061 z "},"":{"ha":633,"x_min":35,"x_max":589,"o":"m 312 1099 q 342 1086 328 1099 q 363 1029 355 1072 q 387 906 371 986 q 422 735 403 826 q 464 548 442 644 q 507 360 486 451 q 589 49 559 147 q 585 9 595 24 q 562 -6 574 -6 q 538 1 549 -6 q 519 45 528 9 q 493 164 511 82 q 454 340 475 246 q 452 348 453 345 q 322 350 406 350 q 171 347 223 350 q 170 339 170 343 q 109 31 128 140 q 73 -4 102 -4 q 35 26 42 -4 q 39 54 33 35 q 57 119 45 73 q 83 225 69 165 q 113 357 97 286 q 144 503 128 428 q 177 655 161 578 q 208 802 193 731 q 236 936 223 873 q 258 1035 250 998 q 312 1099 271 1099 m 184 410 q 323 408 235 408 q 439 410 395 408 q 410 536 425 471 q 368 732 388 637 q 309 1005 334 888 q 264 793 294 927 q 207 520 227 614 q 184 410 195 464 m 170 1299 q 178 1301 170 1299 q 200 1297 186 1302 q 244 1271 215 1291 q 301 1237 274 1251 q 345 1215 328 1223 q 371 1199 362 1206 q 383 1179 380 1192 q 361 1148 388 1154 q 316 1160 345 1145 q 257 1186 287 1174 q 203 1210 228 1198 q 142 1253 144 1236 q 147 1283 140 1270 q 170 1299 155 1296 z "},"":{"ha":633,"x_min":35,"x_max":589,"o":"m 312 1099 q 342 1086 328 1099 q 363 1029 355 1072 q 387 906 371 986 q 422 735 403 826 q 464 548 442 644 q 507 360 486 451 q 589 49 559 147 q 585 9 595 24 q 562 -6 574 -6 q 538 1 549 -6 q 519 45 528 9 q 493 164 511 82 q 454 340 475 246 q 452 348 453 345 q 322 350 406 350 q 171 347 223 350 q 170 339 170 343 q 109 31 128 140 q 73 -4 102 -4 q 35 26 42 -4 q 39 54 33 35 q 57 119 45 73 q 83 225 69 165 q 113 357 97 286 q 144 503 128 428 q 177 655 161 578 q 208 802 193 731 q 236 936 223 873 q 258 1035 250 998 q 312 1099 271 1099 m 184 410 q 323 408 235 408 q 439 410 395 408 q 410 536 425 471 q 368 732 388 637 q 309 1005 334 888 q 264 793 294 927 q 207 520 227 614 q 184 410 195 464 m 297 1213 q 306 1218 297 1213 q 339 1239 315 1224 q 393 1278 363 1253 q 443 1299 422 1303 q 471 1282 463 1295 q 454 1230 488 1255 q 391 1196 439 1219 q 325 1161 344 1173 q 296 1145 306 1149 q 273 1143 286 1141 q 252 1171 248 1147 q 266 1192 254 1183 q 297 1213 278 1202 z "},"":{"ha":633,"x_min":35,"x_max":589,"o":"m 312 1099 q 342 1086 328 1099 q 363 1029 355 1072 q 387 906 371 986 q 422 735 403 826 q 464 548 442 644 q 507 360 486 451 q 589 49 559 147 q 585 9 595 24 q 562 -6 574 -6 q 538 1 549 -6 q 519 45 528 9 q 493 164 511 82 q 454 340 475 246 q 452 348 453 345 q 322 350 406 350 q 171 347 223 350 q 170 339 170 343 q 109 31 128 140 q 73 -4 102 -4 q 35 26 42 -4 q 39 54 33 35 q 57 119 45 73 q 83 225 69 165 q 113 357 97 286 q 144 503 128 428 q 177 655 161 578 q 208 802 193 731 q 236 936 223 873 q 258 1035 250 998 q 312 1099 271 1099 m 184 410 q 323 408 235 408 q 439 410 395 408 q 410 536 425 471 q 368 732 388 637 q 309 1005 334 888 q 264 793 294 927 q 207 520 227 614 q 184 410 195 464 m 356 1270 q 450 1200 386 1231 q 480 1160 480 1186 q 470 1139 480 1147 q 448 1131 460 1131 q 413 1144 427 1131 q 388 1170 399 1158 q 361 1196 376 1182 q 317 1236 336 1219 q 281 1205 298 1219 q 218 1153 231 1166 q 179 1131 195 1131 q 155 1139 163 1131 q 146 1159 146 1147 q 163 1194 146 1184 q 195 1212 180 1204 q 223 1230 210 1221 q 268 1267 256 1252 q 310 1300 294 1300 q 336 1291 326 1300 q 356 1270 347 1282 z "},"":{"ha":633,"x_min":35,"x_max":589,"o":"m 312 1099 q 342 1086 328 1099 q 363 1029 355 1072 q 387 906 371 986 q 422 735 403 826 q 464 548 442 644 q 507 360 486 451 q 589 49 559 147 q 585 9 595 24 q 562 -6 574 -6 q 538 1 549 -6 q 519 45 528 9 q 493 164 511 82 q 454 340 475 246 q 452 348 453 345 q 322 350 406 350 q 171 347 223 350 q 170 339 170 343 q 109 31 128 140 q 73 -4 102 -4 q 35 26 42 -4 q 39 54 33 35 q 57 119 45 73 q 83 225 69 165 q 113 357 97 286 q 144 503 128 428 q 177 655 161 578 q 208 802 193 731 q 236 936 223 873 q 258 1035 250 998 q 312 1099 271 1099 m 184 410 q 323 408 235 408 q 439 410 395 408 q 410 536 425 471 q 368 732 388 637 q 309 1005 334 888 q 264 793 294 927 q 207 520 227 614 q 184 410 195 464 m 428 1259 q 466 1301 441 1301 q 487 1292 477 1301 q 496 1266 496 1283 q 488 1232 496 1249 q 465 1202 479 1215 q 403 1175 434 1175 q 356 1185 372 1175 q 326 1206 340 1194 q 296 1227 311 1217 q 262 1238 280 1237 q 216 1215 224 1240 q 175 1169 199 1169 q 154 1178 163 1169 q 144 1205 144 1187 q 154 1240 144 1223 q 179 1270 163 1257 q 245 1296 212 1296 q 295 1286 278 1296 q 327 1265 313 1277 q 428 1259 400 1206 z "},"":{"ha":633,"x_min":35,"x_max":589,"o":"m 312 1099 q 342 1086 328 1099 q 363 1029 355 1072 q 387 906 371 986 q 422 735 403 826 q 464 548 442 644 q 507 360 486 451 q 589 49 559 147 q 585 9 595 24 q 562 -6 574 -6 q 538 1 549 -6 q 519 45 528 9 q 493 164 511 82 q 454 340 475 246 q 452 348 453 345 q 322 350 406 350 q 171 347 223 350 q 170 339 170 343 q 109 31 128 140 q 73 -4 102 -4 q 35 26 42 -4 q 39 54 33 35 q 57 119 45 73 q 83 225 69 165 q 113 357 97 286 q 144 503 128 428 q 177 655 161 578 q 208 802 193 731 q 236 936 223 873 q 258 1035 250 998 q 312 1099 271 1099 m 184 410 q 323 408 235 408 q 439 410 395 408 q 410 536 425 471 q 368 732 388 637 q 309 1005 334 888 q 264 793 294 927 q 207 520 227 614 q 184 410 195 464 m 451 1286 q 456 1283 451 1286 q 465 1269 460 1280 q 469 1244 470 1259 q 462 1219 468 1230 q 447 1202 456 1208 q 414 1190 431 1190 q 387 1193 397 1190 q 370 1203 378 1196 q 353 1239 353 1219 q 358 1269 353 1259 q 372 1286 363 1280 q 406 1301 389 1301 q 432 1297 422 1301 q 451 1286 443 1293 m 250 1290 q 257 1285 250 1290 q 269 1269 264 1280 q 272 1244 273 1259 q 266 1219 271 1230 q 251 1202 260 1208 q 217 1190 234 1190 q 191 1193 201 1190 q 174 1203 181 1196 q 157 1239 157 1219 q 162 1269 157 1259 q 175 1286 167 1280 q 215 1301 193 1301 q 250 1290 237 1301 z "},"":{"ha":633,"x_min":35,"x_max":589,"o":"m 312 1099 q 342 1086 328 1099 q 363 1029 355 1072 q 387 906 371 986 q 422 735 403 826 q 464 548 442 644 q 507 360 486 451 q 589 49 559 147 q 585 9 595 24 q 562 -6 574 -6 q 538 1 549 -6 q 519 45 528 9 q 493 164 511 82 q 454 340 475 246 q 452 348 453 345 q 322 350 406 350 q 171 347 223 350 q 170 339 170 343 q 109 31 128 140 q 73 -4 102 -4 q 35 26 42 -4 q 39 54 33 35 q 57 119 45 73 q 83 225 69 165 q 113 357 97 286 q 144 503 128 428 q 177 655 161 578 q 208 802 193 731 q 236 936 223 873 q 258 1035 250 998 q 312 1099 271 1099 m 184 410 q 323 408 235 408 q 439 410 395 408 q 410 536 425 471 q 368 732 388 637 q 309 1005 334 888 q 264 793 294 927 q 207 520 227 614 q 184 410 195 464 m 245 1173 q 310 1103 245 1103 q 359 1125 340 1103 q 378 1180 378 1147 q 358 1229 378 1213 q 317 1246 339 1246 q 283 1239 295 1246 q 262 1222 271 1232 q 245 1173 245 1200 m 229 1264 q 237 1272 229 1264 q 268 1291 245 1281 q 316 1301 290 1300 q 363 1292 341 1301 q 401 1265 385 1283 q 434 1170 434 1230 q 398 1089 434 1124 q 307 1051 359 1051 q 225 1081 258 1051 q 192 1155 192 1112 q 202 1222 192 1197 q 229 1264 212 1246 z "},"":{"ha":858,"x_min":3,"x_max":842,"o":"m 452 402 l 462 855 q 458 1032 462 935 q 397 895 440 1004 q 327 714 349 772 q 283 602 304 657 q 245 500 262 546 q 217 425 229 455 q 209 402 212 411 l 452 402 m 517 58 q 743 64 688 58 q 812 67 802 70 q 827 58 821 64 q 842 32 842 46 q 829 6 842 17 q 793 -3 817 -4 q 595 0 680 6 q 495 -7 511 -5 q 467 0 480 -9 q 455 36 453 9 q 456 102 456 64 q 456 184 456 140 q 456 346 455 294 q 305 351 340 351 q 254 351 269 351 q 226 350 240 351 q 191 347 205 349 q 138 205 162 267 q 100 109 111 136 q 70 24 75 38 q 33 -5 61 -5 q 7 7 15 -5 q 3 50 -8 27 q 35 119 15 73 q 79 227 54 165 q 133 362 104 289 q 192 514 161 436 q 252 670 222 591 q 309 820 281 748 q 399 1057 361 959 q 457 1101 416 1101 l 581 1097 q 701 1101 670 1097 q 746 1093 732 1105 q 760 1066 760 1080 q 747 1041 760 1051 q 714 1031 735 1030 q 669 1034 692 1032 q 618 1036 645 1036 q 519 1036 562 1038 l 519 926 q 518 781 519 855 q 517 501 517 583 q 640 506 600 501 q 694 501 684 510 q 705 477 705 492 q 635 442 705 440 q 610 442 621 442 l 556 443 l 517 443 l 517 205 l 517 58 z "},"":{"ha":621,"x_min":65,"x_max":557,"o":"m 485 280 q 496 315 485 302 q 522 328 507 328 q 548 317 536 328 q 557 285 559 307 q 484 64 551 148 q 322 -16 419 -16 q 85 258 139 -16 q 65 497 65 359 q 82 742 65 634 q 134 928 99 849 q 344 1098 208 1098 q 500 1015 450 1098 q 554 724 554 926 q 544 691 554 702 q 519 680 534 680 q 488 719 488 680 q 408 1018 488 970 q 342 1035 380 1035 q 274 1014 304 1035 q 220 955 243 992 q 180 866 197 917 q 152 755 163 814 q 130 520 130 636 q 138 333 130 404 q 159 213 145 263 q 191 132 172 163 q 232 82 210 100 q 329 50 270 50 q 437 104 395 50 q 485 280 486 165 m 334 -273 q 341 -267 334 -273 q 356 -248 347 -262 q 365 -213 365 -234 q 354 -177 365 -193 q 328 -161 344 -161 q 303 -164 312 -161 q 286 -173 294 -168 q 248 -185 264 -185 q 219 -177 232 -185 q 206 -154 206 -168 q 211 -126 206 -140 q 223 -92 215 -112 q 242 -44 231 -72 q 267 21 253 -17 l 313 24 q 298 -34 313 8 l 276 -99 q 267 -129 271 -115 q 302 -115 284 -119 q 338 -110 326 -109 q 365 -116 351 -111 q 389 -134 378 -122 q 414 -202 415 -162 q 400 -270 413 -243 q 367 -319 387 -298 q 273 -368 321 -368 q 248 -359 257 -368 q 239 -338 239 -349 q 248 -314 239 -327 q 273 -299 257 -302 q 305 -290 289 -297 q 334 -273 321 -283 z "},"":{"ha":515,"x_min":103,"x_max":502,"o":"m 175 372 l 176 132 q 176 76 176 99 q 177 58 177 66 q 404 64 348 58 q 472 67 463 70 q 488 58 481 64 q 502 32 502 46 q 489 6 502 17 q 453 -3 476 -4 q 252 0 342 6 q 152 -7 163 -5 q 133 -7 141 -9 q 117 0 124 -5 q 103 34 102 12 q 113 468 113 230 q 114 767 113 705 q 114 879 114 828 q 109 1033 113 988 q 111 1087 106 1078 q 123 1100 116 1096 q 149 1102 134 1105 q 224 1097 178 1097 q 348 1101 315 1097 q 390 1102 380 1105 q 406 1093 399 1099 q 419 1067 419 1082 q 407 1041 419 1051 q 374 1032 395 1031 q 329 1035 353 1033 q 278 1038 305 1036 q 179 1036 221 1040 q 178 919 179 977 q 177 779 178 850 q 175 496 175 587 q 300 500 260 496 q 354 496 343 505 q 366 473 366 488 q 296 437 366 435 q 270 437 281 437 l 215 438 l 175 438 l 175 372 m 137 1299 q 145 1301 137 1299 q 167 1297 153 1302 q 211 1271 182 1291 q 268 1237 241 1251 q 312 1215 294 1223 q 338 1199 329 1206 q 350 1179 347 1192 q 328 1148 355 1154 q 282 1160 311 1145 q 224 1186 254 1174 q 170 1210 195 1198 q 109 1253 111 1236 q 114 1283 106 1270 q 137 1299 121 1296 z "},"":{"ha":515,"x_min":103,"x_max":502,"o":"m 175 372 l 176 132 q 176 76 176 99 q 177 58 177 66 q 404 64 348 58 q 472 67 463 70 q 488 58 481 64 q 502 32 502 46 q 489 6 502 17 q 453 -3 476 -4 q 252 0 342 6 q 152 -7 163 -5 q 133 -7 141 -9 q 117 0 124 -5 q 103 34 102 12 q 113 468 113 230 q 114 767 113 705 q 114 879 114 828 q 109 1033 113 988 q 111 1087 106 1078 q 123 1100 116 1096 q 149 1102 134 1105 q 224 1097 178 1097 q 348 1101 315 1097 q 390 1102 380 1105 q 406 1093 399 1099 q 419 1067 419 1082 q 407 1041 419 1051 q 374 1032 395 1031 q 329 1035 353 1033 q 278 1038 305 1036 q 179 1036 221 1040 q 178 919 179 977 q 177 779 178 850 q 175 496 175 587 q 300 500 260 496 q 354 496 343 505 q 366 473 366 488 q 296 437 366 435 q 270 437 281 437 l 215 438 l 175 438 l 175 372 m 263 1213 q 273 1218 263 1213 q 306 1239 282 1224 q 359 1278 330 1253 q 410 1299 389 1303 q 438 1282 430 1295 q 420 1230 455 1255 q 358 1196 406 1219 q 292 1161 311 1173 q 263 1145 273 1149 q 240 1143 253 1141 q 218 1171 215 1147 q 233 1192 220 1183 q 263 1213 245 1202 z "},"":{"ha":515,"x_min":103,"x_max":502,"o":"m 175 372 l 176 132 q 176 76 176 99 q 177 58 177 66 q 404 64 348 58 q 472 67 463 70 q 488 58 481 64 q 502 32 502 46 q 489 6 502 17 q 453 -3 476 -4 q 252 0 342 6 q 152 -7 163 -5 q 133 -7 141 -9 q 117 0 124 -5 q 103 34 102 12 q 113 468 113 230 q 114 767 113 705 q 114 879 114 828 q 109 1033 113 988 q 111 1087 106 1078 q 123 1100 116 1096 q 149 1102 134 1105 q 224 1097 178 1097 q 348 1101 315 1097 q 390 1102 380 1105 q 406 1093 399 1099 q 419 1067 419 1082 q 407 1041 419 1051 q 374 1032 395 1031 q 329 1035 353 1033 q 278 1038 305 1036 q 179 1036 221 1040 q 178 919 179 977 q 177 779 178 850 q 175 496 175 587 q 300 500 260 496 q 354 496 343 505 q 366 473 366 488 q 296 437 366 435 q 270 437 281 437 l 215 438 l 175 438 l 175 372 m 323 1270 q 417 1200 353 1231 q 447 1160 447 1186 q 437 1139 447 1147 q 414 1131 427 1131 q 380 1144 393 1131 q 354 1170 366 1158 q 328 1196 342 1182 q 284 1236 302 1219 q 248 1205 265 1219 q 184 1153 198 1166 q 146 1131 162 1131 q 121 1139 130 1131 q 113 1159 113 1147 q 130 1194 113 1184 q 161 1212 146 1204 q 190 1230 176 1221 q 235 1267 222 1252 q 277 1300 261 1300 q 303 1291 293 1300 q 323 1270 313 1282 z "},"":{"ha":515,"x_min":103,"x_max":502,"o":"m 175 372 l 176 132 q 176 76 176 99 q 177 58 177 66 q 404 64 348 58 q 472 67 463 70 q 488 58 481 64 q 502 32 502 46 q 489 6 502 17 q 453 -3 476 -4 q 252 0 342 6 q 152 -7 163 -5 q 133 -7 141 -9 q 117 0 124 -5 q 103 34 102 12 q 113 468 113 230 q 114 767 113 705 q 114 879 114 828 q 109 1033 113 988 q 111 1087 106 1078 q 123 1100 116 1096 q 149 1102 134 1105 q 224 1097 178 1097 q 348 1101 315 1097 q 390 1102 380 1105 q 406 1093 399 1099 q 419 1067 419 1082 q 407 1041 419 1051 q 374 1032 395 1031 q 329 1035 353 1033 q 278 1038 305 1036 q 179 1036 221 1040 q 178 919 179 977 q 177 779 178 850 q 175 496 175 587 q 300 500 260 496 q 354 496 343 505 q 366 473 366 488 q 296 437 366 435 q 270 437 281 437 l 215 438 l 175 438 l 175 372 m 418 1286 q 422 1283 418 1286 q 432 1269 427 1280 q 436 1244 437 1259 q 429 1219 435 1230 q 414 1202 422 1208 q 381 1190 398 1190 q 354 1193 363 1190 q 337 1203 345 1196 q 319 1239 319 1219 q 325 1269 319 1259 q 338 1286 330 1280 q 372 1301 356 1301 q 399 1297 389 1301 q 418 1286 410 1293 m 217 1290 q 224 1285 217 1290 q 235 1269 231 1280 q 239 1244 240 1259 q 232 1219 238 1230 q 218 1202 227 1208 q 184 1190 201 1190 q 158 1193 168 1190 q 140 1203 148 1196 q 123 1239 123 1219 q 129 1269 123 1259 q 142 1286 134 1280 q 182 1301 160 1301 q 217 1290 203 1301 z "},"":{"ha":334,"x_min":-4,"x_max":237,"o":"m 199 956 q 199 941 199 956 q 198 890 198 927 q 197 593 197 853 q 205 45 197 332 q 193 12 206 23 q 165 0 180 0 q 139 10 151 0 q 130 56 128 20 q 132 153 131 91 q 135 286 134 216 q 138 547 138 426 q 137 735 138 668 q 136 860 137 803 q 128 1061 134 986 q 136 1094 126 1083 q 161 1104 146 1104 q 191 1094 177 1104 q 203 1058 204 1083 q 201 1008 202 1033 q 199 956 200 984 m 24 1299 q 32 1301 24 1299 q 55 1297 40 1302 q 99 1271 69 1291 q 155 1237 128 1251 q 199 1215 182 1223 q 225 1199 216 1206 q 237 1179 235 1192 q 215 1148 242 1154 q 170 1160 199 1145 q 112 1186 141 1174 q 57 1210 82 1198 q -4 1253 -2 1236 q 1 1283 -6 1270 q 24 1299 9 1296 z "},"":{"ha":334,"x_min":106,"x_max":326,"o":"m 199 956 q 199 941 199 956 q 198 890 198 927 q 197 593 197 853 q 205 45 197 332 q 193 12 206 23 q 165 0 180 0 q 139 10 151 0 q 130 56 128 20 q 132 153 131 91 q 135 286 134 216 q 138 547 138 426 q 137 735 138 668 q 136 860 137 803 q 128 1061 134 986 q 136 1094 126 1083 q 161 1104 146 1104 q 191 1094 177 1104 q 203 1058 204 1083 q 201 1008 202 1033 q 199 956 200 984 m 152 1213 q 161 1218 152 1213 q 194 1239 170 1224 q 248 1278 218 1253 q 298 1299 277 1303 q 326 1282 318 1295 q 309 1230 343 1255 q 246 1196 294 1219 q 180 1161 199 1173 q 151 1145 161 1149 q 128 1143 141 1141 q 106 1171 103 1147 q 121 1192 109 1183 q 152 1213 133 1202 z "},"":{"ha":334,"x_min":1,"x_max":335,"o":"m 199 956 q 199 941 199 956 q 198 890 198 927 q 197 593 197 853 q 205 45 197 332 q 193 12 206 23 q 165 0 180 0 q 139 10 151 0 q 130 56 128 20 q 132 153 131 91 q 135 286 134 216 q 138 547 138 426 q 137 735 138 668 q 136 860 137 803 q 128 1061 134 986 q 136 1094 126 1083 q 161 1104 146 1104 q 191 1094 177 1104 q 203 1058 204 1083 q 201 1008 202 1033 q 199 956 200 984 m 211 1270 q 305 1200 241 1231 q 335 1160 335 1186 q 325 1139 335 1147 q 302 1131 315 1131 q 268 1144 281 1131 q 242 1170 254 1158 q 216 1196 231 1182 q 172 1236 191 1219 q 136 1205 153 1219 q 73 1153 86 1166 q 34 1131 50 1131 q 9 1139 18 1131 q 1 1159 1 1147 q 18 1194 1 1184 q 50 1212 35 1204 q 78 1230 64 1221 q 123 1267 111 1252 q 165 1300 149 1300 q 191 1291 181 1300 q 211 1270 201 1282 z "},"":{"ha":334,"x_min":12,"x_max":324,"o":"m 199 956 q 199 941 199 956 q 198 890 198 927 q 197 593 197 853 q 205 45 197 332 q 193 12 206 23 q 165 0 180 0 q 139 10 151 0 q 130 56 128 20 q 132 153 131 91 q 135 286 134 216 q 138 547 138 426 q 137 735 138 668 q 136 860 137 803 q 128 1061 134 986 q 136 1094 126 1083 q 161 1104 146 1104 q 191 1094 177 1104 q 203 1058 204 1083 q 201 1008 202 1033 q 199 956 200 984 m 306 1286 q 310 1283 306 1286 q 320 1269 315 1280 q 324 1244 325 1259 q 317 1219 323 1230 q 302 1202 311 1208 q 269 1190 286 1190 q 242 1193 252 1190 q 225 1203 233 1196 q 208 1239 208 1219 q 213 1269 208 1259 q 227 1286 218 1280 q 260 1301 244 1301 q 287 1297 277 1301 q 306 1286 298 1293 m 105 1290 q 112 1285 105 1290 q 123 1269 119 1280 q 127 1244 128 1259 q 120 1219 126 1230 q 106 1202 115 1208 q 72 1190 89 1190 q 46 1193 56 1190 q 28 1203 36 1196 q 12 1239 12 1219 q 17 1269 12 1259 q 30 1286 22 1280 q 70 1301 48 1301 q 105 1290 92 1301 z "},"":{"ha":700,"x_min":26,"x_max":606,"o":"m 585 842 q 606 660 606 760 q 589 474 606 559 q 542 315 572 388 q 469 183 511 242 q 375 83 427 125 q 144 -2 269 -2 q 118 11 124 -2 q 113 41 113 23 l 113 99 q 112 201 113 141 q 112 335 112 261 q 110 487 111 408 q 109 571 110 529 q 85 570 94 570 q 52 569 60 567 q 38 576 43 572 q 26 602 26 587 q 38 630 26 618 q 79 637 49 642 q 109 635 91 636 q 109 647 109 641 q 106 800 107 727 q 96 1040 102 952 q 137 1091 93 1086 q 244 1101 202 1101 q 585 842 517 1101 m 180 62 q 333 127 257 64 q 522 477 474 245 q 538 659 538 557 q 513 835 538 760 q 449 955 488 910 q 258 1039 375 1039 q 176 1028 208 1039 q 170 832 170 958 q 171 634 170 710 q 174 634 172 634 q 274 637 240 634 q 319 629 308 641 q 330 603 330 617 q 320 578 330 589 q 289 568 309 567 q 182 572 227 572 q 171 572 176 572 q 172 444 172 507 q 175 297 174 368 q 177 172 176 227 q 180 62 179 102 z "},"":{"ha":727,"x_min":103,"x_max":623,"o":"m 623 1063 q 618 585 618 725 q 619 379 618 445 q 620 255 619 314 q 623 84 621 130 q 621 30 625 39 q 610 15 616 21 q 551 10 582 -10 q 533 35 538 18 q 389 415 473 210 q 272 705 305 620 q 167 987 212 859 l 176 41 q 165 9 176 20 q 140 -1 154 -1 q 114 11 126 -1 q 103 44 102 22 q 110 469 110 231 l 110 871 q 109 1053 110 977 q 124 1091 109 1078 q 156 1104 139 1104 q 206 1068 194 1104 q 241 971 218 1032 q 291 837 263 911 q 351 679 319 762 q 414 514 382 596 q 476 354 446 431 q 530 214 506 277 q 572 106 555 151 q 573 102 572 104 q 564 392 568 235 q 558 677 561 583 q 554 870 556 772 q 548 1063 551 967 q 560 1095 548 1084 q 586 1105 572 1105 q 611 1095 600 1105 q 623 1063 623 1084 m 479 1259 q 517 1301 492 1301 q 538 1292 528 1301 q 547 1266 547 1283 q 538 1232 547 1249 q 515 1202 530 1215 q 454 1175 485 1175 q 407 1185 422 1175 q 376 1206 391 1194 q 347 1227 362 1217 q 313 1238 331 1237 q 267 1215 275 1240 q 226 1169 250 1169 q 205 1178 214 1169 q 195 1205 195 1187 q 205 1240 195 1223 q 230 1270 214 1257 q 296 1296 262 1296 q 346 1286 329 1296 q 378 1265 363 1277 q 479 1259 451 1206 z "},"":{"ha":696,"x_min":60,"x_max":635,"o":"m 556 135 q 336 -16 477 -16 q 127 131 194 -16 q 60 564 60 277 q 137 943 60 789 q 229 1062 175 1017 q 354 1106 283 1106 q 478 1069 425 1106 q 566 962 531 1032 q 635 564 633 825 q 556 135 636 288 m 483 971 q 470 989 483 971 q 427 1026 458 1006 q 356 1046 395 1046 q 286 1026 317 1046 q 230 971 255 1006 q 185 888 204 936 q 152 785 165 840 q 125 561 125 673 q 134 372 125 448 q 157 241 142 296 q 193 149 172 186 q 237 90 214 112 q 342 50 281 50 q 562 381 523 50 q 570 536 570 457 q 566 673 570 614 q 550 787 561 732 q 523 889 540 842 q 483 971 507 937 m 206 1299 q 214 1301 206 1299 q 236 1297 222 1302 q 280 1271 251 1291 q 337 1237 310 1251 q 381 1215 363 1223 q 407 1199 398 1206 q 419 1179 416 1192 q 397 1148 424 1154 q 352 1160 380 1145 q 293 1186 323 1174 q 239 1210 264 1198 q 178 1253 180 1236 q 183 1283 176 1270 q 206 1299 191 1296 z "},"":{"ha":696,"x_min":60,"x_max":635,"o":"m 556 135 q 336 -16 477 -16 q 127 131 194 -16 q 60 564 60 277 q 137 943 60 789 q 229 1062 175 1017 q 354 1106 283 1106 q 478 1069 425 1106 q 566 962 531 1032 q 635 564 633 825 q 556 135 636 288 m 483 971 q 470 989 483 971 q 427 1026 458 1006 q 356 1046 395 1046 q 286 1026 317 1046 q 230 971 255 1006 q 185 888 204 936 q 152 785 165 840 q 125 561 125 673 q 134 372 125 448 q 157 241 142 296 q 193 149 172 186 q 237 90 214 112 q 342 50 281 50 q 562 381 523 50 q 570 536 570 457 q 566 673 570 614 q 550 787 561 732 q 523 889 540 842 q 483 971 507 937 m 333 1213 q 342 1218 333 1213 q 375 1239 351 1224 q 429 1278 399 1253 q 479 1299 458 1303 q 507 1282 499 1295 q 490 1230 524 1255 q 427 1196 475 1219 q 361 1161 380 1173 q 332 1145 342 1149 q 309 1143 322 1141 q 288 1171 284 1147 q 302 1192 290 1183 q 333 1213 314 1202 z "},"":{"ha":696,"x_min":60,"x_max":635,"o":"m 556 135 q 336 -16 477 -16 q 127 131 194 -16 q 60 564 60 277 q 137 943 60 789 q 229 1062 175 1017 q 354 1106 283 1106 q 478 1069 425 1106 q 566 962 531 1032 q 635 564 633 825 q 556 135 636 288 m 483 971 q 470 989 483 971 q 427 1026 458 1006 q 356 1046 395 1046 q 286 1026 317 1046 q 230 971 255 1006 q 185 888 204 936 q 152 785 165 840 q 125 561 125 673 q 134 372 125 448 q 157 241 142 296 q 193 149 172 186 q 237 90 214 112 q 342 50 281 50 q 562 381 523 50 q 570 536 570 457 q 566 673 570 614 q 550 787 561 732 q 523 889 540 842 q 483 971 507 937 m 392 1270 q 486 1200 422 1231 q 516 1160 516 1186 q 506 1139 516 1147 q 484 1131 496 1131 q 449 1144 463 1131 q 424 1170 435 1158 q 397 1196 412 1182 q 353 1236 372 1219 q 317 1205 334 1219 q 254 1153 267 1166 q 215 1131 231 1131 q 191 1139 199 1131 q 182 1159 182 1147 q 199 1194 182 1184 q 231 1212 216 1204 q 259 1230 245 1221 q 304 1267 292 1252 q 346 1300 330 1300 q 372 1291 362 1300 q 392 1270 382 1282 z "},"":{"ha":696,"x_min":60,"x_max":635,"o":"m 556 135 q 336 -16 477 -16 q 127 131 194 -16 q 60 564 60 277 q 137 943 60 789 q 229 1062 175 1017 q 354 1106 283 1106 q 478 1069 425 1106 q 566 962 531 1032 q 635 564 633 825 q 556 135 636 288 m 483 971 q 470 989 483 971 q 427 1026 458 1006 q 356 1046 395 1046 q 286 1026 317 1046 q 230 971 255 1006 q 185 888 204 936 q 152 785 165 840 q 125 561 125 673 q 134 372 125 448 q 157 241 142 296 q 193 149 172 186 q 237 90 214 112 q 342 50 281 50 q 562 381 523 50 q 570 536 570 457 q 566 673 570 614 q 550 787 561 732 q 523 889 540 842 q 483 971 507 937 m 464 1259 q 502 1301 477 1301 q 523 1292 513 1301 q 532 1266 532 1283 q 524 1232 532 1249 q 500 1202 515 1215 q 439 1175 470 1175 q 392 1185 408 1175 q 361 1206 376 1194 q 332 1227 347 1217 q 298 1238 316 1237 q 252 1215 260 1240 q 211 1169 235 1169 q 190 1178 199 1169 q 180 1205 180 1187 q 190 1240 180 1223 q 215 1270 199 1257 q 281 1296 248 1296 q 331 1286 314 1296 q 363 1265 349 1277 q 464 1259 436 1206 z "},"":{"ha":696,"x_min":60,"x_max":635,"o":"m 556 135 q 336 -16 477 -16 q 127 131 194 -16 q 60 564 60 277 q 137 943 60 789 q 229 1062 175 1017 q 354 1106 283 1106 q 478 1069 425 1106 q 566 962 531 1032 q 635 564 633 825 q 556 135 636 288 m 483 971 q 470 989 483 971 q 427 1026 458 1006 q 356 1046 395 1046 q 286 1026 317 1046 q 230 971 255 1006 q 185 888 204 936 q 152 785 165 840 q 125 561 125 673 q 134 372 125 448 q 157 241 142 296 q 193 149 172 186 q 237 90 214 112 q 342 50 281 50 q 562 381 523 50 q 570 536 570 457 q 566 673 570 614 q 550 787 561 732 q 523 889 540 842 q 483 971 507 937 m 487 1286 q 492 1283 487 1286 q 501 1269 496 1280 q 505 1244 506 1259 q 498 1219 504 1230 q 483 1202 492 1208 q 450 1190 467 1190 q 423 1193 433 1190 q 406 1203 414 1196 q 389 1239 389 1219 q 394 1269 389 1259 q 408 1286 399 1280 q 441 1301 425 1301 q 468 1297 458 1301 q 487 1286 479 1293 m 286 1290 q 293 1285 286 1290 q 304 1269 300 1280 q 308 1244 309 1259 q 301 1219 307 1230 q 287 1202 296 1208 q 253 1190 270 1190 q 227 1193 237 1190 q 210 1203 217 1196 q 193 1239 193 1219 q 198 1269 193 1259 q 211 1286 203 1280 q 251 1301 229 1301 q 286 1290 273 1301 z "},"":{"ha":508,"x_min":81,"x_max":427,"o":"m 391 475 q 399 475 391 475 q 416 465 406 475 q 427 438 427 454 q 411 408 427 422 q 378 379 395 395 q 344 349 361 364 q 294 303 311 319 q 374 229 333 264 q 423 182 420 190 q 427 163 427 174 q 416 141 427 152 q 391 130 406 130 q 362 145 376 130 q 333 179 349 161 q 301 215 317 197 q 256 265 276 244 q 194 197 222 229 q 151 148 160 158 q 121 130 137 130 q 93 140 104 130 q 82 166 82 151 q 99 196 82 181 q 134 227 116 211 q 170 258 152 242 q 220 304 197 281 q 132 382 172 351 q 85 425 89 417 q 81 443 81 433 q 92 464 81 454 q 118 475 102 475 q 147 460 134 475 q 176 428 161 445 q 208 392 192 410 q 257 339 235 361 q 363 459 304 387 q 391 475 376 475 z "},"":{"ha":696,"x_min":60,"x_max":635,"o":"m 427 1027 q 356 1046 395 1046 q 286 1026 317 1046 q 230 971 255 1006 q 185 888 204 936 q 152 785 165 840 q 125 561 125 673 q 134 372 125 448 q 157 241 142 296 q 193 149 172 186 q 201 136 197 142 q 224 212 212 172 q 275 382 248 292 q 328 564 301 472 q 379 745 354 655 q 427 913 405 834 q 453 1006 441 962 q 427 1027 441 1018 m 244 83 q 342 50 286 50 q 562 381 523 50 q 570 536 570 457 q 566 673 570 614 q 550 787 561 732 q 524 889 540 842 q 495 952 511 924 q 481 906 488 930 q 432 742 458 829 q 381 564 407 654 q 330 383 355 473 q 281 210 304 293 q 244 83 262 143 m 519 1032 q 566 962 546 1002 q 635 564 633 825 q 556 135 636 288 q 336 -16 477 -16 q 224 14 273 -16 q 205 -52 212 -28 q 184 -95 193 -87 q 164 -103 174 -103 q 145 -94 153 -103 q 136 -73 136 -85 q 146 -33 136 -61 q 175 55 156 -6 q 127 131 148 86 q 60 564 60 277 q 137 943 60 789 q 229 1062 175 1017 q 354 1106 283 1106 q 471 1074 421 1106 q 497 1166 487 1129 q 533 1209 509 1209 q 554 1201 545 1209 q 564 1178 564 1192 q 554 1136 564 1164 q 524 1045 544 1107 q 519 1032 522 1038 z "},"":{"ha":708,"x_min":103,"x_max":605,"o":"m 117 351 l 119 638 q 103 1052 119 882 q 114 1084 101 1074 q 143 1095 127 1095 q 174 1084 160 1095 q 186 1038 187 1074 q 183 948 184 1002 q 180 832 181 893 q 177 611 177 710 q 177 476 177 512 q 178 406 178 439 q 199 177 182 225 q 238 103 216 129 q 353 52 283 52 q 473 105 426 52 q 530 260 522 161 q 538 456 538 382 q 537 584 538 530 q 536 705 537 638 q 525 1056 530 901 q 536 1088 524 1078 q 564 1098 549 1098 q 593 1088 580 1098 q 605 1056 606 1078 q 602 857 602 955 q 601 661 602 758 q 592 323 600 426 q 569 168 585 220 q 526 75 554 116 q 354 -16 462 -16 q 132 182 176 -16 q 117 319 117 243 l 117 351 m 211 1299 q 219 1301 211 1299 q 241 1297 227 1302 q 285 1271 256 1291 q 341 1237 315 1251 q 386 1215 368 1223 q 412 1199 403 1206 q 424 1179 421 1192 q 401 1148 429 1154 q 356 1160 385 1145 q 298 1186 328 1174 q 243 1210 269 1198 q 182 1253 184 1236 q 188 1283 180 1270 q 211 1299 195 1296 z "},"":{"ha":708,"x_min":103,"x_max":605,"o":"m 117 351 l 119 638 q 103 1052 119 882 q 114 1084 101 1074 q 143 1095 127 1095 q 174 1084 160 1095 q 186 1038 187 1074 q 183 948 184 1002 q 180 832 181 893 q 177 611 177 710 q 177 476 177 512 q 178 406 178 439 q 199 177 182 225 q 238 103 216 129 q 353 52 283 52 q 473 105 426 52 q 530 260 522 161 q 538 456 538 382 q 537 584 538 530 q 536 705 537 638 q 525 1056 530 901 q 536 1088 524 1078 q 564 1098 549 1098 q 593 1088 580 1098 q 605 1056 606 1078 q 602 857 602 955 q 601 661 602 758 q 592 323 600 426 q 569 168 585 220 q 526 75 554 116 q 354 -16 462 -16 q 132 182 176 -16 q 117 319 117 243 l 117 351 m 337 1213 q 347 1218 337 1213 q 380 1239 356 1224 q 433 1278 404 1253 q 484 1299 463 1303 q 512 1282 504 1295 q 494 1230 529 1255 q 432 1196 479 1219 q 366 1161 385 1173 q 337 1145 347 1149 q 314 1143 327 1141 q 292 1171 289 1147 q 307 1192 294 1183 q 337 1213 319 1202 z "},"":{"ha":708,"x_min":103,"x_max":605,"o":"m 117 351 l 119 638 q 103 1052 119 882 q 114 1084 101 1074 q 143 1095 127 1095 q 174 1084 160 1095 q 186 1038 187 1074 q 183 948 184 1002 q 180 832 181 893 q 177 611 177 710 q 177 476 177 512 q 178 406 178 439 q 199 177 182 225 q 238 103 216 129 q 353 52 283 52 q 473 105 426 52 q 530 260 522 161 q 538 456 538 382 q 537 584 538 530 q 536 705 537 638 q 525 1056 530 901 q 536 1088 524 1078 q 564 1098 549 1098 q 593 1088 580 1098 q 605 1056 606 1078 q 602 857 602 955 q 601 661 602 758 q 592 323 600 426 q 569 168 585 220 q 526 75 554 116 q 354 -16 462 -16 q 132 182 176 -16 q 117 319 117 243 l 117 351 m 397 1270 q 491 1200 427 1231 q 521 1160 521 1186 q 511 1139 521 1147 q 488 1131 501 1131 q 454 1144 467 1131 q 428 1170 440 1158 q 401 1196 416 1182 q 358 1236 376 1219 q 321 1205 339 1219 q 258 1153 272 1166 q 220 1131 236 1131 q 195 1139 204 1131 q 186 1159 186 1147 q 203 1194 186 1184 q 235 1212 220 1204 q 264 1230 250 1221 q 309 1267 296 1252 q 351 1300 335 1300 q 377 1291 367 1300 q 397 1270 387 1282 z "},"":{"ha":708,"x_min":103,"x_max":605,"o":"m 117 351 l 119 638 q 103 1052 119 882 q 114 1084 101 1074 q 143 1095 127 1095 q 174 1084 160 1095 q 186 1038 187 1074 q 183 948 184 1002 q 180 832 181 893 q 177 611 177 710 q 177 476 177 512 q 178 406 178 439 q 199 177 182 225 q 238 103 216 129 q 353 52 283 52 q 473 105 426 52 q 530 260 522 161 q 538 456 538 382 q 537 584 538 530 q 536 705 537 638 q 525 1056 530 901 q 536 1088 524 1078 q 564 1098 549 1098 q 593 1088 580 1098 q 605 1056 606 1078 q 602 857 602 955 q 601 661 602 758 q 592 323 600 426 q 569 168 585 220 q 526 75 554 116 q 354 -16 462 -16 q 132 182 176 -16 q 117 319 117 243 l 117 351 m 492 1286 q 496 1283 492 1286 q 506 1269 500 1280 q 510 1244 511 1259 q 503 1219 509 1230 q 488 1202 496 1208 q 455 1190 472 1190 q 428 1193 437 1190 q 411 1203 418 1196 q 393 1239 393 1219 q 398 1269 393 1259 q 412 1286 404 1280 q 446 1301 430 1301 q 473 1297 463 1301 q 492 1286 484 1293 m 291 1290 q 298 1285 291 1290 q 309 1269 304 1280 q 313 1244 314 1259 q 306 1219 312 1230 q 292 1202 300 1208 q 258 1190 275 1190 q 232 1193 241 1190 q 214 1203 222 1196 q 197 1239 197 1219 q 202 1269 197 1259 q 216 1286 208 1280 q 256 1301 234 1301 q 291 1290 277 1301 z "},"":{"ha":655,"x_min":30,"x_max":625,"o":"m 368 240 l 373 43 q 344 1 373 12 q 326 -1 336 -1 q 304 10 316 -1 q 295 45 293 21 q 300 93 297 69 q 304 141 302 117 q 309 230 309 198 q 309 285 309 262 q 307 332 308 308 q 304 376 306 352 q 255 498 282 433 q 183 673 220 582 q 30 1072 30 1042 q 40 1099 30 1089 q 66 1110 50 1109 q 91 1100 82 1111 q 117 1029 100 1088 q 168 875 134 969 q 237 696 202 781 q 339 455 282 583 q 361 514 349 483 q 401 621 380 565 q 443 735 422 677 q 484 850 465 794 q 545 1034 532 988 q 566 1097 557 1080 q 593 1114 575 1114 q 625 1082 625 1114 q 577 932 625 1058 q 514 766 528 806 q 488 691 500 726 q 460 617 475 656 q 429 535 445 577 q 399 456 413 494 q 372 387 382 415 q 368 240 368 267 m 329 1213 q 339 1218 329 1213 q 372 1239 348 1224 q 425 1278 395 1253 q 475 1299 455 1303 q 504 1282 496 1295 q 486 1230 521 1255 q 424 1196 471 1219 q 357 1161 376 1173 q 329 1145 338 1149 q 306 1143 319 1141 q 284 1171 281 1147 q 298 1192 286 1183 q 329 1213 311 1202 z "},"":{"ha":627,"x_min":108,"x_max":571,"o":"m 117 44 l 122 382 q 120 573 122 459 q 117 745 118 687 q 115 858 116 802 q 113 959 114 913 q 108 1078 109 1065 q 111 1100 107 1092 q 120 1114 114 1108 q 149 1124 133 1124 q 184 1081 185 1124 q 183 1037 183 1059 q 182 987 182 1015 q 180 875 180 939 q 327 925 256 925 q 553 779 502 925 q 571 654 571 728 q 535 509 571 581 q 439 376 498 437 q 180 191 335 267 q 187 47 183 124 q 176 13 188 24 q 150 2 163 2 q 126 13 136 2 q 117 44 117 23 m 182 808 q 178 490 178 708 l 177 359 q 178 256 177 313 q 382 397 294 313 q 509 654 509 519 q 400 851 509 809 q 203 825 303 889 q 182 808 192 817 z "},"":{"ha":625,"x_min":102,"x_max":571,"o":"m 311 142 l 309 117 q 337 56 309 84 q 392 30 363 30 q 441 40 420 30 q 476 71 461 50 q 508 178 508 115 q 497 274 508 240 q 467 337 486 309 q 426 388 449 365 q 378 433 402 411 q 331 477 354 454 q 289 526 307 500 q 248 661 248 585 q 323 815 248 736 q 399 984 399 894 q 328 1127 399 1097 q 281 1136 308 1136 q 231 1117 254 1136 q 191 1058 207 1099 q 161 800 161 979 l 163 334 q 173 41 163 115 l 174 28 q 168 -6 174 5 q 143 -17 162 -17 q 104 30 104 -17 l 106 124 l 102 820 q 149 1105 102 1014 q 296 1196 197 1196 q 406 1150 360 1196 q 462 983 462 1094 q 385 800 462 885 q 322 718 335 745 q 309 654 309 691 q 328 583 309 617 q 376 518 347 548 q 440 458 406 488 q 503 393 474 429 q 571 204 571 309 q 522 38 571 102 q 391 -28 473 -28 q 282 16 326 -28 q 242 115 242 58 q 253 162 242 146 q 278 178 264 178 q 301 168 292 178 q 311 142 311 159 z "},"":{"ha":468,"x_min":53,"x_max":409,"o":"m 332 139 q 332 231 332 176 q 258 241 303 241 q 159 212 198 241 q 129 175 140 197 q 117 120 117 154 q 140 64 117 87 q 208 42 163 42 q 308 103 253 42 q 332 139 323 120 m 376 -14 q 335 47 335 -14 q 334 71 335 52 q 321 54 328 63 q 188 -15 260 -15 q 92 22 130 -15 q 53 119 53 60 q 117 251 53 201 q 181 285 145 273 q 260 296 216 296 q 332 284 297 296 l 332 356 q 308 446 332 416 q 256 475 283 475 q 213 469 230 475 q 184 449 197 462 q 151 380 155 421 q 142 350 153 358 q 119 341 132 341 q 83 390 82 341 q 135 484 85 441 q 250 528 186 528 q 378 433 345 528 q 390 359 390 399 l 390 289 l 389 175 l 389 115 q 399 49 389 74 q 409 13 409 24 q 399 -6 409 3 q 376 -14 389 -14 m 123 777 q 188 746 152 794 q 279 640 217 707 q 300 605 300 616 q 291 586 300 593 q 273 580 283 580 q 236 603 257 580 q 199 643 215 627 q 170 671 183 659 q 124 720 136 705 q 123 777 94 759 z "},"":{"ha":468,"x_min":53,"x_max":409,"o":"m 332 139 q 332 231 332 176 q 258 241 303 241 q 159 212 198 241 q 129 175 140 197 q 117 120 117 154 q 140 64 117 87 q 208 42 163 42 q 308 103 253 42 q 332 139 323 120 m 376 -14 q 335 47 335 -14 q 334 71 335 52 q 321 54 328 63 q 188 -15 260 -15 q 92 22 130 -15 q 53 119 53 60 q 117 251 53 201 q 181 285 145 273 q 260 296 216 296 q 332 284 297 296 l 332 356 q 308 446 332 416 q 256 475 283 475 q 213 469 230 475 q 184 449 197 462 q 151 380 155 421 q 142 350 153 358 q 119 341 132 341 q 83 390 82 341 q 135 484 85 441 q 250 528 186 528 q 378 433 345 528 q 390 359 390 399 l 390 289 l 389 175 l 389 115 q 399 49 389 74 q 409 13 409 24 q 399 -6 409 3 q 376 -14 389 -14 m 229 640 q 314 737 291 707 q 385 777 356 794 q 387 724 413 758 q 347 680 368 700 q 282 614 298 632 q 256 588 267 597 q 235 580 245 580 q 217 586 225 580 q 208 605 208 593 q 229 640 208 618 z "},"":{"ha":468,"x_min":53,"x_max":409,"o":"m 332 139 q 332 231 332 176 q 258 241 303 241 q 159 212 198 241 q 129 175 140 197 q 117 120 117 154 q 140 64 117 87 q 208 42 163 42 q 308 103 253 42 q 332 139 323 120 m 376 -14 q 335 47 335 -14 q 334 71 335 52 q 321 54 328 63 q 188 -15 260 -15 q 92 22 130 -15 q 53 119 53 60 q 117 251 53 201 q 181 285 145 273 q 260 296 216 296 q 332 284 297 296 l 332 356 q 308 446 332 416 q 256 475 283 475 q 213 469 230 475 q 184 449 197 462 q 151 380 155 421 q 142 350 153 358 q 119 341 132 341 q 83 390 82 341 q 135 484 85 441 q 250 528 186 528 q 378 433 345 528 q 390 359 390 399 l 390 289 l 389 175 l 389 115 q 399 49 389 74 q 409 13 409 24 q 399 -6 409 3 q 376 -14 389 -14 m 320 699 q 325 693 320 699 q 339 676 329 688 q 360 650 349 664 q 379 629 372 637 q 386 608 386 621 q 376 587 386 595 q 353 579 366 579 q 313 608 327 579 q 299 637 306 622 q 283 668 292 652 q 243 718 267 696 q 186 635 214 688 q 152 587 163 594 q 129 579 141 579 q 107 587 117 579 q 98 608 98 595 q 123 651 98 627 q 199 751 170 696 q 245 782 216 782 q 283 758 270 782 q 304 722 296 734 q 320 699 312 709 z "},"":{"ha":468,"x_min":53,"x_max":409,"o":"m 332 139 q 332 231 332 176 q 258 241 303 241 q 159 212 198 241 q 129 175 140 197 q 117 120 117 154 q 140 64 117 87 q 208 42 163 42 q 308 103 253 42 q 332 139 323 120 m 376 -14 q 335 47 335 -14 q 334 71 335 52 q 321 54 328 63 q 188 -15 260 -15 q 92 22 130 -15 q 53 119 53 60 q 117 251 53 201 q 181 285 145 273 q 260 296 216 296 q 332 284 297 296 l 332 356 q 308 446 332 416 q 256 475 283 475 q 213 469 230 475 q 184 449 197 462 q 151 380 155 421 q 142 350 153 358 q 119 341 132 341 q 83 390 82 341 q 135 484 85 441 q 250 528 186 528 q 378 433 345 528 q 390 359 390 399 l 390 289 l 389 175 l 389 115 q 399 49 389 74 q 409 13 409 24 q 399 -6 409 3 q 376 -14 389 -14 m 85 639 q 106 692 85 672 q 173 727 142 727 q 218 719 203 727 q 245 702 233 711 q 270 683 258 692 q 296 674 282 675 q 332 694 323 673 q 348 724 342 716 q 367 732 355 732 q 386 721 379 732 q 393 694 393 709 q 385 663 393 679 q 366 635 378 647 q 310 606 337 606 q 270 614 283 606 q 245 632 257 623 q 161 654 195 672 q 143 631 149 647 q 109 600 132 600 q 85 639 85 600 z "},"":{"ha":468,"x_min":53,"x_max":409,"o":"m 332 139 q 332 231 332 176 q 258 241 303 241 q 159 212 198 241 q 129 175 140 197 q 117 120 117 154 q 140 64 117 87 q 208 42 163 42 q 308 103 253 42 q 332 139 323 120 m 376 -14 q 335 47 335 -14 q 334 71 335 52 q 321 54 328 63 q 188 -15 260 -15 q 92 22 130 -15 q 53 119 53 60 q 117 251 53 201 q 181 285 145 273 q 260 296 216 296 q 332 284 297 296 l 332 356 q 308 446 332 416 q 256 475 283 475 q 213 469 230 475 q 184 449 197 462 q 151 380 155 421 q 142 350 153 358 q 119 341 132 341 q 83 390 82 341 q 135 484 85 441 q 250 528 186 528 q 378 433 345 528 q 390 359 390 399 l 390 289 l 389 175 l 389 115 q 399 49 389 74 q 409 13 409 24 q 399 -6 409 3 q 376 -14 389 -14 m 366 709 q 370 706 366 709 q 378 693 374 703 q 382 669 383 683 q 375 644 381 654 q 361 628 370 634 q 325 616 345 616 q 288 630 304 616 q 271 663 271 644 q 276 693 271 683 q 290 709 281 703 q 322 723 306 723 q 348 720 338 723 q 366 709 357 716 m 192 709 q 196 706 192 709 q 205 693 200 703 q 209 669 210 683 q 202 644 208 654 q 189 628 197 634 q 152 616 172 616 q 115 630 132 616 q 98 663 98 644 q 103 693 98 683 q 117 709 109 703 q 148 723 132 723 q 174 720 164 723 q 192 709 184 716 z "},"":{"ha":468,"x_min":53,"x_max":409,"o":"m 332 139 q 332 231 332 176 q 258 241 303 241 q 159 212 198 241 q 129 175 140 197 q 117 120 117 154 q 140 64 117 87 q 208 42 163 42 q 308 103 253 42 q 332 139 323 120 m 376 -14 q 335 47 335 -14 q 334 71 335 52 q 321 54 328 63 q 188 -15 260 -15 q 92 22 130 -15 q 53 119 53 60 q 117 251 53 201 q 181 285 145 273 q 260 296 216 296 q 332 284 297 296 l 332 356 q 308 446 332 416 q 256 475 283 475 q 213 469 230 475 q 184 449 197 462 q 151 380 155 421 q 142 350 153 358 q 119 341 132 341 q 83 390 82 341 q 135 484 85 441 q 250 528 186 528 q 378 433 345 528 q 390 359 390 399 l 390 289 l 389 175 l 389 115 q 399 49 389 74 q 409 13 409 24 q 399 -6 409 3 q 376 -14 389 -14 m 184 722 q 184 704 184 722 q 202 665 184 686 q 249 644 219 644 q 298 671 279 644 q 317 734 317 697 q 297 791 317 772 q 256 811 278 811 q 222 803 234 811 q 201 783 210 795 q 184 722 184 758 m 168 826 q 176 835 168 826 q 207 853 184 844 q 255 863 229 863 q 302 855 280 864 q 340 827 323 846 q 373 723 373 790 q 337 632 373 672 q 245 591 299 591 q 164 624 196 591 q 131 706 131 658 q 141 781 131 753 q 168 826 151 808 z "},"":{"ha":726,"x_min":45,"x_max":669,"o":"m 388 291 l 488 292 q 566 295 511 292 q 609 297 592 296 q 566 450 619 408 q 513 468 545 468 q 462 457 481 468 q 428 428 442 446 q 405 388 414 410 q 391 340 396 365 q 383 291 385 317 l 388 291 m 326 245 q 279 250 305 250 q 215 243 244 250 q 163 222 186 237 q 111 126 111 189 q 132 61 111 87 q 189 36 153 36 q 247 50 224 36 q 286 85 270 64 q 324 168 315 123 l 326 245 m 371 439 q 412 491 385 468 q 499 528 454 528 q 571 517 545 528 q 615 489 597 507 q 644 447 633 471 q 661 396 654 422 q 669 307 669 354 q 658 250 669 260 q 625 240 647 240 l 564 240 l 381 243 q 391 159 382 195 q 419 95 401 120 q 506 43 454 43 q 591 101 566 43 q 628 137 609 137 q 646 129 640 137 q 633 56 665 105 q 496 -14 589 -14 q 370 66 420 -14 q 353 100 361 82 q 290 19 331 50 q 201 -15 245 -15 q 131 -6 157 -15 q 85 20 104 3 q 45 109 45 57 q 62 194 45 160 q 107 251 79 228 q 253 298 165 298 l 275 298 q 326 296 300 298 l 326 356 q 270 471 326 458 q 236 474 253 474 q 203 469 218 474 q 176 452 188 463 q 148 395 149 426 q 116 347 148 343 q 93 359 102 348 q 83 393 83 370 q 97 441 84 416 q 130 486 109 466 q 241 528 178 528 q 371 439 351 528 z "},"":{"ha":467,"x_min":71,"x_max":401,"o":"m 401 356 q 367 313 401 313 q 333 356 333 313 q 250 469 334 469 q 163 402 197 469 q 132 270 132 342 q 143 157 132 198 q 171 91 153 117 q 254 41 203 41 q 308 66 287 41 q 337 118 330 91 q 372 160 349 160 q 393 151 384 159 q 399 118 401 142 q 385 69 397 95 q 351 24 372 43 q 243 -14 308 -14 q 123 52 172 -14 q 71 249 71 123 q 125 456 71 381 q 250 527 174 526 q 357 484 315 528 q 401 356 401 439 m 284 -273 q 290 -267 284 -273 q 306 -248 297 -262 q 315 -213 315 -234 q 304 -177 315 -193 q 278 -161 294 -161 q 253 -164 262 -161 q 235 -173 243 -168 q 198 -185 214 -185 q 169 -177 182 -185 q 156 -154 156 -168 q 160 -126 156 -140 q 173 -92 165 -112 q 192 -44 180 -72 q 216 21 203 -17 l 263 24 q 248 -34 263 8 l 226 -99 q 217 -129 220 -115 q 252 -115 234 -119 q 288 -110 276 -109 q 314 -116 300 -111 q 339 -134 328 -122 q 364 -202 365 -162 q 350 -270 363 -243 q 317 -319 337 -298 q 222 -368 271 -368 q 198 -359 207 -368 q 189 -338 189 -349 q 198 -314 189 -327 q 223 -299 207 -302 q 255 -290 239 -297 q 284 -273 271 -283 z "},"":{"ha":469,"x_min":58,"x_max":414,"o":"m 352 293 q 302 454 353 411 q 253 473 282 473 q 205 462 224 473 q 171 433 186 451 q 147 391 157 414 q 131 343 137 368 q 122 292 125 317 l 215 288 q 352 293 306 288 m 119 234 q 153 91 121 140 q 253 38 189 38 q 339 96 312 38 q 381 134 356 134 q 400 127 393 134 q 408 101 408 119 q 394 60 407 82 q 359 22 382 39 q 242 -16 311 -16 q 115 47 168 -16 q 58 205 58 113 q 74 354 58 296 q 117 449 90 411 q 245 526 168 526 q 385 448 345 526 q 414 288 412 393 q 405 248 415 258 q 363 238 395 238 l 119 234 m 155 777 q 220 746 184 794 q 311 640 249 707 q 332 605 332 616 q 323 586 332 593 q 304 580 315 580 q 268 603 289 580 q 231 643 247 627 q 201 671 215 659 q 156 720 168 705 q 155 777 126 759 z "},"":{"ha":469,"x_min":58,"x_max":414,"o":"m 352 293 q 302 454 353 411 q 253 473 282 473 q 205 462 224 473 q 171 433 186 451 q 147 391 157 414 q 131 343 137 368 q 122 292 125 317 l 215 288 q 352 293 306 288 m 119 234 q 153 91 121 140 q 253 38 189 38 q 339 96 312 38 q 381 134 356 134 q 400 127 393 134 q 408 101 408 119 q 394 60 407 82 q 359 22 382 39 q 242 -16 311 -16 q 115 47 168 -16 q 58 205 58 113 q 74 354 58 296 q 117 449 90 411 q 245 526 168 526 q 385 448 345 526 q 414 288 412 393 q 405 248 415 258 q 363 238 395 238 l 119 234 m 214 640 q 299 737 276 707 q 370 777 341 794 q 372 724 398 758 q 332 680 353 700 q 267 614 283 632 q 241 588 252 597 q 220 580 231 580 q 202 586 210 580 q 193 605 193 593 q 214 640 193 618 z "},"":{"ha":469,"x_min":58,"x_max":414,"o":"m 352 293 q 302 454 353 411 q 253 473 282 473 q 205 462 224 473 q 171 433 186 451 q 147 391 157 414 q 131 343 137 368 q 122 292 125 317 l 215 288 q 352 293 306 288 m 119 234 q 153 91 121 140 q 253 38 189 38 q 339 96 312 38 q 381 134 356 134 q 400 127 393 134 q 408 101 408 119 q 394 60 407 82 q 359 22 382 39 q 242 -16 311 -16 q 115 47 168 -16 q 58 205 58 113 q 74 354 58 296 q 117 449 90 411 q 245 526 168 526 q 385 448 345 526 q 414 288 412 393 q 405 248 415 258 q 363 238 395 238 l 119 234 m 331 699 q 335 693 331 699 q 349 676 339 688 q 371 650 359 664 q 389 629 382 637 q 396 608 396 621 q 386 587 396 595 q 363 579 376 579 q 323 608 337 579 q 309 637 316 622 q 294 668 302 652 q 254 718 277 696 q 196 635 224 688 q 162 587 174 594 q 139 579 151 579 q 118 587 127 579 q 109 608 109 595 q 133 651 109 627 q 210 751 180 696 q 256 782 227 782 q 293 758 280 782 q 314 722 307 734 q 331 699 322 709 z "},"":{"ha":469,"x_min":58,"x_max":414,"o":"m 352 293 q 302 454 353 411 q 253 473 282 473 q 205 462 224 473 q 171 433 186 451 q 147 391 157 414 q 131 343 137 368 q 122 292 125 317 l 215 288 q 352 293 306 288 m 119 234 q 153 91 121 140 q 253 38 189 38 q 339 96 312 38 q 381 134 356 134 q 400 127 393 134 q 408 101 408 119 q 394 60 407 82 q 359 22 382 39 q 242 -16 311 -16 q 115 47 168 -16 q 58 205 58 113 q 74 354 58 296 q 117 449 90 411 q 245 526 168 526 q 385 448 345 526 q 414 288 412 393 q 405 248 415 258 q 363 238 395 238 l 119 234 m 377 709 q 381 706 377 709 q 390 693 385 703 q 394 669 395 683 q 387 644 393 654 q 372 628 381 634 q 336 616 357 616 q 299 630 316 616 q 283 663 283 644 q 288 693 283 683 q 301 709 293 703 q 333 723 317 723 q 359 720 349 723 q 377 709 369 716 m 203 709 q 208 706 203 709 q 216 693 212 703 q 220 669 221 683 q 214 644 219 654 q 200 628 208 634 q 163 616 184 616 q 126 630 143 616 q 110 663 110 644 q 115 693 110 683 q 128 709 120 703 q 159 723 143 723 q 185 720 176 723 q 203 709 195 716 z "},"":{"ha":261,"x_min":34,"x_max":211,"o":"m 170 465 q 161 218 161 266 q 163 102 161 171 q 163 25 166 34 q 154 12 159 17 q 128 0 142 0 q 102 10 114 0 q 94 52 91 20 q 100 223 100 136 q 98 364 100 309 q 95 447 96 419 q 98 483 94 475 q 107 496 101 491 q 133 507 119 507 q 159 496 146 507 q 170 465 171 486 m 34 777 q 99 746 63 794 q 191 640 128 707 q 211 605 211 616 q 202 586 211 593 q 184 580 194 580 q 147 603 168 580 q 110 643 126 627 q 81 671 94 659 q 35 720 47 705 q 34 777 5 759 z "},"":{"ha":261,"x_min":74,"x_max":252,"o":"m 170 465 q 161 218 161 266 q 163 102 161 171 q 163 25 166 34 q 154 12 159 17 q 128 0 142 0 q 102 10 114 0 q 94 52 91 20 q 100 223 100 136 q 98 364 100 309 q 95 447 96 419 q 98 483 94 475 q 107 496 101 491 q 133 507 119 507 q 159 496 146 507 q 170 465 171 486 m 94 640 q 180 737 157 707 q 250 777 222 794 q 252 724 279 758 q 212 680 233 700 q 148 614 163 632 q 122 588 132 597 q 101 580 111 580 q 82 586 91 580 q 74 605 74 593 q 94 640 74 618 z "},"":{"ha":261,"x_min":-12,"x_max":275,"o":"m 170 465 q 161 218 161 266 q 163 102 161 171 q 163 25 166 34 q 154 12 159 17 q 128 0 142 0 q 102 10 114 0 q 94 52 91 20 q 100 223 100 136 q 98 364 100 309 q 95 447 96 419 q 98 483 94 475 q 107 496 101 491 q 133 507 119 507 q 159 496 146 507 q 170 465 171 486 m 210 699 q 214 693 210 699 q 228 676 218 688 q 250 650 238 664 q 269 629 262 637 q 275 608 275 621 q 266 587 275 595 q 243 579 256 579 q 202 608 216 579 q 189 637 195 622 q 173 668 182 652 q 133 718 157 696 q 75 635 103 688 q 42 587 53 594 q 18 579 31 579 q -3 587 6 579 q -12 608 -12 595 q 12 651 -12 627 q 89 751 59 696 q 135 782 106 782 q 173 758 159 782 q 194 722 186 734 q 210 699 201 709 z "},"":{"ha":261,"x_min":-10,"x_max":274,"o":"m 170 465 q 161 218 161 266 q 163 102 161 171 q 163 25 166 34 q 154 12 159 17 q 128 0 142 0 q 102 10 114 0 q 94 52 91 20 q 100 223 100 136 q 98 364 100 309 q 95 447 96 419 q 98 483 94 475 q 107 496 101 491 q 133 507 119 507 q 159 496 146 507 q 170 465 171 486 m 257 709 q 261 706 257 709 q 270 693 265 703 q 274 669 275 683 q 267 644 273 654 q 252 628 261 634 q 216 616 237 616 q 179 630 196 616 q 163 663 163 644 q 168 693 163 683 q 181 709 173 703 q 213 723 197 723 q 239 720 229 723 q 257 709 249 716 m 83 709 q 87 706 83 709 q 96 693 92 703 q 100 669 101 683 q 94 644 99 654 q 80 628 88 634 q 43 616 64 616 q 6 630 23 616 q -10 663 -10 644 q -5 693 -10 683 q 8 709 0 703 q 39 723 23 723 q 65 720 56 723 q 83 709 75 716 z "},"":{"ha":520,"x_min":54,"x_max":472,"o":"m 346 1004 q 374 1031 359 1017 q 406 1061 389 1045 q 440 1076 422 1077 q 465 1065 457 1074 q 472 1039 473 1055 q 454 1010 471 1023 q 424 988 438 998 q 396 968 410 978 q 355 938 374 953 q 444 743 413 859 q 464 365 481 604 q 312 -3 441 48 q 243 -15 283 -15 q 169 11 203 -15 q 115 77 136 37 q 75 268 75 155 q 131 472 75 397 q 258 541 182 541 q 365 479 323 541 q 407 359 395 433 q 408 437 409 396 q 404 593 406 532 q 385 724 401 654 q 344 843 368 793 q 310 900 328 875 q 298 890 304 895 q 256 853 278 872 q 168 773 203 806 q 133 761 151 759 q 107 772 116 763 q 101 799 99 782 q 119 828 103 817 q 155 853 135 839 q 197 882 174 867 q 274 939 246 917 q 228 975 251 961 q 169 1003 197 994 q 125 1013 141 1011 q 99 1015 110 1014 q 79 1019 88 1015 q 54 1041 56 1025 q 92 1081 47 1073 q 239 1044 159 1092 q 321 979 284 1018 q 346 1004 334 991 m 375 264 q 365 351 375 311 q 339 418 355 391 q 261 475 305 475 q 168 417 201 475 q 136 288 136 362 q 146 173 136 214 q 172 103 155 132 q 256 45 205 45 q 345 109 311 45 q 375 264 375 168 z "},"":{"ha":511,"x_min":90,"x_max":433,"o":"m 430 329 l 429 182 q 433 47 429 110 q 422 13 435 24 q 396 1 410 1 q 371 12 382 1 q 362 44 359 22 q 366 93 364 65 q 369 151 368 121 q 372 249 372 210 q 370 306 372 288 q 368 358 369 323 q 349 424 366 393 q 302 455 332 455 q 249 442 271 455 q 208 408 227 429 q 156 302 169 363 q 155 265 155 283 l 155 230 q 158 67 155 107 q 153 15 161 28 q 127 1 146 1 q 98 13 109 1 q 90 57 87 25 q 96 237 96 144 q 92 469 96 395 q 130 514 89 514 q 156 501 151 514 q 160 474 162 488 q 158 450 159 460 q 158 429 158 439 q 158 409 158 418 q 264 509 198 485 q 307 516 286 516 q 352 506 329 516 q 392 474 375 496 q 430 329 430 425 m 106 639 q 126 692 106 672 q 193 727 163 727 q 239 719 224 727 q 266 702 254 711 q 290 683 278 692 q 317 674 302 675 q 353 694 343 673 q 369 724 362 716 q 387 732 375 732 q 406 721 399 732 q 413 694 413 709 q 406 663 413 679 q 386 635 398 647 q 331 606 357 606 q 291 614 304 606 q 265 632 277 623 q 181 654 216 672 q 163 631 169 647 q 129 600 152 600 q 106 639 106 600 z "},"":{"ha":484,"x_min":54,"x_max":431,"o":"m 300 456 q 247 473 277 473 q 192 456 217 473 q 151 410 168 439 q 116 246 116 350 q 149 92 116 142 q 238 43 182 43 q 336 113 299 43 q 368 266 368 175 q 300 456 368 406 m 237 -15 q 165 1 199 -16 q 107 53 132 18 q 54 265 54 127 q 111 460 54 389 q 255 528 165 528 q 380 463 330 528 q 431 273 431 393 q 372 58 431 138 q 237 -15 319 -14 m 144 777 q 210 746 174 794 q 301 640 239 707 q 321 605 321 616 q 313 586 321 593 q 294 580 304 580 q 258 603 279 580 q 221 643 237 627 q 191 671 205 659 q 146 720 158 705 q 144 777 116 759 z "},"":{"ha":484,"x_min":54,"x_max":431,"o":"m 300 456 q 247 473 277 473 q 192 456 217 473 q 151 410 168 439 q 116 246 116 350 q 149 92 116 142 q 238 43 182 43 q 336 113 299 43 q 368 266 368 175 q 300 456 368 406 m 237 -15 q 165 1 199 -16 q 107 53 132 18 q 54 265 54 127 q 111 460 54 389 q 255 528 165 528 q 380 463 330 528 q 431 273 431 393 q 372 58 431 138 q 237 -15 319 -14 m 204 640 q 290 737 267 707 q 360 777 332 794 q 362 724 389 758 q 322 680 343 700 q 258 614 273 632 q 232 588 242 597 q 211 580 221 580 q 192 586 201 580 q 184 605 184 593 q 204 640 184 618 z "},"":{"ha":484,"x_min":54,"x_max":431,"o":"m 300 456 q 247 473 277 473 q 192 456 217 473 q 151 410 168 439 q 116 246 116 350 q 149 92 116 142 q 238 43 182 43 q 336 113 299 43 q 368 266 368 175 q 300 456 368 406 m 237 -15 q 165 1 199 -16 q 107 53 132 18 q 54 265 54 127 q 111 460 54 389 q 255 528 165 528 q 380 463 330 528 q 431 273 431 393 q 372 58 431 138 q 237 -15 319 -14 m 321 699 q 325 693 321 699 q 339 676 330 688 q 361 650 349 664 q 380 629 373 637 q 387 608 387 621 q 377 587 387 595 q 354 579 367 579 q 313 608 328 579 q 300 637 307 622 q 284 668 293 652 q 244 718 268 696 q 186 635 214 688 q 153 587 164 594 q 130 579 142 579 q 108 587 117 579 q 99 608 99 595 q 123 651 99 627 q 200 751 170 696 q 246 782 217 782 q 284 758 271 782 q 305 722 297 734 q 321 699 313 709 z "},"":{"ha":484,"x_min":54,"x_max":431,"o":"m 300 456 q 247 473 277 473 q 192 456 217 473 q 151 410 168 439 q 116 246 116 350 q 149 92 116 142 q 238 43 182 43 q 336 113 299 43 q 368 266 368 175 q 300 456 368 406 m 237 -15 q 165 1 199 -16 q 107 53 132 18 q 54 265 54 127 q 111 460 54 389 q 255 528 165 528 q 380 463 330 528 q 431 273 431 393 q 372 58 431 138 q 237 -15 319 -14 m 90 639 q 110 692 90 672 q 177 727 146 727 q 222 719 208 727 q 250 702 237 711 q 274 683 262 692 q 300 674 286 675 q 336 694 327 673 q 352 724 346 716 q 371 732 359 732 q 390 721 383 732 q 397 694 397 709 q 389 663 397 679 q 370 635 382 647 q 314 606 341 606 q 274 614 288 606 q 249 632 261 623 q 165 654 199 672 q 147 631 153 647 q 113 600 136 600 q 90 639 90 600 z "},"":{"ha":484,"x_min":54,"x_max":431,"o":"m 300 456 q 247 473 277 473 q 192 456 217 473 q 151 410 168 439 q 116 246 116 350 q 149 92 116 142 q 238 43 182 43 q 336 113 299 43 q 368 266 368 175 q 300 456 368 406 m 237 -15 q 165 1 199 -16 q 107 53 132 18 q 54 265 54 127 q 111 460 54 389 q 255 528 165 528 q 380 463 330 528 q 431 273 431 393 q 372 58 431 138 q 237 -15 319 -14 m 366 709 q 370 706 366 709 q 379 693 374 703 q 383 669 384 683 q 376 644 382 654 q 361 628 370 634 q 326 616 346 616 q 289 630 305 616 q 272 663 272 644 q 277 693 272 683 q 290 709 282 703 q 322 723 307 723 q 348 720 338 723 q 366 709 358 716 m 193 709 q 197 706 193 709 q 205 693 201 703 q 209 669 210 683 q 203 644 208 654 q 189 628 197 634 q 153 616 173 616 q 116 630 132 616 q 99 663 99 644 q 104 693 99 683 q 117 709 109 703 q 149 723 132 723 q 175 720 165 723 q 193 709 184 716 z "},"":{"ha":604,"x_min":73,"x_max":531,"o":"m 342 146 q 346 143 342 146 q 356 128 351 139 q 361 102 361 117 q 355 75 361 86 q 339 57 349 64 q 296 45 321 45 q 245 77 260 45 q 240 102 240 88 q 279 156 240 143 q 301 160 290 160 q 322 157 311 160 q 342 146 333 153 m 342 529 q 346 525 342 529 q 356 511 351 522 q 361 484 361 500 q 355 457 361 469 q 339 439 349 446 q 296 427 321 427 q 245 460 260 427 q 240 485 240 471 q 279 538 240 526 q 301 543 290 543 q 322 539 311 543 q 342 529 333 536 m 117 334 q 293 328 179 328 q 487 334 408 328 q 520 323 509 335 q 531 297 531 311 q 520 272 531 283 q 479 264 510 261 q 340 271 406 271 q 117 263 232 271 q 84 273 94 262 q 73 298 73 284 q 84 324 73 312 q 117 334 95 336 z "},"":{"ha":484,"x_min":54,"x_max":431,"o":"m 237 -15 q 172 -2 203 -16 q 164 -23 168 -13 q 143 -69 151 -63 q 124 -75 135 -75 q 107 -65 114 -75 q 100 -44 100 -56 q 104 -20 100 -32 q 127 29 116 5 q 107 53 116 40 q 54 265 54 127 q 111 460 54 389 q 255 528 165 528 q 315 515 288 528 q 338 579 332 572 q 356 587 345 587 q 377 578 368 587 q 386 559 386 570 q 370 507 386 543 q 360 485 365 496 q 380 463 370 475 q 431 273 431 393 q 372 58 431 138 q 237 -15 319 -14 m 332 421 q 297 335 313 376 q 264 251 280 292 q 232 164 248 209 q 197 68 216 119 q 192 53 195 60 q 238 43 212 43 q 336 113 299 43 q 368 266 368 175 q 332 421 368 367 m 299 457 q 247 473 277 473 q 192 456 217 473 q 151 410 168 439 q 116 246 116 350 q 149 92 116 142 q 153 87 151 90 q 155 92 154 90 q 197 186 178 142 q 233 270 216 230 q 264 353 249 310 q 299 457 284 409 z "},"":{"ha":513,"x_min":81,"x_max":444,"o":"m 144 165 q 235 45 144 45 q 323 96 286 45 q 361 206 355 142 q 363 316 363 266 q 362 461 363 388 q 374 495 361 484 q 400 507 387 507 q 425 496 414 507 q 433 465 436 486 q 421 213 421 334 q 425 77 421 91 q 433 53 428 62 q 444 17 444 28 q 435 -4 444 6 q 412 -14 427 -14 q 362 79 361 -14 q 319 21 339 37 q 172 -5 252 -35 q 83 172 83 28 q 82 319 83 246 q 81 461 81 391 q 94 495 82 484 q 120 506 106 506 q 145 496 134 506 q 154 461 157 486 q 149 397 151 437 q 146 317 147 358 q 144 165 144 248 m 111 777 q 176 746 140 794 q 267 640 205 707 q 288 605 288 616 q 279 586 288 593 q 260 580 271 580 q 224 603 245 580 q 187 643 203 627 q 157 671 171 659 q 112 720 124 705 q 111 777 82 759 z "},"":{"ha":513,"x_min":81,"x_max":444,"o":"m 144 165 q 235 45 144 45 q 323 96 286 45 q 361 206 355 142 q 363 316 363 266 q 362 461 363 388 q 374 495 361 484 q 400 507 387 507 q 425 496 414 507 q 433 465 436 486 q 421 213 421 334 q 425 77 421 91 q 433 53 428 62 q 444 17 444 28 q 435 -4 444 6 q 412 -14 427 -14 q 362 79 361 -14 q 319 21 339 37 q 172 -5 252 -35 q 83 172 83 28 q 82 319 83 246 q 81 461 81 391 q 94 495 82 484 q 120 506 106 506 q 145 496 134 506 q 154 461 157 486 q 149 397 151 437 q 146 317 147 358 q 144 165 144 248 m 261 640 q 347 737 323 707 q 417 777 389 794 q 419 724 446 758 q 379 680 400 700 q 315 614 330 632 q 289 588 299 597 q 268 580 278 580 q 249 586 258 580 q 241 605 241 593 q 261 640 241 618 z "},"":{"ha":513,"x_min":81,"x_max":444,"o":"m 144 165 q 235 45 144 45 q 323 96 286 45 q 361 206 355 142 q 363 316 363 266 q 362 461 363 388 q 374 495 361 484 q 400 507 387 507 q 425 496 414 507 q 433 465 436 486 q 421 213 421 334 q 425 77 421 91 q 433 53 428 62 q 444 17 444 28 q 435 -4 444 6 q 412 -14 427 -14 q 362 79 361 -14 q 319 21 339 37 q 172 -5 252 -35 q 83 172 83 28 q 82 319 83 246 q 81 461 81 391 q 94 495 82 484 q 120 506 106 506 q 145 496 134 506 q 154 461 157 486 q 149 397 151 437 q 146 317 147 358 q 144 165 144 248 m 348 699 q 352 693 348 699 q 366 676 356 688 q 388 650 376 664 q 406 629 399 637 q 413 608 413 621 q 403 587 413 595 q 380 579 393 579 q 340 608 354 579 q 326 637 333 622 q 311 668 319 652 q 271 718 294 696 q 213 635 241 688 q 179 587 191 594 q 156 579 168 579 q 135 587 144 579 q 125 608 125 595 q 150 651 125 627 q 227 751 197 696 q 273 782 243 782 q 310 758 297 782 q 331 722 323 734 q 348 699 339 709 z "},"":{"ha":513,"x_min":81,"x_max":444,"o":"m 144 165 q 235 45 144 45 q 323 96 286 45 q 361 206 355 142 q 363 316 363 266 q 362 461 363 388 q 374 495 361 484 q 400 507 387 507 q 425 496 414 507 q 433 465 436 486 q 421 213 421 334 q 425 77 421 91 q 433 53 428 62 q 444 17 444 28 q 435 -4 444 6 q 412 -14 427 -14 q 362 79 361 -14 q 319 21 339 37 q 172 -5 252 -35 q 83 172 83 28 q 82 319 83 246 q 81 461 81 391 q 94 495 82 484 q 120 506 106 506 q 145 496 134 506 q 154 461 157 486 q 149 397 151 437 q 146 317 147 358 q 144 165 144 248 m 384 709 q 388 706 384 709 q 397 693 392 703 q 400 669 401 683 q 394 644 399 654 q 379 628 388 634 q 343 616 363 616 q 306 630 323 616 q 290 663 290 644 q 295 693 290 683 q 308 709 300 703 q 340 723 324 723 q 366 720 356 723 q 384 709 376 716 m 210 709 q 214 706 210 709 q 223 693 218 703 q 227 669 228 683 q 220 644 226 654 q 207 628 215 634 q 170 616 191 616 q 133 630 150 616 q 117 663 117 644 q 122 693 117 683 q 135 709 127 703 q 166 723 150 723 q 192 720 182 723 q 210 709 202 716 z "},"":{"ha":462,"x_min":52,"x_max":425,"o":"m 244 40 q 350 471 321 330 q 391 513 357 513 q 415 504 405 513 q 425 482 425 495 q 415 433 425 461 q 388 348 405 406 q 352 223 370 290 q 314 85 333 157 q 275 -58 294 14 q 179 -357 197 -338 q 154 -367 170 -367 q 127 -358 138 -367 q 116 -336 116 -349 q 126 -298 116 -316 q 148 -253 136 -281 q 174 -189 160 -226 q 219 -50 197 -125 q 186 63 203 3 q 145 197 166 130 q 75 404 95 360 q 52 474 52 456 q 61 503 52 492 q 85 513 71 513 q 126 475 115 513 q 150 394 138 437 q 174 306 162 351 q 197 218 186 262 q 219 136 209 175 q 237 65 229 97 q 244 40 241 52 m 199 640 q 285 737 262 707 q 355 777 327 794 q 357 724 384 758 q 317 680 338 700 q 253 614 269 632 q 227 588 237 597 q 206 580 216 580 q 188 586 196 580 q 179 605 179 593 q 199 640 179 618 z "},"":{"ha":553,"x_min":106,"x_max":490,"o":"m 184 289 q 186 54 182 130 q 248 65 214 50 q 320 106 291 83 q 373 161 349 128 q 427 349 427 237 q 376 457 427 433 q 336 464 361 464 q 283 447 311 464 q 235 403 256 429 q 184 289 191 350 m 185 1080 l 182 715 q 187 423 182 623 q 247 490 210 463 q 358 527 296 527 q 455 481 420 527 q 490 362 490 435 q 475 239 490 290 q 435 150 460 189 q 378 82 410 111 q 312 34 346 54 q 185 -7 246 -3 q 183 -103 183 -41 l 189 -309 q 161 -348 189 -338 q 144 -351 154 -351 q 122 -341 134 -351 q 111 -309 110 -331 q 125 81 126 -75 q 124 484 124 374 q 123 659 124 593 q 120 793 122 725 q 106 1087 117 890 q 133 1134 104 1124 q 146 1136 140 1136 q 178 1121 170 1137 q 185 1080 185 1105 z "},"":{"ha":462,"x_min":52,"x_max":425,"o":"m 244 40 q 350 471 321 330 q 391 513 357 513 q 415 504 405 513 q 425 482 425 495 q 415 433 425 461 q 388 348 405 406 q 352 223 370 290 q 314 85 333 157 q 275 -58 294 14 q 179 -357 197 -338 q 154 -367 170 -367 q 127 -358 138 -367 q 116 -336 116 -349 q 126 -298 116 -316 q 148 -253 136 -281 q 174 -189 160 -226 q 219 -50 197 -125 q 186 63 203 3 q 145 197 166 130 q 75 404 95 360 q 52 474 52 456 q 61 503 52 492 q 85 513 71 513 q 126 475 115 513 q 150 394 138 437 q 174 306 162 351 q 197 218 186 262 q 219 136 209 175 q 237 65 229 97 q 244 40 241 52 m 362 709 q 366 706 362 709 q 375 693 370 703 q 379 669 380 683 q 372 644 378 654 q 357 628 366 634 q 321 616 342 616 q 284 630 301 616 q 268 663 268 644 q 273 693 268 683 q 286 709 278 703 q 318 723 302 723 q 344 720 334 723 q 362 709 354 716 m 189 709 q 193 706 189 709 q 201 693 197 703 q 205 669 206 683 q 199 644 204 654 q 185 628 193 634 q 149 616 169 616 q 112 630 128 616 q 95 663 95 644 q 100 693 95 683 q 113 709 105 703 q 144 723 128 723 q 171 720 161 723 q 189 709 180 716 z "},"":{"ha":517,"x_min":1,"x_max":439,"o":"m 153 402 q 308 524 213 524 q 423 423 393 524 q 433 336 433 388 l 433 227 q 439 45 433 104 q 427 12 440 23 q 399 0 414 0 q 373 10 384 0 q 366 58 362 20 q 372 184 372 115 q 370 280 372 252 q 368 350 369 309 q 351 426 367 391 q 305 460 336 460 q 250 444 274 460 q 206 403 226 428 q 156 282 166 349 q 165 45 159 120 q 155 12 166 23 q 125 0 143 0 q 90 42 90 0 l 100 795 q 92 1156 100 939 q 104 1188 91 1177 q 132 1198 117 1198 q 158 1188 147 1198 q 167 1151 168 1177 q 165 1074 166 1124 q 162 960 163 1023 q 159 823 160 896 q 156 673 157 749 q 154 519 155 596 q 153 402 153 459 m 1 888 q 1 896 1 888 q 12 916 1 904 q 51 924 23 928 q 127 920 79 920 q 208 924 176 920 q 251 915 239 927 q 262 890 262 903 q 251 865 262 876 q 220 854 241 853 q 175 858 199 856 q 127 859 151 859 q 63 856 92 859 q 26 856 34 853 q 12 863 18 858 q 1 888 1 873 z "},"":{"ha":334,"x_min":-1,"x_max":351,"o":"m 199 956 q 199 941 199 956 q 198 890 198 927 q 197 593 197 853 q 205 45 197 332 q 193 12 206 23 q 165 0 180 0 q 139 10 151 0 q 130 56 128 20 q 132 153 131 91 q 135 286 134 216 q 138 547 138 426 q 137 735 138 668 q 136 860 137 803 q 128 1061 134 986 q 136 1094 126 1083 q 161 1104 146 1104 q 191 1094 177 1104 q 203 1058 204 1083 q 201 1008 202 1033 q 199 956 200 984 m 283 1259 q 321 1301 296 1301 q 342 1292 332 1301 q 351 1266 351 1283 q 342 1232 351 1249 q 319 1202 334 1215 q 258 1175 289 1175 q 211 1185 227 1175 q 180 1206 195 1194 q 151 1227 166 1217 q 117 1238 135 1237 q 71 1215 79 1240 q 30 1169 54 1169 q 9 1178 18 1169 q -1 1205 -1 1187 q 9 1240 -1 1223 q 34 1270 18 1257 q 100 1296 66 1296 q 150 1286 133 1296 q 182 1265 168 1277 q 283 1259 255 1206 z "},"":{"ha":261,"x_min":-21,"x_max":286,"o":"m 170 465 q 161 218 161 266 q 163 102 161 171 q 163 25 166 34 q 154 12 159 17 q 128 0 142 0 q 102 10 114 0 q 94 52 91 20 q 100 223 100 136 q 98 364 100 309 q 95 447 96 419 q 98 483 94 475 q 107 496 101 491 q 133 507 119 507 q 159 496 146 507 q 170 465 171 486 m -21 639 q -1 692 -21 672 q 66 727 36 727 q 112 719 97 727 q 139 702 127 711 q 163 683 151 692 q 190 674 176 675 q 226 694 216 673 q 242 724 235 716 q 260 732 248 732 q 279 721 273 732 q 286 694 286 709 q 279 663 286 679 q 259 635 271 647 q 204 606 231 606 q 164 614 177 606 q 138 632 151 623 q 54 654 89 672 q 37 631 42 647 q 2 600 25 600 q -21 639 -21 600 z "},"":{"ha":261,"x_min":94,"x_max":170,"o":"m 170 465 q 161 218 161 266 q 163 102 161 171 q 163 25 166 34 q 154 12 159 17 q 128 0 142 0 q 102 10 114 0 q 94 52 91 20 q 100 223 100 136 q 98 364 100 309 q 95 447 96 419 q 98 483 94 475 q 107 496 101 491 q 133 507 119 507 q 159 496 146 507 q 170 465 171 486 z "},"":{"ha":888,"x_min":128,"x_max":768,"o":"m 199 956 q 199 941 199 956 q 198 890 198 927 q 197 593 197 853 q 205 45 197 332 q 193 12 206 23 q 165 0 180 0 q 139 10 151 0 q 130 56 128 20 q 132 153 131 91 q 135 286 134 216 q 138 547 138 426 q 137 735 138 668 q 136 860 137 803 q 128 1061 134 986 q 136 1094 126 1083 q 161 1104 146 1104 q 191 1094 177 1104 q 203 1058 204 1083 q 201 1008 202 1033 q 199 956 200 984 m 768 1057 q 765 662 765 737 l 765 382 q 719 83 765 177 q 561 -15 671 -15 q 426 62 476 -15 q 372 292 372 144 q 386 380 372 367 q 416 393 399 393 q 443 380 433 393 q 450 345 452 367 q 446 255 446 309 q 456 159 446 201 q 481 92 465 118 q 566 44 513 44 q 667 115 637 44 q 700 369 699 187 q 701 577 701 450 q 702 759 701 704 q 701 863 702 813 q 692 1058 700 966 q 702 1089 690 1080 q 728 1099 713 1099 q 755 1089 742 1099 q 768 1057 768 1079 z "},"":{"ha":539,"x_min":80,"x_max":463,"o":"m 190 719 q 194 693 195 708 q 186 667 193 677 q 172 649 180 656 q 140 637 157 637 q 115 641 124 637 q 98 651 105 644 q 80 694 80 667 q 94 732 80 720 q 138 751 116 751 q 190 719 175 751 m 168 464 q 161 325 165 393 q 158 201 158 256 q 161 88 158 146 q 162 21 165 29 q 153 7 159 12 q 128 -5 142 -5 q 103 5 115 -5 q 94 47 91 16 q 101 221 101 133 q 99 364 101 309 q 95 446 96 418 q 98 482 94 474 q 107 495 101 490 q 133 506 119 506 q 158 496 147 506 q 168 464 169 486 m 446 736 q 450 733 446 736 q 459 719 454 729 q 463 693 464 708 q 456 667 462 677 q 441 649 450 656 q 404 637 425 637 q 365 651 382 637 q 349 694 349 665 q 367 737 349 722 q 401 751 385 751 q 427 748 417 751 q 446 736 437 744 m 374 315 q 373 336 374 315 q 371 386 372 357 q 368 460 370 414 q 405 507 366 507 q 442 460 444 507 q 436 100 436 252 l 436 -118 q 350 -355 436 -316 q 292 -368 322 -368 q 239 -360 261 -368 q 199 -335 216 -352 q 163 -229 163 -300 q 201 -176 163 -176 q 223 -187 214 -176 q 231 -219 232 -199 q 232 -255 230 -239 q 240 -285 234 -272 q 282 -313 253 -313 q 328 -302 311 -313 q 355 -269 345 -292 q 375 -106 372 -228 l 375 -82 l 376 126 l 376 218 q 374 315 376 274 z "},"":{"ha":555,"x_min":39,"x_max":561,"o":"m 434 1057 q 431 662 431 737 l 431 382 q 385 83 431 177 q 227 -15 338 -15 q 92 62 142 -15 q 39 292 39 144 q 52 380 39 367 q 82 393 65 393 q 109 380 99 393 q 117 345 119 367 q 113 255 113 309 q 122 159 113 201 q 148 92 132 118 q 232 44 179 44 q 334 115 303 44 q 366 369 365 187 q 368 577 368 450 q 368 759 368 704 q 368 863 368 813 q 359 1058 366 966 q 368 1089 357 1080 q 394 1099 380 1099 q 421 1089 408 1099 q 434 1057 434 1079 m 437 1270 q 531 1200 467 1231 q 561 1160 561 1186 q 551 1139 561 1147 q 528 1131 541 1131 q 494 1144 507 1131 q 468 1170 480 1158 q 441 1196 456 1182 q 398 1236 416 1219 q 361 1205 379 1219 q 298 1153 312 1166 q 260 1131 276 1131 q 235 1139 244 1131 q 227 1159 227 1147 q 243 1194 227 1184 q 275 1212 260 1204 q 304 1230 290 1221 q 349 1267 336 1252 q 391 1300 375 1300 q 417 1291 407 1300 q 437 1270 427 1282 z "},"":{"ha":285,"x_min":-91,"x_max":291,"o":"m 225 699 q 230 693 225 699 q 244 676 234 688 q 266 650 254 664 q 284 629 277 637 q 291 608 291 621 q 281 587 291 595 q 258 579 271 579 q 218 608 232 579 q 204 637 211 622 q 189 668 197 652 q 149 718 172 696 q 91 635 119 688 q 57 587 68 594 q 34 579 46 579 q 13 587 22 579 q 3 608 3 595 q 28 651 3 627 q 104 751 75 696 q 151 782 121 782 q 188 758 175 782 q 209 722 201 734 q 225 699 217 709 m 149 507 q 188 460 189 507 q 182 100 182 252 l 182 -118 q 96 -355 182 -316 q 37 -368 68 -368 q -16 -360 7 -368 q -55 -335 -38 -352 q -91 -229 -91 -300 q -53 -176 -91 -176 q -32 -187 -41 -176 q -23 -219 -22 -199 q -22 -255 -24 -239 q -14 -285 -20 -272 q 28 -313 -1 -313 q 74 -302 57 -313 q 100 -269 90 -292 q 121 -106 118 -228 l 121 150 q 117 305 121 254 q 109 439 111 395 q 119 495 107 484 q 149 507 130 507 z "},"":{"ha":500,"x_min":85,"x_max":452,"o":"m 415 510 q 439 500 429 510 q 449 474 449 490 q 434 436 449 458 q 396 389 418 414 q 350 339 374 364 q 312 298 329 317 q 411 111 340 212 q 441 65 431 84 q 452 34 452 47 q 440 9 452 22 q 415 -3 428 -3 q 374 25 385 -3 q 346 88 363 52 q 311 158 329 123 q 261 251 282 215 q 221 214 243 233 q 174 170 191 186 q 166 163 170 166 l 166 161 q 167 124 166 144 q 168 84 168 104 q 169 45 169 64 q 157 14 170 26 q 131 3 145 3 q 106 13 117 3 q 97 55 96 23 q 99 140 98 87 q 100 254 100 193 q 102 518 102 433 q 101 694 102 602 q 99 872 100 787 q 85 1154 95 1064 q 96 1186 83 1176 q 124 1197 109 1197 q 154 1186 140 1197 q 166 1150 167 1176 q 164 1084 165 1124 q 164 997 164 1044 q 165 786 165 854 q 165 644 165 718 q 164 494 165 570 q 165 231 163 340 q 316 400 235 296 q 366 473 355 450 q 415 510 385 510 m 331 -189 q 281 -327 331 -265 q 223 -353 243 -374 q 218 -340 218 -348 q 233 -309 218 -326 q 269 -219 267 -267 q 237 -216 253 -225 q 207 -173 207 -199 q 224 -131 207 -146 q 261 -115 241 -115 q 292 -120 281 -115 q 313 -136 304 -126 q 331 -189 331 -157 z "},"":{"ha":506,"x_min":96,"x_max":456,"o":"m 170 128 l 172 49 q 161 14 173 26 q 138 3 149 3 q 120 5 127 3 q 109 14 114 8 q 100 47 97 25 q 107 183 107 110 q 96 471 107 386 q 122 514 92 502 q 143 517 130 517 q 167 504 157 517 q 176 466 177 492 q 171 402 175 441 q 166 323 166 363 q 168 237 166 267 q 323 401 248 309 q 374 474 363 452 q 418 510 392 510 q 443 500 432 510 q 453 472 453 490 q 437 432 453 455 q 397 384 420 409 q 349 334 374 359 q 315 300 330 316 q 362 194 334 241 q 415 107 395 137 q 456 30 456 45 q 444 6 456 16 q 418 -3 431 -3 q 378 25 390 -3 q 350 87 366 52 q 316 157 333 123 q 282 223 298 192 q 268 252 275 239 q 203 189 236 222 q 170 157 182 169 q 170 128 170 142 z "},"":{"ha":721,"x_min":103,"x_max":599,"o":"m 141 1102 q 182 1043 182 1102 q 181 874 182 963 q 180 714 180 786 q 178 547 179 642 q 176 59 177 348 q 435 68 311 56 q 473 58 459 71 q 486 31 486 45 q 474 6 486 17 q 438 -3 462 -4 q 272 0 361 3 q 164 -6 182 -3 q 137 -7 146 -9 q 122 0 129 -5 q 109 34 107 12 q 117 449 117 193 q 116 765 117 705 q 115 877 116 826 q 103 1059 112 978 q 113 1091 101 1080 q 141 1102 125 1102 m 579 588 q 584 585 579 588 q 593 570 588 581 q 599 544 599 559 q 593 517 599 528 q 577 499 587 506 q 534 487 559 487 q 482 519 498 487 q 477 545 477 530 q 517 599 477 585 q 538 602 528 602 q 559 599 549 602 q 579 588 570 595 z "},"":{"ha":380,"x_min":98,"x_max":382,"o":"m 172 887 q 171 846 172 887 q 169 708 170 804 q 168 411 168 612 q 174 39 168 210 q 163 5 174 17 q 136 -6 152 -6 q 109 4 121 -6 q 98 52 96 15 q 103 164 100 90 q 107 327 105 239 q 111 649 111 519 q 110 844 111 779 q 109 964 110 909 q 102 1153 108 1067 q 111 1186 101 1175 q 137 1198 121 1198 q 166 1186 153 1198 q 178 1139 179 1175 q 175 1037 176 1104 q 172 887 173 970 m 362 470 q 367 467 362 470 q 376 452 371 463 q 382 426 382 441 q 376 399 382 410 q 360 381 370 388 q 317 369 342 369 q 265 401 281 369 q 260 427 260 412 q 300 481 260 467 q 321 484 311 484 q 342 481 332 484 q 362 470 353 477 z "},"":{"ha":518,"x_min":0,"x_max":486,"o":"m 141 1102 q 182 1043 182 1102 q 181 874 182 963 q 180 714 180 786 q 178 547 179 642 q 178 498 178 523 q 225 555 206 530 q 287 635 268 611 q 319 679 305 660 q 349 699 334 697 q 373 692 363 701 q 370 640 397 671 q 338 605 357 625 q 300 565 319 586 q 178 425 228 490 q 176 59 176 265 q 435 68 311 56 q 473 58 459 71 q 486 31 486 45 q 474 6 486 17 q 438 -3 462 -4 q 272 0 361 3 q 164 -6 182 -3 q 137 -7 146 -9 q 122 0 129 -5 q 109 34 107 12 q 116 346 115 159 q 103 330 109 336 q 65 280 81 300 q 35 259 50 260 q 10 266 20 257 q 0 289 1 274 q 14 318 -1 304 q 48 354 28 332 q 91 400 68 375 q 117 428 104 414 q 117 449 117 438 q 116 765 117 705 q 115 877 116 826 q 103 1059 112 978 q 113 1091 101 1080 q 141 1102 125 1102 z "},"":{"ha":270,"x_min":-18,"x_max":304,"o":"m 241 671 q 270 690 255 688 q 294 684 285 692 q 304 661 304 675 q 285 624 305 647 q 233 573 264 601 q 172 511 202 546 q 168 506 170 509 q 168 411 168 462 q 174 39 168 210 q 163 5 174 17 q 136 -6 152 -6 q 109 4 121 -6 q 98 52 96 15 q 103 164 100 90 q 107 327 105 239 q 109 429 108 380 q 45 346 80 389 q 17 327 32 328 q -8 334 2 326 q -18 357 -18 342 q 1 392 -18 372 q 52 444 21 412 q 110 506 80 472 q 111 650 111 585 q 110 844 111 779 q 109 964 110 909 q 102 1153 108 1067 q 111 1186 101 1175 q 137 1198 121 1198 q 166 1186 153 1198 q 178 1139 179 1175 q 175 1037 176 1104 q 172 887 173 970 q 170 708 170 804 q 168 576 169 657 q 241 671 205 622 z "},"":{"ha":727,"x_min":103,"x_max":623,"o":"m 623 1063 q 618 585 618 725 q 619 379 618 445 q 620 255 619 314 q 623 84 621 130 q 621 30 625 39 q 610 15 616 21 q 551 10 582 -10 q 533 35 538 18 q 389 415 473 210 q 272 705 305 620 q 167 987 212 859 l 176 41 q 165 9 176 20 q 140 -1 154 -1 q 114 11 126 -1 q 103 44 102 22 q 110 469 110 231 l 110 871 q 109 1053 110 977 q 124 1091 109 1078 q 156 1104 139 1104 q 206 1068 194 1104 q 241 971 218 1032 q 291 837 263 911 q 351 679 319 762 q 414 514 382 596 q 476 354 446 431 q 530 214 506 277 q 572 106 555 151 q 573 102 572 104 q 564 392 568 235 q 558 677 561 583 q 554 870 556 772 q 548 1063 551 967 q 560 1095 548 1084 q 586 1105 572 1105 q 611 1095 600 1105 q 623 1063 623 1084 m 348 1213 q 357 1218 348 1213 q 390 1239 366 1224 q 444 1278 414 1253 q 494 1299 473 1303 q 522 1282 514 1295 q 505 1230 539 1255 q 442 1196 490 1219 q 376 1161 395 1173 q 347 1145 357 1149 q 324 1143 337 1141 q 302 1171 299 1147 q 317 1192 304 1183 q 348 1213 329 1202 z "},"":{"ha":511,"x_min":90,"x_max":433,"o":"m 430 329 l 429 182 q 433 47 429 110 q 422 13 435 24 q 396 1 410 1 q 371 12 382 1 q 362 44 359 22 q 366 93 364 65 q 369 151 368 121 q 372 249 372 210 q 370 306 372 288 q 368 358 369 323 q 349 424 366 393 q 302 455 332 455 q 249 442 271 455 q 208 408 227 429 q 156 302 169 363 q 155 265 155 283 l 155 230 q 158 67 155 107 q 153 15 161 28 q 127 1 146 1 q 98 13 109 1 q 90 57 87 25 q 96 237 96 144 q 92 469 96 395 q 130 514 89 514 q 156 501 151 514 q 160 474 162 488 q 158 450 159 460 q 158 429 158 439 q 158 409 158 418 q 264 509 198 485 q 307 516 286 516 q 352 506 329 516 q 392 474 375 496 q 430 329 430 425 m 220 640 q 306 737 283 707 q 376 777 348 794 q 378 724 405 758 q 338 680 359 700 q 274 614 290 632 q 248 588 258 597 q 227 580 237 580 q 209 586 217 580 q 200 605 200 593 q 220 640 200 618 z "},"":{"ha":966,"x_min":58,"x_max":952,"o":"m 420 1031 q 350 1049 389 1049 q 280 1031 311 1049 q 223 980 249 1013 q 178 904 198 948 q 145 810 159 861 q 119 594 119 706 q 127 400 119 482 q 151 259 136 319 q 186 158 165 199 q 231 94 206 118 q 327 50 275 50 q 419 76 378 50 q 492 165 460 102 q 563 597 563 305 q 517 902 563 779 q 420 1031 483 994 m 628 496 q 751 500 710 496 q 805 496 794 505 q 816 473 816 488 q 746 437 816 435 q 720 437 732 437 l 667 438 l 628 438 l 627 285 l 627 58 q 853 64 795 58 q 923 67 913 70 q 939 58 932 64 q 952 32 952 47 q 940 6 952 17 q 904 -3 927 -4 q 706 0 791 6 q 610 -7 621 -5 q 590 -7 599 -9 q 574 0 581 -5 q 560 28 558 12 q 564 73 562 45 q 569 134 566 100 q 576 258 574 208 q 430 11 531 74 q 333 -16 389 -16 q 124 141 191 -16 q 58 605 58 298 q 136 966 58 826 q 351 1111 216 1111 q 574 854 530 1111 q 572 1045 576 1016 q 602 1099 564 1099 l 691 1094 q 805 1098 780 1094 q 840 1098 831 1101 q 857 1089 850 1095 q 870 1063 870 1078 q 858 1038 870 1048 q 824 1028 845 1027 q 779 1031 803 1029 q 728 1034 755 1032 q 630 1032 671 1036 q 629 923 630 981 q 629 777 629 852 q 628 496 628 578 z "},"":{"ha":776,"x_min":48,"x_max":712,"o":"m 229 46 q 355 265 355 46 q 325 414 355 364 q 241 464 295 464 q 142 397 178 464 q 110 248 110 338 q 178 62 110 111 q 229 46 201 46 m 395 399 q 446 484 412 448 q 535 527 489 527 q 609 516 582 527 q 656 488 637 506 q 686 446 675 470 q 703 395 696 422 q 712 289 712 354 q 650 239 712 239 q 553 239 602 239 l 420 238 q 549 43 422 43 q 633 100 606 43 q 671 136 651 136 q 688 126 682 136 q 693 95 695 117 q 679 53 692 74 q 646 16 666 32 q 561 -15 606 -15 q 490 -6 516 -15 q 444 19 465 2 q 387 99 413 45 q 224 -14 335 -14 q 99 52 149 -14 q 48 241 48 121 q 107 454 48 376 q 241 527 160 526 q 372 448 321 529 q 395 399 385 427 m 658 299 q 604 446 660 404 q 549 463 581 463 q 499 452 517 463 q 466 424 480 441 q 444 382 452 406 q 430 334 435 359 q 424 297 426 316 l 523 292 q 658 299 608 292 z "},"":{"ha":621,"x_min":103,"x_max":568,"o":"m 180 315 q 189 47 185 161 q 177 13 189 24 q 151 2 165 2 q 126 13 137 2 q 116 44 116 23 l 116 554 q 103 1029 116 819 q 119 1070 101 1059 q 135 1076 127 1075 q 171 1085 143 1077 q 310 1105 241 1105 q 424 1089 378 1105 q 500 1043 469 1074 q 568 847 568 977 q 437 525 568 680 q 392 475 416 500 q 548 60 458 272 q 532 7 564 24 q 513 3 524 3 q 478 31 488 3 q 439 152 456 94 q 404 264 421 210 q 348 434 374 363 q 180 315 273 368 m 178 379 q 378 549 285 441 q 504 841 504 694 q 397 1037 504 993 q 249 1044 339 1061 q 179 1022 206 1036 q 170 680 170 818 q 171 521 170 532 q 171 501 171 510 q 172 482 172 492 q 174 454 173 472 q 176 406 175 435 q 178 379 177 394 m 308 1213 q 317 1218 308 1213 q 350 1239 326 1224 q 404 1278 374 1253 q 454 1299 433 1303 q 482 1282 474 1295 q 465 1230 499 1255 q 402 1196 450 1219 q 336 1161 355 1173 q 307 1145 317 1149 q 284 1143 297 1141 q 262 1171 259 1147 q 277 1192 264 1183 q 308 1213 289 1202 z "},"":{"ha":621,"x_min":103,"x_max":568,"o":"m 180 315 q 189 47 185 161 q 177 13 189 24 q 151 2 165 2 q 126 13 137 2 q 116 44 116 23 l 116 554 q 103 1029 116 819 q 119 1070 101 1059 q 135 1076 127 1075 q 171 1085 143 1077 q 310 1105 241 1105 q 424 1089 378 1105 q 500 1043 469 1074 q 568 847 568 977 q 437 525 568 680 q 392 475 416 500 q 548 60 458 272 q 532 7 564 24 q 513 3 524 3 q 478 31 488 3 q 439 152 456 94 q 404 264 421 210 q 348 434 374 363 q 180 315 273 368 m 178 379 q 378 549 285 441 q 504 841 504 694 q 397 1037 504 993 q 249 1044 339 1061 q 179 1022 206 1036 q 170 680 170 818 q 171 521 170 532 q 171 501 171 510 q 172 482 172 492 q 174 454 173 472 q 176 406 175 435 q 178 379 177 394 m 397 -189 q 347 -327 397 -265 q 290 -353 309 -374 q 285 -340 285 -348 q 299 -309 285 -326 q 335 -219 334 -267 q 303 -216 319 -225 q 273 -173 273 -199 q 290 -131 273 -146 q 327 -115 307 -115 q 359 -120 347 -115 q 379 -136 370 -126 q 397 -189 397 -157 z "},"":{"ha":360,"x_min":68,"x_max":368,"o":"m 368 489 q 332 447 368 452 q 231 370 287 438 q 163 226 170 297 q 160 169 160 195 q 165 39 160 107 q 154 5 167 17 q 127 -6 142 -6 q 102 4 113 -6 q 93 36 91 15 q 96 86 95 58 q 99 145 98 114 q 100 263 100 198 q 98 426 100 373 q 98 488 95 479 q 107 500 102 496 q 133 511 119 511 q 158 501 146 511 q 168 475 169 491 q 165 444 167 459 q 161 406 163 429 q 154 330 157 370 q 233 458 182 399 q 334 523 291 523 q 360 513 352 523 q 368 489 368 503 m 192 -189 q 142 -327 192 -265 q 84 -353 104 -374 q 79 -340 79 -348 q 94 -309 79 -326 q 130 -219 128 -267 q 98 -216 114 -225 q 68 -173 68 -199 q 85 -131 68 -146 q 122 -115 102 -115 q 153 -120 142 -115 q 174 -136 165 -126 q 192 -189 192 -157 z "},"":{"ha":621,"x_min":103,"x_max":568,"o":"m 180 315 q 189 47 185 161 q 177 13 189 24 q 151 2 165 2 q 126 13 137 2 q 116 44 116 23 l 116 554 q 103 1029 116 819 q 119 1070 101 1059 q 135 1076 127 1075 q 171 1085 143 1077 q 310 1105 241 1105 q 424 1089 378 1105 q 500 1043 469 1074 q 568 847 568 977 q 437 525 568 680 q 392 475 416 500 q 548 60 458 272 q 532 7 564 24 q 513 3 524 3 q 478 31 488 3 q 439 152 456 94 q 404 264 421 210 q 348 434 374 363 q 180 315 273 368 m 178 379 q 378 549 285 441 q 504 841 504 694 q 397 1037 504 993 q 249 1044 339 1061 q 179 1022 206 1036 q 170 680 170 818 q 171 521 170 532 q 171 501 171 510 q 172 482 172 492 q 174 454 173 472 q 176 406 175 435 q 178 379 177 394 m 466 1293 q 472 1293 466 1293 q 489 1285 478 1293 q 499 1257 499 1276 q 482 1230 499 1238 q 449 1214 465 1221 q 419 1196 434 1206 q 372 1159 385 1176 q 328 1124 343 1124 q 302 1133 312 1124 q 282 1153 292 1141 q 259 1175 273 1165 q 231 1193 246 1184 q 200 1211 216 1202 q 173 1226 184 1219 q 150 1258 150 1240 q 159 1285 150 1276 q 180 1293 168 1293 q 215 1278 200 1293 q 246 1251 231 1263 q 279 1226 261 1240 q 329 1187 307 1206 q 417 1263 401 1246 q 444 1288 435 1283 q 466 1293 453 1293 z "},"":{"ha":360,"x_min":43,"x_max":392,"o":"m 368 489 q 332 447 368 452 q 231 370 287 438 q 163 226 170 297 q 160 169 160 195 q 165 39 160 107 q 154 5 167 17 q 127 -6 142 -6 q 102 4 113 -6 q 93 36 91 15 q 96 86 95 58 q 99 145 98 114 q 100 263 100 198 q 98 426 100 373 q 98 488 95 479 q 107 500 102 496 q 133 511 119 511 q 158 501 146 511 q 168 475 169 491 q 165 444 167 459 q 161 406 163 429 q 154 330 157 370 q 233 458 182 399 q 334 523 291 523 q 360 513 352 523 q 368 489 368 503 m 355 760 q 363 760 355 760 q 382 751 372 760 q 392 724 392 743 q 375 696 392 704 q 342 679 357 688 q 312 661 327 671 q 266 621 280 639 q 241 593 251 602 q 218 583 231 583 q 174 614 199 583 q 114 664 151 642 q 66 693 77 686 q 43 724 43 706 q 52 751 43 743 q 73 760 61 760 q 108 745 92 760 q 139 717 124 730 q 172 689 154 704 q 222 648 199 667 q 316 738 277 694 q 355 760 338 760 z "},"":{"ha":285,"x_min":-91,"x_max":188,"o":"m 149 507 q 188 460 189 507 q 182 100 182 252 l 182 -118 q 96 -355 182 -316 q 37 -368 68 -368 q -16 -360 7 -368 q -55 -335 -38 -352 q -91 -229 -91 -300 q -53 -176 -91 -176 q -32 -187 -41 -176 q -23 -219 -22 -199 q -22 -255 -24 -239 q -14 -285 -20 -272 q 28 -313 -1 -313 q 74 -302 57 -313 q 100 -269 90 -292 q 121 -106 118 -228 l 121 150 q 117 305 121 254 q 109 439 111 395 q 119 495 107 484 q 149 507 130 507 z "},"":{"ha":470,"x_min":101,"x_max":389,"o":"m 323 699 q 327 693 323 699 q 341 676 332 688 q 363 650 351 664 q 382 629 375 637 q 389 608 389 621 q 379 587 389 595 q 356 579 369 579 q 315 608 330 579 q 302 637 309 622 q 286 668 295 652 q 246 718 270 696 q 189 635 216 688 q 155 587 166 594 q 132 579 144 579 q 110 587 119 579 q 101 608 101 595 q 125 651 101 627 q 202 751 172 696 q 248 782 219 782 q 286 758 273 782 q 307 722 299 734 q 323 699 315 709 z "},"":{"ha":479,"x_min":96,"x_max":383,"o":"m 383 753 q 383 746 383 753 q 376 732 383 740 q 358 711 370 724 q 336 685 346 697 q 317 663 326 673 q 289 619 302 643 q 240 579 267 579 q 198 607 214 579 q 115 715 167 665 q 96 750 96 734 q 105 774 96 766 q 126 782 114 782 q 168 753 151 782 q 183 726 175 741 q 201 696 191 711 q 241 643 220 664 q 296 724 273 672 q 326 773 315 765 q 351 782 338 782 q 373 774 363 782 q 383 753 383 766 z "},"":{"ha":469,"x_min":134,"x_max":376,"o":"m 188 722 q 188 704 188 722 q 205 665 188 686 q 252 644 222 644 q 301 671 282 644 q 320 734 320 697 q 301 791 320 772 q 259 811 281 811 q 225 803 237 811 q 205 783 213 795 q 188 722 188 758 m 171 826 q 180 835 171 826 q 210 853 188 844 q 258 863 233 863 q 305 855 283 864 q 343 827 327 846 q 376 723 376 790 q 340 632 376 672 q 249 591 302 591 q 168 624 199 591 q 134 706 134 658 q 144 781 134 753 q 171 826 155 808 z "},"":{"ha":533,"x_min":111,"x_max":418,"o":"m 111 639 q 131 692 111 672 q 198 727 168 727 q 243 719 229 727 q 271 702 258 711 q 295 683 283 692 q 321 674 307 675 q 357 694 348 673 q 373 724 367 716 q 392 732 380 732 q 411 721 404 732 q 418 694 418 709 q 410 663 418 679 q 391 635 403 647 q 335 606 362 606 q 295 614 309 606 q 270 632 282 623 q 186 654 220 672 q 168 631 174 647 q 134 600 157 600 q 111 639 111 600 z "},"":{"ha":313,"x_min":90,"x_max":204,"o":"m 200 719 q 204 693 205 708 q 197 667 203 677 q 182 649 191 656 q 151 637 167 637 q 125 641 134 637 q 107 651 115 644 q 90 694 90 667 q 104 732 90 720 q 149 751 126 751 q 200 719 185 751 z "},"":{"ha":0,"x_min":0,"x_max":0,"o":""},"":{"ha":619,"x_min":81,"x_max":538,"o":"m 125 319 q 294 314 180 314 q 494 319 407 314 q 528 310 517 320 q 538 288 538 300 q 528 265 538 275 q 486 256 517 255 q 347 258 414 258 q 125 256 239 258 q 91 265 102 255 q 81 288 81 275 q 92 311 81 301 q 125 319 102 321 z "},"":{"ha":840,"x_min":81,"x_max":759,"o":"m 125 319 q 391 312 208 312 q 714 317 573 312 q 748 308 736 318 q 759 286 759 298 q 749 265 759 274 q 711 258 739 256 q 557 260 662 260 q 125 254 369 260 q 91 264 102 253 q 81 288 81 275 q 92 311 81 300 q 125 319 102 321 z "},"":{"ha":278,"x_min":77,"x_max":201,"o":"m 77 1081 q 123 1209 77 1154 q 180 1234 157 1251 q 185 1223 185 1231 q 175 1197 185 1210 q 159 1176 165 1184 q 149 1158 153 1168 q 140 1112 140 1139 q 172 1108 156 1117 q 201 1065 201 1091 q 185 1023 201 1039 q 142 1007 170 1007 q 96 1028 114 1007 q 77 1081 77 1050 z "},"":{"ha":268,"x_min":77,"x_max":191,"o":"m 191 1177 q 146 1046 191 1110 q 94 1021 115 1001 q 90 1033 90 1026 q 100 1059 90 1046 q 115 1083 111 1072 q 122 1106 120 1095 q 125 1125 125 1117 q 127 1138 126 1134 q 100 1143 113 1133 q 77 1184 77 1161 q 92 1222 77 1207 q 123 1237 106 1237 q 151 1234 141 1237 q 170 1223 161 1230 q 191 1177 191 1206 z "},"":{"ha":266,"x_min":77,"x_max":189,"o":"m 144 -113 q 94 -133 112 -151 q 90 -122 90 -129 q 100 -96 90 -109 q 115 -72 111 -83 q 122 -49 120 -60 q 125 -30 125 -38 q 127 -17 126 -21 q 100 -12 113 -22 q 77 29 77 6 q 92 67 77 52 q 123 82 106 82 q 151 79 141 82 q 170 68 161 75 q 189 29 189 52 q 185 -13 189 6 q 176 -50 182 -32 q 144 -113 164 -89 z "},"":{"ha":454,"x_min":77,"x_max":378,"o":"m 254 1081 q 300 1209 254 1151 q 347 1240 329 1244 q 363 1221 363 1234 q 352 1197 363 1210 q 336 1176 342 1184 q 326 1158 330 1168 q 316 1112 316 1139 q 349 1108 332 1117 q 378 1065 378 1091 q 362 1023 378 1039 q 319 1007 347 1007 q 272 1028 291 1007 q 254 1081 254 1050 m 77 1081 q 123 1209 77 1154 q 180 1234 157 1251 q 185 1223 185 1231 q 175 1197 185 1210 q 159 1176 165 1184 q 149 1158 153 1168 q 140 1112 140 1139 q 172 1108 156 1117 q 201 1065 201 1091 q 185 1023 201 1039 q 142 1007 170 1007 q 96 1028 114 1007 q 77 1081 77 1050 z "},"":{"ha":454,"x_min":77,"x_max":378,"o":"m 201 1168 q 155 1040 201 1095 q 109 1010 127 1006 q 92 1028 92 1016 q 102 1053 92 1042 q 119 1073 113 1065 q 129 1090 125 1081 q 138 1138 138 1110 q 107 1141 123 1132 q 77 1184 77 1158 q 93 1227 77 1211 q 136 1243 109 1243 q 182 1222 164 1243 q 201 1168 201 1200 m 378 1168 q 332 1040 378 1096 q 285 1010 304 1006 q 269 1028 269 1017 q 279 1053 269 1041 q 296 1073 290 1065 q 307 1090 302 1081 q 315 1138 315 1110 q 283 1141 300 1132 q 254 1184 254 1158 q 270 1227 254 1211 q 306 1243 286 1243 q 339 1237 327 1243 q 359 1221 351 1232 q 378 1168 378 1200 z "},"":{"ha":427,"x_min":77,"x_max":350,"o":"m 305 -113 q 255 -133 273 -151 q 250 -122 250 -129 q 261 -96 250 -109 q 276 -72 271 -83 q 283 -49 281 -60 q 286 -30 286 -38 q 288 -17 287 -21 q 261 -12 273 -22 q 238 29 238 6 q 252 67 238 52 q 284 82 267 82 q 312 79 302 82 q 330 68 321 75 q 350 29 350 52 q 346 -13 350 6 q 336 -50 342 -32 q 305 -113 325 -89 m 144 -113 q 94 -133 112 -151 q 90 -122 90 -129 q 100 -96 90 -109 q 115 -72 111 -83 q 122 -49 120 -60 q 125 -30 125 -38 q 127 -17 126 -21 q 100 -12 113 -22 q 77 29 77 6 q 92 67 77 52 q 123 82 106 82 q 151 79 141 82 q 170 68 161 75 q 189 29 189 52 q 185 -13 189 6 q 176 -50 182 -32 q 144 -113 164 -89 z "},"":{"ha":359,"x_min":49,"x_max":309,"o":"m 49 812 q 49 820 49 812 q 60 840 49 827 q 98 848 71 852 q 151 844 119 845 q 151 878 151 861 q 142 1221 148 1074 q 152 1259 140 1247 q 178 1272 163 1272 q 206 1259 194 1272 q 217 1207 218 1246 q 214 1120 215 1168 q 211 1025 212 1072 q 209 930 210 978 q 208 844 208 889 q 255 847 235 845 q 298 839 287 850 q 309 813 309 827 q 299 788 309 800 q 267 778 288 777 q 222 781 246 779 q 208 782 215 781 q 207 594 207 661 q 207 459 207 514 q 208 365 208 405 q 209 296 208 325 q 210 243 210 267 q 214 163 213 196 q 204 120 216 131 q 180 109 193 109 q 156 120 167 109 q 145 161 144 131 q 148 217 146 192 q 149 261 149 241 q 150 299 150 281 q 151 346 151 318 q 152 516 152 428 q 152 696 152 604 q 151 782 151 739 q 111 780 130 781 q 73 779 81 777 q 60 787 65 781 q 49 812 49 796 z "},"":{"ha":247,"x_min":49,"x_max":309,"o":"m 49 513 q 49 521 49 513 q 60 541 49 529 q 98 549 71 553 q 152 545 119 546 q 152 696 152 619 q 151 782 151 739 q 111 780 130 781 q 73 779 81 777 q 60 787 65 781 q 49 812 49 796 q 60 840 49 827 q 98 848 71 852 q 151 844 119 845 q 151 878 151 861 q 142 1221 148 1074 q 152 1259 140 1247 q 178 1272 163 1272 q 206 1259 194 1272 q 217 1207 218 1246 q 214 1120 215 1168 q 211 1025 212 1072 q 209 930 210 978 q 208 844 208 889 q 255 847 235 845 q 298 839 287 850 q 309 813 309 827 q 299 788 309 800 q 267 778 288 777 q 222 781 246 779 q 208 782 215 781 q 207 594 207 661 q 207 546 207 568 q 255 549 235 547 q 298 540 287 552 q 309 515 309 528 q 299 490 309 501 q 267 479 288 478 q 222 483 246 481 q 207 484 214 483 q 208 460 207 471 q 208 365 208 405 q 209 296 208 325 q 210 243 210 267 q 214 163 213 196 q 204 120 216 131 q 180 109 193 109 q 156 120 167 109 q 145 161 144 131 q 148 217 146 192 q 149 261 149 241 q 150 299 150 281 q 151 346 151 318 q 152 484 152 413 q 111 481 130 483 q 73 480 81 478 q 60 488 65 483 q 49 513 49 498 z "},"":{"ha":555,"x_min":195,"x_max":359,"o":"m 334 507 q 339 502 334 507 q 352 481 345 497 q 359 443 359 465 q 351 405 359 420 q 330 380 343 389 q 282 361 307 361 q 244 367 258 361 q 220 382 231 372 q 195 444 195 406 q 250 522 195 502 q 279 527 265 527 q 308 522 294 527 q 334 507 322 517 z "},"":{"ha":938,"x_min":94,"x_max":841,"o":"m 821 80 q 826 77 821 80 q 836 62 830 73 q 841 36 841 52 q 835 9 841 20 q 819 -9 829 -2 q 776 -21 801 -21 q 724 12 740 -21 q 720 37 720 22 q 759 91 720 77 q 780 94 770 94 q 802 91 791 94 q 821 80 812 87 m 509 80 q 513 77 509 80 q 523 62 517 73 q 528 36 528 52 q 522 9 528 20 q 506 -9 516 -2 q 463 -21 488 -21 q 412 12 427 -21 q 407 37 407 22 q 446 91 407 77 q 468 94 457 94 q 489 91 478 94 q 509 80 500 87 m 196 80 q 200 77 196 80 q 210 62 205 73 q 216 36 216 52 q 210 9 216 20 q 194 -9 203 -2 q 151 -21 176 -21 q 99 12 115 -21 q 94 37 94 22 q 134 91 94 77 q 155 94 144 94 q 176 91 165 94 q 196 80 187 87 z "},"":{"ha":1080,"x_min":72,"x_max":994,"o":"m 776 245 q 852 69 776 69 q 932 178 913 69 q 939 254 939 213 q 932 327 939 296 q 914 378 926 357 q 856 422 892 422 q 796 368 819 422 q 776 245 776 317 m 857 487 q 958 425 922 488 q 994 245 994 361 q 955 85 994 153 q 851 12 914 12 q 752 71 787 12 q 717 238 717 130 q 801 469 717 416 q 857 487 827 486 m 423 245 q 499 69 423 69 q 580 178 561 69 q 586 254 586 213 q 579 327 586 296 q 562 378 573 357 q 503 422 539 422 q 444 368 466 422 q 423 245 423 317 m 505 487 q 605 425 569 488 q 641 245 641 361 q 602 85 641 153 q 498 12 562 12 q 399 71 435 12 q 364 238 364 130 q 448 469 364 416 q 505 487 474 486 m 277 300 q 262 258 277 300 q 222 145 248 217 q 185 37 197 73 q 162 -6 173 1 q 137 -14 151 -14 q 113 1 123 -14 q 118 50 103 15 q 157 149 132 85 q 211 285 182 212 q 270 439 239 359 q 331 602 300 520 q 389 765 361 684 q 442 917 418 845 q 515 1155 495 1074 q 531 1180 519 1171 q 553 1188 543 1188 q 572 1183 564 1188 q 587 1170 581 1178 q 589 1131 600 1151 q 559 1066 578 1111 q 516 956 541 1021 q 462 812 492 892 q 401 646 433 732 q 338 471 370 559 q 277 300 306 382 m 207 740 q 288 850 268 740 q 294 925 294 884 q 287 998 294 966 q 270 1050 281 1029 q 210 1094 247 1094 q 151 1039 174 1094 q 131 906 131 989 q 152 781 131 823 q 207 740 173 740 m 156 1141 q 213 1158 181 1158 q 270 1143 244 1159 q 313 1096 295 1127 q 349 917 349 1032 q 311 757 349 824 q 206 684 269 684 q 107 742 142 684 q 72 909 72 801 q 156 1141 72 1086 z "},"":{"ha":431,"x_min":102,"x_max":322,"o":"m 319 37 q 319 30 319 37 q 307 12 319 22 q 277 3 296 3 q 247 31 258 3 q 219 89 235 60 q 187 142 203 118 q 134 207 155 191 q 102 258 102 231 q 116 295 102 284 q 147 326 131 307 q 181 370 163 345 q 240 466 226 432 q 266 507 255 499 q 289 515 277 515 q 312 504 301 515 q 322 481 322 493 q 307 442 322 458 q 271 400 292 426 q 229 349 250 375 q 180 262 180 284 q 267 113 180 227 q 303 69 288 85 q 319 37 319 53 z "},"":{"ha":430,"x_min":109,"x_max":328,"o":"m 186 37 q 149 3 172 3 q 123 12 135 3 q 112 37 112 22 q 127 69 112 53 q 163 113 142 85 q 203 169 184 140 q 250 256 250 237 q 236 300 250 274 q 201 352 221 326 q 159 402 181 378 q 127 438 138 426 q 109 476 109 460 q 119 504 109 493 q 141 515 129 515 q 183 481 168 515 q 241 390 193 456 q 309 300 298 310 q 328 265 328 284 q 310 217 328 230 q 276 185 292 204 q 243 142 260 167 q 186 37 209 91 z "},"":{"ha":694,"x_min":16,"x_max":596,"o":"m 524 302 q 536 337 524 326 q 563 349 549 349 q 587 339 576 349 q 596 308 597 329 q 526 73 588 161 q 361 -16 463 -16 q 109 397 150 -16 q 60 394 84 395 q 27 403 37 393 q 16 426 16 413 q 27 449 16 438 q 60 458 38 459 q 104 454 81 456 q 98 580 100 513 q 66 578 80 578 q 28 586 39 576 q 17 608 17 595 q 28 632 17 621 q 61 641 39 642 q 98 638 79 640 q 248 1093 102 982 q 359 1133 298 1133 q 461 1117 420 1133 q 530 1065 502 1101 q 591 817 591 989 q 579 784 591 795 q 554 772 568 772 q 529 782 540 772 q 518 812 518 792 q 483 1015 518 956 q 369 1071 448 1071 q 187 831 233 1071 q 170 635 172 749 q 218 635 193 635 q 395 640 307 635 q 428 630 416 642 q 439 610 439 619 q 436 595 439 601 q 428 585 433 589 q 402 576 416 574 q 374 579 388 578 q 340 581 359 580 q 268 583 309 583 q 200 582 227 583 q 169 582 184 582 q 173 452 169 513 q 217 452 195 452 q 401 456 304 452 q 434 447 422 458 q 445 424 445 437 q 434 402 445 412 q 395 395 424 393 q 255 400 319 400 q 177 399 216 400 q 184 340 180 368 q 227 170 199 233 q 368 52 275 52 q 483 116 441 52 q 524 302 524 180 z "},"":{"ha":1442,"x_min":104,"x_max":1336,"o":"m 724 675 l 715 1048 q 730 1091 715 1078 q 763 1103 744 1103 q 812 1060 799 1103 q 825 1040 814 1057 q 851 997 836 1023 q 887 939 867 971 q 941 853 907 907 q 1030 713 974 801 q 1076 788 1046 733 q 1137 899 1116 862 q 1234 1059 1188 990 q 1290 1105 1246 1105 q 1318 1088 1308 1105 q 1326 1039 1329 1071 q 1324 957 1324 1008 q 1325 833 1325 906 q 1326 682 1325 760 q 1329 536 1327 604 q 1336 286 1333 378 q 1325 254 1337 264 q 1298 244 1313 244 q 1271 256 1283 244 q 1259 289 1259 267 q 1269 620 1269 484 l 1269 905 q 1267 1015 1269 966 q 1113 727 1217 902 q 1061 645 1086 682 q 1045 625 1057 631 q 1022 618 1033 618 q 994 645 1001 618 q 798 975 952 694 q 777 1015 785 998 q 777 999 777 1007 l 778 803 q 784 487 778 616 q 791 315 790 357 q 788 266 792 273 q 779 254 785 258 q 726 255 752 231 q 716 296 714 267 q 719 369 718 325 q 722 461 720 412 q 724 675 724 576 m 323 1097 q 567 1102 342 1097 q 609 1078 598 1102 q 612 1063 612 1072 q 602 1045 612 1054 q 564 1036 592 1036 q 510 1038 536 1037 q 463 1040 484 1040 q 393 1041 422 1042 q 388 866 388 966 q 388 679 388 751 q 389 541 389 607 q 394 292 392 373 q 384 257 395 269 q 359 246 372 246 q 333 257 346 246 q 321 288 321 267 l 320 377 l 327 781 q 322 1041 327 962 q 237 1038 286 1042 q 152 1033 178 1034 q 115 1041 126 1031 q 104 1064 104 1051 q 115 1090 104 1078 q 150 1102 126 1103 q 192 1101 174 1101 q 223 1099 210 1100 q 246 1098 236 1099 q 267 1097 256 1097 q 290 1097 277 1097 l 323 1097 z "},"":{"ha":594,"x_min":41,"x_max":529,"o":"m 334 1015 l 342 1068 q 302 1143 342 1128 q 272 1147 291 1147 q 236 1135 254 1147 q 206 1088 218 1122 q 183 674 179 1009 q 184 503 184 586 l 294 507 q 339 473 339 507 q 316 442 339 452 q 290 441 308 439 q 217 444 236 444 q 184 443 199 444 l 184 321 q 189 85 184 125 q 191 34 194 46 q 182 14 189 22 q 155 -4 170 -4 q 130 8 140 -4 q 121 43 120 20 q 122 105 122 65 q 122 202 123 146 q 122 330 122 259 q 121 439 121 382 q 84 437 105 437 q 52 446 62 435 q 41 469 41 457 q 46 489 41 481 q 57 500 50 496 q 85 509 70 509 l 121 507 q 119 787 119 654 q 127 1005 119 932 q 153 1124 135 1078 q 283 1212 189 1212 q 401 1113 372 1212 q 412 1042 412 1080 q 399 989 412 1004 q 371 974 387 974 q 334 1015 334 974 m 525 719 q 529 693 530 708 q 522 667 528 677 q 507 649 515 656 q 475 637 492 637 q 450 641 459 637 q 433 651 440 644 q 415 694 415 667 q 429 732 415 720 q 473 751 451 751 q 525 719 510 751 m 503 464 q 496 325 500 393 q 493 201 493 256 q 496 88 493 146 q 497 21 500 29 q 488 7 494 12 q 463 -5 477 -5 q 438 5 450 -5 q 429 47 426 16 q 436 221 436 133 q 434 364 436 309 q 430 446 431 418 q 433 482 429 474 q 442 495 436 490 q 468 506 454 506 q 493 496 482 506 q 503 464 504 486 z "},"":{"ha":605,"x_min":41,"x_max":513,"o":"m 334 1015 l 342 1068 q 302 1143 342 1128 q 272 1147 291 1147 q 236 1135 254 1147 q 206 1088 218 1122 q 183 674 179 1009 q 184 503 184 586 l 294 507 q 339 473 339 507 q 316 442 339 452 q 290 441 308 439 q 217 444 236 444 q 184 443 199 444 l 184 321 q 189 85 184 125 q 191 34 194 46 q 182 14 189 22 q 155 -4 170 -4 q 130 8 140 -4 q 121 43 120 20 q 122 105 122 65 q 122 202 123 146 q 122 330 122 259 q 121 439 121 382 q 84 437 105 437 q 52 446 62 435 q 41 469 41 457 q 46 489 41 481 q 57 500 50 496 q 85 509 70 509 l 121 507 q 119 787 119 654 q 127 1005 119 932 q 153 1124 135 1078 q 283 1212 189 1212 q 401 1113 372 1212 q 412 1042 412 1080 q 399 989 412 1004 q 371 974 387 974 q 334 1015 334 974 m 507 887 q 506 846 507 887 q 504 708 505 804 q 503 411 503 612 q 509 39 503 210 q 498 5 509 17 q 471 -6 487 -6 q 444 4 456 -6 q 433 52 431 15 q 438 164 435 90 q 442 327 440 239 q 446 649 446 519 q 445 844 446 779 q 444 964 445 909 q 437 1153 443 1067 q 446 1186 436 1175 q 472 1198 456 1198 q 501 1186 488 1198 q 513 1139 514 1175 q 510 1037 511 1104 q 507 887 508 970 z "}}}
